<svg width="1154" height="817" viewBox="0 0 1154 817" fill="none" xmlns="http://www.w3.org/2000/svg">
<path fill-rule="evenodd" clip-rule="evenodd" d="M738.855 609.322C695.711 642.96 641.446 663 582.5 663C519.2 663 461.297 639.89 416.769 601.647L473.928 551.959C504.024 574.589 541.446 588 582 588C618.383 588 652.245 577.206 680.557 558.645L738.855 609.322ZM441.499 520.524C416.784 489.705 402 450.579 402 408C402 380.635 408.106 354.697 419.031 331.473L361.783 281.708C340.293 319.038 328 362.334 328 408.5C328 469.527 349.48 525.538 385.293 569.383L441.499 520.524ZM771.938 578.455C812.391 533.395 837 473.821 837 408.5C837 358.019 822.303 310.971 796.953 271.402L739.707 321.165C753.915 346.913 762 376.512 762 408C762 454.637 744.264 497.131 715.168 529.106L771.938 578.455ZM582.5 154C656.371 154 722.892 185.473 769.384 235.742L713.105 284.664C680.276 249.781 633.682 228 582 228C526.279 228 476.472 253.319 443.455 293.079L387.749 244.655C434.434 189.221 504.354 154 582.5 154Z" fill="#DFE1FC" fill-opacity="0.48"/>
<circle cx="582" cy="408" r="167" fill="#E3BD8F" fill-opacity="0.78"/>
<path d="M537.613 385.324H530.348L530.309 381.535H536.539C537.607 381.535 538.499 381.385 539.215 381.086C539.931 380.786 540.471 380.35 540.836 379.777C541.214 379.204 541.402 378.508 541.402 377.688C541.402 376.776 541.227 376.034 540.875 375.461C540.536 374.888 540.003 374.471 539.273 374.211C538.544 373.938 537.62 373.801 536.5 373.801H532.086V398H526.715V369.562H536.5C538.115 369.562 539.553 369.719 540.816 370.031C542.092 370.331 543.173 370.799 544.059 371.438C544.944 372.076 545.615 372.876 546.07 373.84C546.539 374.803 546.773 375.949 546.773 377.277C546.773 378.449 546.5 379.53 545.953 380.52C545.419 381.496 544.592 382.29 543.473 382.902C542.366 383.514 540.96 383.866 539.254 383.957L537.613 385.324ZM537.379 398H528.766L531.012 393.781H537.379C538.447 393.781 539.326 393.605 540.016 393.254C540.719 392.902 541.24 392.421 541.578 391.809C541.93 391.184 542.105 390.467 542.105 389.66C542.105 388.775 541.949 388.007 541.637 387.355C541.337 386.704 540.855 386.203 540.191 385.852C539.54 385.5 538.681 385.324 537.613 385.324H532.027L532.066 381.535H539.176L540.406 383C542.047 383.013 543.382 383.339 544.41 383.977C545.452 384.615 546.22 385.435 546.715 386.438C547.21 387.44 547.457 388.521 547.457 389.68C547.457 391.503 547.06 393.033 546.266 394.27C545.484 395.507 544.339 396.438 542.828 397.062C541.331 397.688 539.514 398 537.379 398ZM562.207 398.391C560.605 398.391 559.167 398.13 557.891 397.609C556.615 397.089 555.527 396.366 554.629 395.441C553.743 394.504 553.06 393.417 552.578 392.18C552.109 390.93 551.875 389.589 551.875 388.156V387.375C551.875 385.747 552.109 384.27 552.578 382.941C553.047 381.6 553.711 380.448 554.57 379.484C555.43 378.521 556.458 377.779 557.656 377.258C558.854 376.737 560.176 376.477 561.621 376.477C563.118 376.477 564.44 376.73 565.586 377.238C566.732 377.733 567.689 378.436 568.457 379.348C569.225 380.259 569.805 381.353 570.195 382.629C570.586 383.892 570.781 385.292 570.781 386.828V388.996H554.219V385.441H565.703V385.051C565.677 384.23 565.521 383.482 565.234 382.805C564.948 382.115 564.505 381.568 563.906 381.164C563.307 380.747 562.533 380.539 561.582 380.539C560.814 380.539 560.143 380.708 559.57 381.047C559.01 381.372 558.542 381.841 558.164 382.453C557.799 383.052 557.526 383.768 557.344 384.602C557.161 385.435 557.07 386.359 557.07 387.375V388.156C557.07 389.042 557.188 389.862 557.422 390.617C557.669 391.372 558.027 392.03 558.496 392.59C558.978 393.137 559.551 393.566 560.215 393.879C560.892 394.178 561.66 394.328 562.52 394.328C563.6 394.328 564.577 394.12 565.449 393.703C566.335 393.273 567.103 392.642 567.754 391.809L570.352 394.504C569.909 395.155 569.31 395.78 568.555 396.379C567.812 396.978 566.914 397.466 565.859 397.844C564.805 398.208 563.587 398.391 562.207 398.391ZM585.238 376.867V380.578H573.129V376.867H585.238ZM576.371 371.672H581.547V391.906C581.547 392.531 581.632 393.013 581.801 393.352C581.97 393.69 582.224 393.918 582.562 394.035C582.901 394.152 583.305 394.211 583.773 394.211C584.112 394.211 584.424 394.191 584.711 394.152C584.997 394.113 585.238 394.074 585.434 394.035L585.453 397.902C585.023 398.046 584.535 398.163 583.988 398.254C583.454 398.345 582.849 398.391 582.172 398.391C581.013 398.391 579.997 398.195 579.125 397.805C578.253 397.401 577.576 396.757 577.094 395.871C576.612 394.973 576.371 393.788 576.371 392.316V371.672ZM599.676 376.867V380.578H587.566V376.867H599.676ZM590.809 371.672H595.984V391.906C595.984 392.531 596.069 393.013 596.238 393.352C596.408 393.69 596.661 393.918 597 394.035C597.339 394.152 597.742 394.211 598.211 394.211C598.549 394.211 598.862 394.191 599.148 394.152C599.435 394.113 599.676 394.074 599.871 394.035L599.891 397.902C599.461 398.046 598.973 398.163 598.426 398.254C597.892 398.345 597.286 398.391 596.609 398.391C595.451 398.391 594.435 398.195 593.562 397.805C592.69 397.401 592.013 396.757 591.531 395.871C591.049 394.973 590.809 393.788 590.809 392.316V371.672ZM613.605 398.391C612.004 398.391 610.565 398.13 609.289 397.609C608.013 397.089 606.926 396.366 606.027 395.441C605.142 394.504 604.458 393.417 603.977 392.18C603.508 390.93 603.273 389.589 603.273 388.156V387.375C603.273 385.747 603.508 384.27 603.977 382.941C604.445 381.6 605.109 380.448 605.969 379.484C606.828 378.521 607.857 377.779 609.055 377.258C610.253 376.737 611.574 376.477 613.02 376.477C614.517 376.477 615.839 376.73 616.984 377.238C618.13 377.733 619.087 378.436 619.855 379.348C620.624 380.259 621.203 381.353 621.594 382.629C621.984 383.892 622.18 385.292 622.18 386.828V388.996H605.617V385.441H617.102V385.051C617.076 384.23 616.919 383.482 616.633 382.805C616.346 382.115 615.904 381.568 615.305 381.164C614.706 380.747 613.931 380.539 612.98 380.539C612.212 380.539 611.542 380.708 610.969 381.047C610.409 381.372 609.94 381.841 609.562 382.453C609.198 383.052 608.924 383.768 608.742 384.602C608.56 385.435 608.469 386.359 608.469 387.375V388.156C608.469 389.042 608.586 389.862 608.82 390.617C609.068 391.372 609.426 392.03 609.895 392.59C610.376 393.137 610.949 393.566 611.613 393.879C612.29 394.178 613.059 394.328 613.918 394.328C614.999 394.328 615.975 394.12 616.848 393.703C617.733 393.273 618.501 392.642 619.152 391.809L621.75 394.504C621.307 395.155 620.708 395.78 619.953 396.379C619.211 396.978 618.312 397.466 617.258 397.844C616.203 398.208 614.986 398.391 613.605 398.391ZM631.793 381.184V398H626.637V376.867H631.52L631.793 381.184ZM638.219 376.73L638.141 381.535C637.854 381.483 637.529 381.444 637.164 381.418C636.812 381.392 636.48 381.379 636.168 381.379C635.374 381.379 634.677 381.49 634.078 381.711C633.479 381.919 632.978 382.225 632.574 382.629C632.184 383.033 631.884 383.527 631.676 384.113C631.467 384.686 631.35 385.337 631.324 386.066L630.211 385.93C630.211 384.589 630.348 383.345 630.621 382.199C630.895 381.053 631.292 380.051 631.812 379.191C632.333 378.332 632.984 377.668 633.766 377.199C634.56 376.717 635.471 376.477 636.5 376.477C636.786 376.477 637.092 376.503 637.418 376.555C637.757 376.594 638.023 376.652 638.219 376.73Z" fill="white" fill-opacity="0.81"/>
<path d="M512.355 435.645H517.727C517.583 437.546 517.056 439.232 516.145 440.703C515.233 442.161 513.964 443.307 512.336 444.141C510.708 444.974 508.736 445.391 506.418 445.391C504.634 445.391 503.026 445.078 501.594 444.453C500.174 443.815 498.957 442.91 497.941 441.738C496.939 440.553 496.171 439.134 495.637 437.48C495.103 435.814 494.836 433.945 494.836 431.875V429.707C494.836 427.637 495.109 425.768 495.656 424.102C496.203 422.435 496.984 421.016 498 419.844C499.029 418.659 500.259 417.747 501.691 417.109C503.137 416.471 504.751 416.152 506.535 416.152C508.853 416.152 510.812 416.582 512.414 417.441C514.016 418.288 515.259 419.453 516.145 420.938C517.03 422.422 517.564 424.128 517.746 426.055H512.375C512.271 424.857 512.01 423.841 511.594 423.008C511.19 422.174 510.578 421.543 509.758 421.113C508.951 420.671 507.876 420.449 506.535 420.449C505.493 420.449 504.576 420.645 503.781 421.035C503 421.426 502.349 422.012 501.828 422.793C501.307 423.561 500.917 424.525 500.656 425.684C500.396 426.829 500.266 428.158 500.266 429.668V431.875C500.266 433.32 500.383 434.616 500.617 435.762C500.852 436.908 501.216 437.878 501.711 438.672C502.206 439.466 502.844 440.072 503.625 440.488C504.406 440.905 505.337 441.113 506.418 441.113C507.733 441.113 508.801 440.905 509.621 440.488C510.454 440.072 511.086 439.46 511.516 438.652C511.958 437.845 512.238 436.842 512.355 435.645ZM521.578 434.648V434.238C521.578 432.689 521.799 431.263 522.242 429.961C522.685 428.646 523.329 427.507 524.176 426.543C525.022 425.579 526.057 424.831 527.281 424.297C528.505 423.75 529.898 423.477 531.461 423.477C533.049 423.477 534.456 423.75 535.68 424.297C536.917 424.831 537.958 425.579 538.805 426.543C539.651 427.507 540.296 428.646 540.738 429.961C541.181 431.263 541.402 432.689 541.402 434.238V434.648C541.402 436.185 541.181 437.611 540.738 438.926C540.296 440.228 539.651 441.367 538.805 442.344C537.958 443.307 536.923 444.056 535.699 444.59C534.475 445.124 533.076 445.391 531.5 445.391C529.938 445.391 528.538 445.124 527.301 444.59C526.064 444.056 525.022 443.307 524.176 442.344C523.329 441.367 522.685 440.228 522.242 438.926C521.799 437.611 521.578 436.185 521.578 434.648ZM526.734 434.238V434.648C526.734 435.573 526.826 436.439 527.008 437.246C527.19 438.053 527.47 438.763 527.848 439.375C528.225 439.987 528.714 440.469 529.312 440.82C529.924 441.159 530.654 441.328 531.5 441.328C532.333 441.328 533.049 441.159 533.648 440.82C534.247 440.469 534.736 439.987 535.113 439.375C535.504 438.763 535.79 438.053 535.973 437.246C536.155 436.439 536.246 435.573 536.246 434.648V434.238C536.246 433.327 536.155 432.474 535.973 431.68C535.79 430.872 535.504 430.163 535.113 429.551C534.736 428.926 534.241 428.438 533.629 428.086C533.03 427.721 532.307 427.539 531.461 427.539C530.628 427.539 529.911 427.721 529.312 428.086C528.714 428.438 528.225 428.926 527.848 429.551C527.47 430.163 527.19 430.872 527.008 431.68C526.826 432.474 526.734 433.327 526.734 434.238ZM551.621 415V445H546.445V415H551.621ZM563.012 415V445H557.836V415H563.012ZM578.426 445.391C576.824 445.391 575.385 445.13 574.109 444.609C572.833 444.089 571.746 443.366 570.848 442.441C569.962 441.504 569.279 440.417 568.797 439.18C568.328 437.93 568.094 436.589 568.094 435.156V434.375C568.094 432.747 568.328 431.27 568.797 429.941C569.266 428.6 569.93 427.448 570.789 426.484C571.648 425.521 572.677 424.779 573.875 424.258C575.073 423.737 576.395 423.477 577.84 423.477C579.337 423.477 580.659 423.73 581.805 424.238C582.951 424.733 583.908 425.436 584.676 426.348C585.444 427.259 586.023 428.353 586.414 429.629C586.805 430.892 587 432.292 587 433.828V435.996H570.438V432.441H581.922V432.051C581.896 431.23 581.74 430.482 581.453 429.805C581.167 429.115 580.724 428.568 580.125 428.164C579.526 427.747 578.751 427.539 577.801 427.539C577.033 427.539 576.362 427.708 575.789 428.047C575.229 428.372 574.76 428.841 574.383 429.453C574.018 430.052 573.745 430.768 573.562 431.602C573.38 432.435 573.289 433.359 573.289 434.375V435.156C573.289 436.042 573.406 436.862 573.641 437.617C573.888 438.372 574.246 439.03 574.715 439.59C575.197 440.137 575.77 440.566 576.434 440.879C577.111 441.178 577.879 441.328 578.738 441.328C579.819 441.328 580.796 441.12 581.668 440.703C582.553 440.273 583.322 439.642 583.973 438.809L586.57 441.504C586.128 442.155 585.529 442.78 584.773 443.379C584.031 443.978 583.133 444.466 582.078 444.844C581.023 445.208 579.806 445.391 578.426 445.391ZM600.129 441.328C600.858 441.328 601.509 441.185 602.082 440.898C602.655 440.612 603.111 440.208 603.449 439.688C603.801 439.167 603.99 438.561 604.016 437.871H608.879C608.853 439.303 608.449 440.586 607.668 441.719C606.887 442.852 605.845 443.75 604.543 444.414C603.254 445.065 601.809 445.391 600.207 445.391C598.579 445.391 597.16 445.117 595.949 444.57C594.738 444.023 593.729 443.262 592.922 442.285C592.128 441.309 591.529 440.176 591.125 438.887C590.734 437.598 590.539 436.217 590.539 434.746V434.121C590.539 432.65 590.734 431.27 591.125 429.98C591.529 428.691 592.128 427.559 592.922 426.582C593.729 425.605 594.738 424.844 595.949 424.297C597.16 423.75 598.573 423.477 600.188 423.477C601.893 423.477 603.391 423.809 604.68 424.473C605.982 425.137 606.997 426.074 607.727 427.285C608.469 428.496 608.853 429.922 608.879 431.562H604.016C603.99 430.807 603.82 430.13 603.508 429.531C603.195 428.932 602.753 428.451 602.18 428.086C601.607 427.721 600.91 427.539 600.09 427.539C599.217 427.539 598.488 427.721 597.902 428.086C597.329 428.451 596.88 428.952 596.555 429.59C596.242 430.215 596.021 430.918 595.891 431.699C595.773 432.467 595.715 433.275 595.715 434.121V434.746C595.715 435.605 595.773 436.426 595.891 437.207C596.021 437.988 596.242 438.691 596.555 439.316C596.88 439.928 597.329 440.417 597.902 440.781C598.488 441.146 599.23 441.328 600.129 441.328ZM623.316 423.867V427.578H611.207V423.867H623.316ZM614.449 418.672H619.625V438.906C619.625 439.531 619.71 440.013 619.879 440.352C620.048 440.69 620.302 440.918 620.641 441.035C620.979 441.152 621.383 441.211 621.852 441.211C622.19 441.211 622.503 441.191 622.789 441.152C623.076 441.113 623.316 441.074 623.512 441.035L623.531 444.902C623.102 445.046 622.613 445.163 622.066 445.254C621.533 445.345 620.927 445.391 620.25 445.391C619.091 445.391 618.076 445.195 617.203 444.805C616.331 444.401 615.654 443.757 615.172 442.871C614.69 441.973 614.449 440.788 614.449 439.316V418.672ZM637.246 445.391C635.645 445.391 634.206 445.13 632.93 444.609C631.654 444.089 630.566 443.366 629.668 442.441C628.783 441.504 628.099 440.417 627.617 439.18C627.148 437.93 626.914 436.589 626.914 435.156V434.375C626.914 432.747 627.148 431.27 627.617 429.941C628.086 428.6 628.75 427.448 629.609 426.484C630.469 425.521 631.497 424.779 632.695 424.258C633.893 423.737 635.215 423.477 636.66 423.477C638.158 423.477 639.479 423.73 640.625 424.238C641.771 424.733 642.728 425.436 643.496 426.348C644.264 427.259 644.844 428.353 645.234 429.629C645.625 430.892 645.82 432.292 645.82 433.828V435.996H629.258V432.441H640.742V432.051C640.716 431.23 640.56 430.482 640.273 429.805C639.987 429.115 639.544 428.568 638.945 428.164C638.346 427.747 637.572 427.539 636.621 427.539C635.853 427.539 635.182 427.708 634.609 428.047C634.049 428.372 633.581 428.841 633.203 429.453C632.839 430.052 632.565 430.768 632.383 431.602C632.201 432.435 632.109 433.359 632.109 434.375V435.156C632.109 436.042 632.227 436.862 632.461 437.617C632.708 438.372 633.066 439.03 633.535 439.59C634.017 440.137 634.59 440.566 635.254 440.879C635.931 441.178 636.699 441.328 637.559 441.328C638.639 441.328 639.616 441.12 640.488 440.703C641.374 440.273 642.142 439.642 642.793 438.809L645.391 441.504C644.948 442.155 644.349 442.78 643.594 443.379C642.852 443.978 641.953 444.466 640.898 444.844C639.844 445.208 638.626 445.391 637.246 445.391ZM662.953 440.508V415H668.148V445H663.461L662.953 440.508ZM649.379 434.688V434.277C649.379 432.663 649.561 431.198 649.926 429.883C650.303 428.555 650.85 427.415 651.566 426.465C652.283 425.514 653.148 424.779 654.164 424.258C655.193 423.737 656.358 423.477 657.66 423.477C658.923 423.477 660.023 423.73 660.961 424.238C661.911 424.746 662.719 425.469 663.383 426.406C664.06 427.344 664.6 428.457 665.004 429.746C665.408 431.022 665.701 432.428 665.883 433.965V435.078C665.701 436.576 665.408 437.949 665.004 439.199C664.6 440.449 664.06 441.543 663.383 442.48C662.719 443.405 661.911 444.121 660.961 444.629C660.01 445.137 658.897 445.391 657.621 445.391C656.332 445.391 655.173 445.124 654.145 444.59C653.129 444.056 652.263 443.307 651.547 442.344C650.844 441.38 650.303 440.247 649.926 438.945C649.561 437.643 649.379 436.224 649.379 434.688ZM654.555 434.277V434.688C654.555 435.599 654.633 436.452 654.789 437.246C654.945 438.04 655.199 438.743 655.551 439.355C655.902 439.954 656.352 440.423 656.898 440.762C657.458 441.1 658.135 441.27 658.93 441.27C659.945 441.27 660.779 441.048 661.43 440.605C662.094 440.15 662.608 439.531 662.973 438.75C663.337 437.956 663.572 437.064 663.676 436.074V433.008C663.624 432.227 663.487 431.504 663.266 430.84C663.057 430.176 662.758 429.603 662.367 429.121C661.99 428.639 661.521 428.262 660.961 427.988C660.401 427.715 659.737 427.578 658.969 427.578C658.174 427.578 657.497 427.754 656.938 428.105C656.378 428.444 655.922 428.919 655.57 429.531C655.219 430.143 654.958 430.853 654.789 431.66C654.633 432.467 654.555 433.34 654.555 434.277Z" fill="#007AFF"/>
<path d="M582 171L564 179V191C564 202.1 571.68 212.48 582 215C592.32 212.48 600 202.1 600 191V179L582 171ZM582 192.98H596C594.94 201.22 589.44 208.56 582 210.86V193H568V181.6L582 175.38V192.98Z" fill="#78A55A"/>
<g clip-path="url(#clip0_122_294)">
<path d="M378 441V423H374V409H388L384 419H388L378 441ZM374 427V441H352C349.8 441 348 439.2 348 437V431C348 428.8 349.8 427 352 427H374ZM356.5 432.5H353.5V435.5H356.5V432.5ZM370 409V423H352C349.8 423 348 421.2 348 419V413C348 410.8 349.8 409 352 409H370ZM356.5 414.5H353.5V417.5H356.5V414.5Z" fill="#BB271A"/>
</g>
<path d="M822 417C822 419.2 820.2 421 818 421C817.64 421 817.3 420.96 816.98 420.86L809.86 427.96C809.96 428.28 810 428.64 810 429C810 431.2 808.2 433 806 433C803.8 433 802 431.2 802 429C802 428.64 802.04 428.28 802.14 427.96L797.04 422.86C796.72 422.96 796.36 423 796 423C795.64 423 795.28 422.96 794.96 422.86L785.86 431.98C785.96 432.3 786 432.64 786 433C786 435.2 784.2 437 782 437C779.8 437 778 435.2 778 433C778 430.8 779.8 429 782 429C782.36 429 782.7 429.04 783.02 429.14L792.14 420.04C792.04 419.72 792 419.36 792 419C792 416.8 793.8 415 796 415C798.2 415 800 416.8 800 419C800 419.36 799.96 419.72 799.86 420.04L804.96 425.14C805.28 425.04 805.64 425 806 425C806.36 425 806.72 425.04 807.04 425.14L814.14 418.02C814.04 417.7 814 417.36 814 417C814 414.8 815.8 413 818 413C820.2 413 822 414.8 822 417Z" fill="#4979D1"/>
<path d="M594 606H578L566.04 618L566 642C566 644.2 567.8 646 570 646H594C596.2 646 598 644.2 598 642V610C598 607.8 596.2 606 594 606ZM582 618H578V610H582V618ZM588 618H584V610H588V618ZM594 618H590V610H594V618Z" fill="#EBC351"/>
<path d="M837 408H953" stroke="black" stroke-opacity="0.6" stroke-dasharray="2 2"/>
<path d="M209 408H325" stroke="black" stroke-opacity="0.6" stroke-dasharray="2 2"/>
<path d="M581 779V663" stroke="black" stroke-opacity="0.6" stroke-dasharray="2 2"/>
<path d="M581 154V38" stroke="black" stroke-opacity="0.6" stroke-dasharray="2 2"/>
<path d="M457.375 22.7656H460.375C460.219 24.2031 459.807 25.4896 459.141 26.625C458.474 27.7604 457.531 28.6615 456.312 29.3281C455.094 29.9844 453.573 30.3125 451.75 30.3125C450.417 30.3125 449.203 30.0625 448.109 29.5625C447.026 29.0625 446.094 28.3542 445.312 27.4375C444.531 26.5104 443.927 25.401 443.5 24.1094C443.083 22.8073 442.875 21.3594 442.875 19.7656V17.5C442.875 15.9062 443.083 14.4635 443.5 13.1719C443.927 11.8698 444.536 10.7552 445.328 9.82812C446.13 8.90104 447.094 8.1875 448.219 7.6875C449.344 7.1875 450.609 6.9375 452.016 6.9375C453.734 6.9375 455.188 7.26042 456.375 7.90625C457.562 8.55208 458.484 9.44792 459.141 10.5938C459.807 11.7292 460.219 13.0469 460.375 14.5469H457.375C457.229 13.4844 456.958 12.5729 456.562 11.8125C456.167 11.0417 455.604 10.4479 454.875 10.0312C454.146 9.61458 453.193 9.40625 452.016 9.40625C451.005 9.40625 450.115 9.59896 449.344 9.98438C448.583 10.3698 447.943 10.9167 447.422 11.625C446.911 12.3333 446.526 13.1823 446.266 14.1719C446.005 15.1615 445.875 16.2604 445.875 17.4688V19.7656C445.875 20.8802 445.99 21.9271 446.219 22.9062C446.458 23.8854 446.818 24.7448 447.297 25.4844C447.776 26.224 448.385 26.8073 449.125 27.2344C449.865 27.651 450.74 27.8594 451.75 27.8594C453.031 27.8594 454.052 27.6562 454.812 27.25C455.573 26.8438 456.146 26.2604 456.531 25.5C456.927 24.7396 457.208 23.8281 457.375 22.7656ZM479.019 22.7656H482.019C481.862 24.2031 481.451 25.4896 480.784 26.625C480.118 27.7604 479.175 28.6615 477.956 29.3281C476.737 29.9844 475.217 30.3125 473.394 30.3125C472.06 30.3125 470.847 30.0625 469.753 29.5625C468.67 29.0625 467.737 28.3542 466.956 27.4375C466.175 26.5104 465.571 25.401 465.144 24.1094C464.727 22.8073 464.519 21.3594 464.519 19.7656V17.5C464.519 15.9062 464.727 14.4635 465.144 13.1719C465.571 11.8698 466.18 10.7552 466.972 9.82812C467.774 8.90104 468.737 8.1875 469.862 7.6875C470.987 7.1875 472.253 6.9375 473.659 6.9375C475.378 6.9375 476.831 7.26042 478.019 7.90625C479.206 8.55208 480.128 9.44792 480.784 10.5938C481.451 11.7292 481.862 13.0469 482.019 14.5469H479.019C478.873 13.4844 478.602 12.5729 478.206 11.8125C477.81 11.0417 477.248 10.4479 476.519 10.0312C475.79 9.61458 474.836 9.40625 473.659 9.40625C472.649 9.40625 471.758 9.59896 470.987 9.98438C470.227 10.3698 469.586 10.9167 469.066 11.625C468.555 12.3333 468.17 13.1823 467.909 14.1719C467.649 15.1615 467.519 16.2604 467.519 17.4688V19.7656C467.519 20.8802 467.633 21.9271 467.862 22.9062C468.102 23.8854 468.461 24.7448 468.941 25.4844C469.42 26.224 470.029 26.8073 470.769 27.2344C471.508 27.651 472.383 27.8594 473.394 27.8594C474.675 27.8594 475.696 27.6562 476.456 27.25C477.217 26.8438 477.79 26.2604 478.175 25.5C478.571 24.7396 478.852 23.8281 479.019 22.7656ZM495.319 21.0781H489.241V18.625H495.319C496.496 18.625 497.449 18.4375 498.178 18.0625C498.907 17.6875 499.439 17.1667 499.772 16.5C500.116 15.8333 500.287 15.0729 500.287 14.2188C500.287 13.4375 500.116 12.7031 499.772 12.0156C499.439 11.3281 498.907 10.776 498.178 10.3594C497.449 9.93229 496.496 9.71875 495.319 9.71875H489.944V30H486.928V7.25H495.319C497.037 7.25 498.491 7.54688 499.678 8.14062C500.866 8.73438 501.767 9.55729 502.381 10.6094C502.996 11.651 503.303 12.8438 503.303 14.1875C503.303 15.6458 502.996 16.8906 502.381 17.9219C501.767 18.9531 500.866 19.7396 499.678 20.2812C498.491 20.8125 497.037 21.0781 495.319 21.0781ZM514.181 9.26562L506.65 30H503.572L512.244 7.25H514.228L514.181 9.26562ZM520.494 30L512.947 9.26562L512.9 7.25H514.884L523.588 30H520.494ZM520.103 21.5781V24.0469H507.322V21.5781H520.103ZM529.622 26.5625V28.8906C529.622 29.8385 529.382 30.8385 528.903 31.8906C528.424 32.9531 527.752 33.8385 526.887 34.5469L525.247 33.4062C525.58 32.9479 525.861 32.4792 526.091 32C526.32 31.5312 526.492 31.0417 526.606 30.5312C526.731 30.0312 526.794 29.5 526.794 28.9375V26.5625H529.622ZM551.359 18.6719V27C551.078 27.4167 550.63 27.8854 550.016 28.4062C549.401 28.9167 548.552 29.3646 547.469 29.75C546.396 30.125 545.01 30.3125 543.312 30.3125C541.927 30.3125 540.651 30.0729 539.484 29.5938C538.328 29.1042 537.323 28.3958 536.469 27.4688C535.625 26.5312 534.969 25.3958 534.5 24.0625C534.042 22.7188 533.812 21.1979 533.812 19.5V17.7344C533.812 16.0365 534.01 14.5208 534.406 13.1875C534.812 11.8542 535.406 10.724 536.188 9.79688C536.969 8.85938 537.927 8.15104 539.062 7.67188C540.198 7.18229 541.5 6.9375 542.969 6.9375C544.708 6.9375 546.161 7.23958 547.328 7.84375C548.505 8.4375 549.422 9.26042 550.078 10.3125C550.745 11.3646 551.172 12.5625 551.359 13.9062H548.344C548.208 13.0833 547.938 12.3333 547.531 11.6562C547.135 10.9792 546.568 10.4375 545.828 10.0312C545.089 9.61458 544.135 9.40625 542.969 9.40625C541.917 9.40625 541.005 9.59896 540.234 9.98438C539.464 10.3698 538.828 10.9219 538.328 11.6406C537.828 12.3594 537.453 13.2292 537.203 14.25C536.964 15.2708 536.844 16.4219 536.844 17.7031V19.5C536.844 20.8125 536.995 21.9844 537.297 23.0156C537.609 24.0469 538.052 24.9271 538.625 25.6562C539.198 26.375 539.88 26.9219 540.672 27.2969C541.474 27.6719 542.359 27.8594 543.328 27.8594C544.401 27.8594 545.271 27.7708 545.938 27.5938C546.604 27.4062 547.125 27.1875 547.5 26.9375C547.875 26.6771 548.161 26.4323 548.359 26.2031V21.1094H543.094V18.6719H551.359ZM563.316 30H558.566L558.597 27.5469H563.316C564.941 27.5469 566.295 27.2083 567.378 26.5312C568.461 25.8438 569.274 24.8854 569.816 23.6562C570.368 22.4167 570.644 20.9688 570.644 19.3125V17.9219C570.644 16.6198 570.488 15.4635 570.175 14.4531C569.863 13.4323 569.404 12.5729 568.8 11.875C568.196 11.1667 567.456 10.6302 566.581 10.2656C565.717 9.90104 564.722 9.71875 563.597 9.71875H558.472V7.25H563.597C565.086 7.25 566.446 7.5 567.675 8C568.904 8.48958 569.961 9.20312 570.847 10.1406C571.743 11.0677 572.43 12.1927 572.909 13.5156C573.389 14.8281 573.628 16.3073 573.628 17.9531V19.3125C573.628 20.9583 573.389 22.4427 572.909 23.7656C572.43 25.0781 571.738 26.1979 570.831 27.125C569.935 28.0521 568.852 28.7656 567.581 29.2656C566.321 29.7552 564.899 30 563.316 30ZM560.175 7.25V30H557.159V7.25H560.175ZM587.35 21.0781H581.272V18.625H587.35C588.527 18.625 589.48 18.4375 590.209 18.0625C590.939 17.6875 591.47 17.1667 591.803 16.5C592.147 15.8333 592.319 15.0729 592.319 14.2188C592.319 13.4375 592.147 12.7031 591.803 12.0156C591.47 11.3281 590.939 10.776 590.209 10.3594C589.48 9.93229 588.527 9.71875 587.35 9.71875H581.975V30H578.959V7.25H587.35C589.069 7.25 590.522 7.54688 591.709 8.14062C592.897 8.73438 593.798 9.55729 594.413 10.6094C595.027 11.651 595.334 12.8438 595.334 14.1875C595.334 15.6458 595.027 16.8906 594.413 17.9219C593.798 18.9531 592.897 19.7396 591.709 20.2812C590.522 20.8125 589.069 21.0781 587.35 21.0781ZM615.012 27.9375C615.7 27.9375 616.335 27.7969 616.919 27.5156C617.502 27.2344 617.981 26.849 618.356 26.3594C618.731 25.8594 618.945 25.2917 618.997 24.6562H621.747C621.695 25.6562 621.356 26.5885 620.731 27.4531C620.117 28.3073 619.309 29 618.309 29.5312C617.309 30.0521 616.21 30.3125 615.012 30.3125C613.742 30.3125 612.632 30.0885 611.684 29.6406C610.747 29.1927 609.966 28.5781 609.341 27.7969C608.726 27.0156 608.262 26.1198 607.95 25.1094C607.648 24.0885 607.497 23.0104 607.497 21.875V21.2188C607.497 20.0833 607.648 19.0104 607.95 18C608.262 16.9792 608.726 16.0781 609.341 15.2969C609.966 14.5156 610.747 13.901 611.684 13.4531C612.632 13.0052 613.742 12.7812 615.012 12.7812C616.335 12.7812 617.492 13.0521 618.481 13.5938C619.471 14.125 620.247 14.8542 620.809 15.7812C621.382 16.6979 621.695 17.7396 621.747 18.9062H618.997C618.945 18.2083 618.747 17.5781 618.403 17.0156C618.07 16.4531 617.611 16.0052 617.028 15.6719C616.455 15.3281 615.783 15.1562 615.012 15.1562C614.127 15.1562 613.382 15.3333 612.778 15.6875C612.184 16.0312 611.71 16.5 611.356 17.0938C611.012 17.6771 610.762 18.3281 610.606 19.0469C610.46 19.7552 610.387 20.4792 610.387 21.2188V21.875C610.387 22.6146 610.46 23.3438 610.606 24.0625C610.752 24.7812 610.997 25.4323 611.341 26.0156C611.695 26.599 612.169 27.0677 612.762 27.4219C613.367 27.7656 614.117 27.9375 615.012 27.9375ZM625.031 21.7344V21.375C625.031 20.1562 625.208 19.026 625.562 17.9844C625.917 16.9323 626.427 16.0208 627.094 15.25C627.76 14.4688 628.568 13.8646 629.516 13.4375C630.464 13 631.526 12.7812 632.703 12.7812C633.891 12.7812 634.958 13 635.906 13.4375C636.865 13.8646 637.677 14.4688 638.344 15.25C639.021 16.0208 639.536 16.9323 639.891 17.9844C640.245 19.026 640.422 20.1562 640.422 21.375V21.7344C640.422 22.9531 640.245 24.0833 639.891 25.125C639.536 26.1667 639.021 27.0781 638.344 27.8594C637.677 28.6302 636.87 29.2344 635.922 29.6719C634.984 30.099 633.922 30.3125 632.734 30.3125C631.547 30.3125 630.479 30.099 629.531 29.6719C628.583 29.2344 627.771 28.6302 627.094 27.8594C626.427 27.0781 625.917 26.1667 625.562 25.125C625.208 24.0833 625.031 22.9531 625.031 21.7344ZM627.922 21.375V21.7344C627.922 22.5781 628.021 23.375 628.219 24.125C628.417 24.8646 628.714 25.5208 629.109 26.0938C629.516 26.6667 630.021 27.1198 630.625 27.4531C631.229 27.776 631.932 27.9375 632.734 27.9375C633.526 27.9375 634.219 27.776 634.812 27.4531C635.417 27.1198 635.917 26.6667 636.312 26.0938C636.708 25.5208 637.005 24.8646 637.203 24.125C637.411 23.375 637.516 22.5781 637.516 21.7344V21.375C637.516 20.5417 637.411 19.7552 637.203 19.0156C637.005 18.2656 636.703 17.6042 636.297 17.0312C635.901 16.4479 635.401 15.9896 634.797 15.6562C634.203 15.3229 633.505 15.1562 632.703 15.1562C631.911 15.1562 631.214 15.3229 630.609 15.6562C630.016 15.9896 629.516 16.4479 629.109 17.0312C628.714 17.6042 628.417 18.2656 628.219 19.0156C628.021 19.7552 627.922 20.5417 627.922 21.375ZM647.722 16.4531V30H644.816V13.0938H647.566L647.722 16.4531ZM647.128 20.9062L645.784 20.8594C645.795 19.7031 645.946 18.6354 646.238 17.6562C646.529 16.6667 646.961 15.8073 647.534 15.0781C648.107 14.349 648.821 13.7865 649.675 13.3906C650.529 12.9844 651.519 12.7812 652.644 12.7812C653.435 12.7812 654.165 12.8958 654.831 13.125C655.498 13.3438 656.076 13.6927 656.566 14.1719C657.055 14.651 657.435 15.2656 657.706 16.0156C657.977 16.7656 658.113 17.6719 658.113 18.7344V30H655.222V18.875C655.222 17.9896 655.071 17.2812 654.769 16.75C654.477 16.2188 654.06 15.8333 653.519 15.5938C652.977 15.3438 652.342 15.2188 651.613 15.2188C650.758 15.2188 650.045 15.3698 649.472 15.6719C648.899 15.974 648.441 16.3906 648.097 16.9219C647.753 17.4531 647.503 18.0625 647.347 18.75C647.201 19.4271 647.128 20.1458 647.128 20.9062ZM658.081 19.3125L656.144 19.9062C656.154 18.9792 656.305 18.0885 656.597 17.2344C656.899 16.3802 657.331 15.6198 657.894 14.9531C658.467 14.2865 659.17 13.7604 660.003 13.375C660.836 12.9792 661.79 12.7812 662.863 12.7812C663.769 12.7812 664.571 12.901 665.269 13.1406C665.977 13.3802 666.571 13.75 667.05 14.25C667.54 14.7396 667.909 15.3698 668.159 16.1406C668.409 16.9115 668.534 17.8281 668.534 18.8906V30H665.628V18.8594C665.628 17.9115 665.477 17.1771 665.175 16.6562C664.883 16.125 664.467 15.7552 663.925 15.5469C663.394 15.3281 662.758 15.2188 662.019 15.2188C661.383 15.2188 660.821 15.3281 660.331 15.5469C659.842 15.7656 659.43 16.0677 659.097 16.4531C658.764 16.8281 658.508 17.2604 658.331 17.75C658.165 18.2396 658.081 18.7604 658.081 19.3125ZM676.6 16.3438V36.5H673.694V13.0938H676.35L676.6 16.3438ZM687.991 21.4062V21.7344C687.991 22.9635 687.845 24.1042 687.553 25.1562C687.261 26.1979 686.834 27.1042 686.272 27.875C685.72 28.6458 685.038 29.2448 684.225 29.6719C683.413 30.099 682.48 30.3125 681.428 30.3125C680.355 30.3125 679.407 30.1354 678.584 29.7812C677.761 29.4271 677.064 28.9115 676.491 28.2344C675.918 27.5573 675.459 26.7448 675.116 25.7969C674.782 24.849 674.553 23.7812 674.428 22.5938V20.8438C674.553 19.5938 674.788 18.474 675.131 17.4844C675.475 16.4948 675.928 15.651 676.491 14.9531C677.064 14.2448 677.756 13.7083 678.569 13.3438C679.381 12.9688 680.319 12.7812 681.381 12.7812C682.444 12.7812 683.386 12.9896 684.209 13.4062C685.032 13.8125 685.725 14.3958 686.288 15.1562C686.85 15.9167 687.272 16.8281 687.553 17.8906C687.845 18.9427 687.991 20.1146 687.991 21.4062ZM685.084 21.7344V21.4062C685.084 20.5625 684.996 19.7708 684.819 19.0312C684.642 18.2812 684.366 17.625 683.991 17.0625C683.626 16.4896 683.157 16.0417 682.584 15.7188C682.011 15.3854 681.329 15.2188 680.538 15.2188C679.808 15.2188 679.173 15.3438 678.631 15.5938C678.1 15.8438 677.647 16.1823 677.272 16.6094C676.897 17.026 676.59 17.5052 676.35 18.0469C676.121 18.5781 675.949 19.1302 675.834 19.7031V23.75C676.043 24.4792 676.334 25.1667 676.709 25.8125C677.084 26.4479 677.584 26.9635 678.209 27.3594C678.834 27.7448 679.621 27.9375 680.569 27.9375C681.35 27.9375 682.022 27.776 682.584 27.4531C683.157 27.1198 683.626 26.6667 683.991 26.0938C684.366 25.5208 684.642 24.8646 684.819 24.125C684.996 23.375 685.084 22.5781 685.084 21.7344ZM695.619 6V30H692.712V6H695.619ZM704.2 13.0938V30H701.294V13.0938H704.2ZM701.075 8.60938C701.075 8.14062 701.216 7.74479 701.497 7.42188C701.789 7.09896 702.216 6.9375 702.778 6.9375C703.33 6.9375 703.752 7.09896 704.044 7.42188C704.346 7.74479 704.497 8.14062 704.497 8.60938C704.497 9.05729 704.346 9.44271 704.044 9.76562C703.752 10.0781 703.33 10.2344 702.778 10.2344C702.216 10.2344 701.789 10.0781 701.497 9.76562C701.216 9.44271 701.075 9.05729 701.075 8.60938ZM719.609 27.1094V18.4062C719.609 17.7396 719.474 17.1615 719.203 16.6719C718.943 16.1719 718.547 15.7865 718.016 15.5156C717.484 15.2448 716.828 15.1094 716.047 15.1094C715.318 15.1094 714.677 15.2344 714.125 15.4844C713.583 15.7344 713.156 16.0625 712.844 16.4688C712.542 16.875 712.391 17.3125 712.391 17.7812H709.5C709.5 17.1771 709.656 16.5781 709.969 15.9844C710.281 15.3906 710.729 14.8542 711.312 14.375C711.906 13.8854 712.615 13.5 713.438 13.2188C714.271 12.9271 715.198 12.7812 716.219 12.7812C717.448 12.7812 718.531 12.9896 719.469 13.4062C720.417 13.8229 721.156 14.4531 721.688 15.2969C722.229 16.1302 722.5 17.1771 722.5 18.4375V26.3125C722.5 26.875 722.547 27.474 722.641 28.1094C722.745 28.7448 722.896 29.2917 723.094 29.75V30H720.078C719.932 29.6667 719.818 29.224 719.734 28.6719C719.651 28.1094 719.609 27.5885 719.609 27.1094ZM720.109 19.75L720.141 21.7812H717.219C716.396 21.7812 715.661 21.849 715.016 21.9844C714.37 22.1094 713.828 22.3021 713.391 22.5625C712.953 22.8229 712.62 23.151 712.391 23.5469C712.161 23.9323 712.047 24.3854 712.047 24.9062C712.047 25.4375 712.167 25.9219 712.406 26.3594C712.646 26.7969 713.005 27.1458 713.484 27.4062C713.974 27.6562 714.573 27.7812 715.281 27.7812C716.167 27.7812 716.948 27.5938 717.625 27.2188C718.302 26.8438 718.839 26.3854 719.234 25.8438C719.641 25.3021 719.859 24.776 719.891 24.2656L721.125 25.6562C721.052 26.0938 720.854 26.5781 720.531 27.1094C720.208 27.6406 719.776 28.151 719.234 28.6406C718.703 29.1198 718.068 29.5208 717.328 29.8438C716.599 30.1562 715.776 30.3125 714.859 30.3125C713.714 30.3125 712.708 30.0885 711.844 29.6406C710.99 29.1927 710.323 28.5938 709.844 27.8438C709.375 27.0833 709.141 26.2344 709.141 25.2969C709.141 24.3906 709.318 23.5938 709.672 22.9062C710.026 22.2083 710.536 21.6302 711.203 21.1719C711.87 20.7031 712.672 20.349 713.609 20.1094C714.547 19.8698 715.594 19.75 716.75 19.75H720.109ZM730.737 16.7031V30H727.847V13.0938H730.581L730.737 16.7031ZM730.05 20.9062L728.847 20.8594C728.857 19.7031 729.029 18.6354 729.362 17.6562C729.696 16.6667 730.165 15.8073 730.769 15.0781C731.373 14.349 732.092 13.7865 732.925 13.3906C733.769 12.9844 734.701 12.7812 735.722 12.7812C736.555 12.7812 737.305 12.8958 737.972 13.125C738.639 13.3438 739.206 13.6979 739.675 14.1875C740.154 14.6771 740.519 15.3125 740.769 16.0938C741.019 16.8646 741.144 17.8073 741.144 18.9219V30H738.237V18.8906C738.237 18.0052 738.107 17.2969 737.847 16.7656C737.586 16.224 737.206 15.8333 736.706 15.5938C736.206 15.3438 735.592 15.2188 734.862 15.2188C734.144 15.2188 733.487 15.3698 732.894 15.6719C732.31 15.974 731.805 16.3906 731.378 16.9219C730.961 17.4531 730.633 18.0625 730.394 18.75C730.165 19.4271 730.05 20.1458 730.05 20.9062ZM753.413 13.0938V15.3125H744.272V13.0938H753.413ZM747.366 8.98438H750.256V25.8125C750.256 26.3854 750.345 26.8177 750.522 27.1094C750.699 27.401 750.928 27.5938 751.209 27.6875C751.491 27.7812 751.793 27.8281 752.116 27.8281C752.355 27.8281 752.605 27.8073 752.866 27.7656C753.136 27.7135 753.34 27.6719 753.475 27.6406L753.491 30C753.261 30.0729 752.959 30.1406 752.584 30.2031C752.22 30.276 751.777 30.3125 751.256 30.3125C750.548 30.3125 749.897 30.1719 749.303 29.8906C748.709 29.6094 748.235 29.1406 747.881 28.4844C747.538 27.8177 747.366 26.9219 747.366 25.7969V8.98438Z" fill="black" fill-opacity="0.65"/>
<path d="M961.797 417H957.047L957.078 414.547H961.797C963.422 414.547 964.776 414.208 965.859 413.531C966.943 412.844 967.755 411.885 968.297 410.656C968.849 409.417 969.125 407.969 969.125 406.312V404.922C969.125 403.62 968.969 402.464 968.656 401.453C968.344 400.432 967.885 399.573 967.281 398.875C966.677 398.167 965.938 397.63 965.062 397.266C964.198 396.901 963.203 396.719 962.078 396.719H956.953V394.25H962.078C963.568 394.25 964.927 394.5 966.156 395C967.385 395.49 968.443 396.203 969.328 397.141C970.224 398.068 970.911 399.193 971.391 400.516C971.87 401.828 972.109 403.307 972.109 404.953V406.312C972.109 407.958 971.87 409.443 971.391 410.766C970.911 412.078 970.219 413.198 969.312 414.125C968.417 415.052 967.333 415.766 966.062 416.266C964.802 416.755 963.38 417 961.797 417ZM958.656 394.25V417H955.641V394.25H958.656ZM986.972 414.109V405.406C986.972 404.74 986.836 404.161 986.566 403.672C986.305 403.172 985.909 402.786 985.378 402.516C984.847 402.245 984.191 402.109 983.409 402.109C982.68 402.109 982.04 402.234 981.487 402.484C980.946 402.734 980.519 403.062 980.206 403.469C979.904 403.875 979.753 404.312 979.753 404.781H976.862C976.862 404.177 977.019 403.578 977.331 402.984C977.644 402.391 978.092 401.854 978.675 401.375C979.269 400.885 979.977 400.5 980.8 400.219C981.633 399.927 982.56 399.781 983.581 399.781C984.81 399.781 985.894 399.99 986.831 400.406C987.779 400.823 988.519 401.453 989.05 402.297C989.592 403.13 989.862 404.177 989.862 405.438V413.312C989.862 413.875 989.909 414.474 990.003 415.109C990.107 415.745 990.258 416.292 990.456 416.75V417H987.441C987.295 416.667 987.18 416.224 987.097 415.672C987.014 415.109 986.972 414.589 986.972 414.109ZM987.472 406.75L987.503 408.781H984.581C983.758 408.781 983.024 408.849 982.378 408.984C981.732 409.109 981.191 409.302 980.753 409.562C980.316 409.823 979.982 410.151 979.753 410.547C979.524 410.932 979.409 411.385 979.409 411.906C979.409 412.438 979.529 412.922 979.769 413.359C980.008 413.797 980.368 414.146 980.847 414.406C981.336 414.656 981.935 414.781 982.644 414.781C983.529 414.781 984.31 414.594 984.987 414.219C985.665 413.844 986.201 413.385 986.597 412.844C987.003 412.302 987.222 411.776 987.253 411.266L988.487 412.656C988.415 413.094 988.217 413.578 987.894 414.109C987.571 414.641 987.139 415.151 986.597 415.641C986.066 416.12 985.43 416.521 984.691 416.844C983.961 417.156 983.139 417.312 982.222 417.312C981.076 417.312 980.071 417.089 979.206 416.641C978.352 416.193 977.685 415.594 977.206 414.844C976.737 414.083 976.503 413.234 976.503 412.297C976.503 411.391 976.68 410.594 977.034 409.906C977.389 409.208 977.899 408.63 978.566 408.172C979.232 407.703 980.034 407.349 980.972 407.109C981.909 406.87 982.956 406.75 984.112 406.75H987.472ZM1002.29 400.094V402.312H993.147V400.094H1002.29ZM996.241 395.984H999.131V412.812C999.131 413.385 999.22 413.818 999.397 414.109C999.574 414.401 999.803 414.594 1000.08 414.688C1000.37 414.781 1000.67 414.828 1000.99 414.828C1001.23 414.828 1001.48 414.807 1001.74 414.766C1002.01 414.714 1002.21 414.672 1002.35 414.641L1002.37 417C1002.14 417.073 1001.83 417.141 1001.46 417.203C1001.09 417.276 1000.65 417.312 1000.13 417.312C999.423 417.312 998.772 417.172 998.178 416.891C997.584 416.609 997.11 416.141 996.756 415.484C996.412 414.818 996.241 413.922 996.241 412.797V395.984ZM1016.45 414.109V405.406C1016.45 404.74 1016.31 404.161 1016.04 403.672C1015.78 403.172 1015.38 402.786 1014.85 402.516C1014.32 402.245 1013.67 402.109 1012.88 402.109C1012.16 402.109 1011.51 402.234 1010.96 402.484C1010.42 402.734 1009.99 403.062 1009.68 403.469C1009.38 403.875 1009.23 404.312 1009.23 404.781H1006.34C1006.34 404.177 1006.49 403.578 1006.81 402.984C1007.12 402.391 1007.57 401.854 1008.15 401.375C1008.74 400.885 1009.45 400.5 1010.28 400.219C1011.11 399.927 1012.04 399.781 1013.06 399.781C1014.29 399.781 1015.37 399.99 1016.31 400.406C1017.25 400.823 1017.99 401.453 1018.53 402.297C1019.07 403.13 1019.34 404.177 1019.34 405.438V413.312C1019.34 413.875 1019.38 414.474 1019.48 415.109C1019.58 415.745 1019.73 416.292 1019.93 416.75V417H1016.92C1016.77 416.667 1016.66 416.224 1016.57 415.672C1016.49 415.109 1016.45 414.589 1016.45 414.109ZM1016.95 406.75L1016.98 408.781H1014.06C1013.23 408.781 1012.5 408.849 1011.85 408.984C1011.21 409.109 1010.67 409.302 1010.23 409.562C1009.79 409.823 1009.46 410.151 1009.23 410.547C1009 410.932 1008.88 411.385 1008.88 411.906C1008.88 412.438 1009 412.922 1009.24 413.359C1009.48 413.797 1009.84 414.146 1010.32 414.406C1010.81 414.656 1011.41 414.781 1012.12 414.781C1013 414.781 1013.79 414.594 1014.46 414.219C1015.14 413.844 1015.68 413.385 1016.07 412.844C1016.48 412.302 1016.7 411.776 1016.73 411.266L1017.96 412.656C1017.89 413.094 1017.69 413.578 1017.37 414.109C1017.05 414.641 1016.61 415.151 1016.07 415.641C1015.54 416.12 1014.91 416.521 1014.17 416.844C1013.44 417.156 1012.61 417.312 1011.7 417.312C1010.55 417.312 1009.55 417.089 1008.68 416.641C1007.83 416.193 1007.16 415.594 1006.68 414.844C1006.21 414.083 1005.98 413.234 1005.98 412.297C1005.98 411.391 1006.16 410.594 1006.51 409.906C1006.86 409.208 1007.37 408.63 1008.04 408.172C1008.71 407.703 1009.51 407.349 1010.45 407.109C1011.38 406.87 1012.43 406.75 1013.59 406.75H1016.95ZM1043.39 414.109V405.406C1043.39 404.74 1043.26 404.161 1042.98 403.672C1042.72 403.172 1042.33 402.786 1041.8 402.516C1041.27 402.245 1040.61 402.109 1039.83 402.109C1039.1 402.109 1038.46 402.234 1037.91 402.484C1037.36 402.734 1036.94 403.062 1036.62 403.469C1036.32 403.875 1036.17 404.312 1036.17 404.781H1033.28C1033.28 404.177 1033.44 403.578 1033.75 402.984C1034.06 402.391 1034.51 401.854 1035.09 401.375C1035.69 400.885 1036.4 400.5 1037.22 400.219C1038.05 399.927 1038.98 399.781 1040 399.781C1041.23 399.781 1042.31 399.99 1043.25 400.406C1044.2 400.823 1044.94 401.453 1045.47 402.297C1046.01 403.13 1046.28 404.177 1046.28 405.438V413.312C1046.28 413.875 1046.33 414.474 1046.42 415.109C1046.53 415.745 1046.68 416.292 1046.88 416.75V417H1043.86C1043.71 416.667 1043.6 416.224 1043.52 415.672C1043.43 415.109 1043.39 414.589 1043.39 414.109ZM1043.89 406.75L1043.92 408.781H1041C1040.18 408.781 1039.44 408.849 1038.8 408.984C1038.15 409.109 1037.61 409.302 1037.17 409.562C1036.73 409.823 1036.4 410.151 1036.17 410.547C1035.94 410.932 1035.83 411.385 1035.83 411.906C1035.83 412.438 1035.95 412.922 1036.19 413.359C1036.43 413.797 1036.79 414.146 1037.27 414.406C1037.76 414.656 1038.35 414.781 1039.06 414.781C1039.95 414.781 1040.73 414.594 1041.41 414.219C1042.08 413.844 1042.62 413.385 1043.02 412.844C1043.42 412.302 1043.64 411.776 1043.67 411.266L1044.91 412.656C1044.83 413.094 1044.64 413.578 1044.31 414.109C1043.99 414.641 1043.56 415.151 1043.02 415.641C1042.48 416.12 1041.85 416.521 1041.11 416.844C1040.38 417.156 1039.56 417.312 1038.64 417.312C1037.49 417.312 1036.49 417.089 1035.62 416.641C1034.77 416.193 1034.1 415.594 1033.62 414.844C1033.16 414.083 1032.92 413.234 1032.92 412.297C1032.92 411.391 1033.1 410.594 1033.45 409.906C1033.81 409.208 1034.32 408.63 1034.98 408.172C1035.65 407.703 1036.45 407.349 1037.39 407.109C1038.33 406.87 1039.38 406.75 1040.53 406.75H1043.89ZM1054.52 403.703V417H1051.63V400.094H1054.36L1054.52 403.703ZM1053.83 407.906L1052.63 407.859C1052.64 406.703 1052.81 405.635 1053.14 404.656C1053.48 403.667 1053.95 402.807 1054.55 402.078C1055.15 401.349 1055.87 400.786 1056.71 400.391C1057.55 399.984 1058.48 399.781 1059.5 399.781C1060.34 399.781 1061.09 399.896 1061.75 400.125C1062.42 400.344 1062.99 400.698 1063.46 401.188C1063.94 401.677 1064.3 402.312 1064.55 403.094C1064.8 403.865 1064.93 404.807 1064.93 405.922V417H1062.02V405.891C1062.02 405.005 1061.89 404.297 1061.63 403.766C1061.37 403.224 1060.99 402.833 1060.49 402.594C1059.99 402.344 1059.37 402.219 1058.64 402.219C1057.93 402.219 1057.27 402.37 1056.68 402.672C1056.09 402.974 1055.59 403.391 1055.16 403.922C1054.74 404.453 1054.41 405.062 1054.18 405.75C1053.95 406.427 1053.83 407.146 1053.83 407.906ZM1080.08 414.109V405.406C1080.08 404.74 1079.95 404.161 1079.68 403.672C1079.42 403.172 1079.02 402.786 1078.49 402.516C1077.96 402.245 1077.3 402.109 1076.52 402.109C1075.79 402.109 1075.15 402.234 1074.6 402.484C1074.06 402.734 1073.63 403.062 1073.32 403.469C1073.02 403.875 1072.87 404.312 1072.87 404.781H1069.97C1069.97 404.177 1070.13 403.578 1070.44 402.984C1070.76 402.391 1071.2 401.854 1071.79 401.375C1072.38 400.885 1073.09 400.5 1073.91 400.219C1074.75 399.927 1075.67 399.781 1076.69 399.781C1077.92 399.781 1079.01 399.99 1079.94 400.406C1080.89 400.823 1081.63 401.453 1082.16 402.297C1082.7 403.13 1082.97 404.177 1082.97 405.438V413.312C1082.97 413.875 1083.02 414.474 1083.12 415.109C1083.22 415.745 1083.37 416.292 1083.57 416.75V417H1080.55C1080.41 416.667 1080.29 416.224 1080.21 415.672C1080.13 415.109 1080.08 414.589 1080.08 414.109ZM1080.58 406.75L1080.62 408.781H1077.69C1076.87 408.781 1076.14 408.849 1075.49 408.984C1074.84 409.109 1074.3 409.302 1073.87 409.562C1073.43 409.823 1073.09 410.151 1072.87 410.547C1072.64 410.932 1072.52 411.385 1072.52 411.906C1072.52 412.438 1072.64 412.922 1072.88 413.359C1073.12 413.797 1073.48 414.146 1073.96 414.406C1074.45 414.656 1075.05 414.781 1075.76 414.781C1076.64 414.781 1077.42 414.594 1078.1 414.219C1078.78 413.844 1079.31 413.385 1079.71 412.844C1080.12 412.302 1080.33 411.776 1080.37 411.266L1081.6 412.656C1081.53 413.094 1081.33 413.578 1081.01 414.109C1080.68 414.641 1080.25 415.151 1079.71 415.641C1079.18 416.12 1078.54 416.521 1077.8 416.844C1077.07 417.156 1076.25 417.312 1075.33 417.312C1074.19 417.312 1073.18 417.089 1072.32 416.641C1071.46 416.193 1070.8 415.594 1070.32 414.844C1069.85 414.083 1069.62 413.234 1069.62 412.297C1069.62 411.391 1069.79 410.594 1070.15 409.906C1070.5 409.208 1071.01 408.63 1071.68 408.172C1072.34 407.703 1073.15 407.349 1074.08 407.109C1075.02 406.87 1076.07 406.75 1077.22 406.75H1080.58ZM1091.46 393V417H1088.56V393H1091.46ZM1101.65 415.25L1106.36 400.094H1109.45L1102.67 419.609C1102.51 420.026 1102.3 420.474 1102.04 420.953C1101.79 421.443 1101.47 421.906 1101.07 422.344C1100.68 422.781 1100.2 423.135 1099.64 423.406C1099.09 423.688 1098.42 423.828 1097.65 423.828C1097.42 423.828 1097.13 423.797 1096.78 423.734C1096.42 423.672 1096.17 423.62 1096.03 423.578L1096.01 421.234C1096.1 421.245 1096.23 421.255 1096.4 421.266C1096.59 421.286 1096.72 421.297 1096.79 421.297C1097.45 421.297 1098.01 421.208 1098.47 421.031C1098.92 420.865 1099.31 420.578 1099.62 420.172C1099.94 419.776 1100.22 419.229 1100.45 418.531L1101.65 415.25ZM1098.2 400.094L1102.59 413.219L1103.34 416.266L1101.26 417.328L1095.04 400.094H1098.2ZM1122.7 412.516C1122.7 412.099 1122.61 411.714 1122.42 411.359C1122.24 410.995 1121.88 410.667 1121.31 410.375C1120.76 410.073 1119.93 409.812 1118.81 409.594C1117.88 409.396 1117.03 409.161 1116.27 408.891C1115.52 408.62 1114.88 408.292 1114.34 407.906C1113.82 407.521 1113.42 407.068 1113.14 406.547C1112.86 406.026 1112.72 405.417 1112.72 404.719C1112.72 404.052 1112.86 403.422 1113.16 402.828C1113.46 402.234 1113.88 401.708 1114.42 401.25C1114.97 400.792 1115.64 400.432 1116.41 400.172C1117.18 399.911 1118.04 399.781 1118.98 399.781C1120.34 399.781 1121.49 400.021 1122.45 400.5C1123.41 400.979 1124.15 401.62 1124.66 402.422C1125.17 403.214 1125.42 404.094 1125.42 405.062H1122.53C1122.53 404.594 1122.39 404.141 1122.11 403.703C1121.84 403.255 1121.44 402.885 1120.91 402.594C1120.39 402.302 1119.74 402.156 1118.98 402.156C1118.18 402.156 1117.53 402.281 1117.03 402.531C1116.54 402.771 1116.18 403.078 1115.95 403.453C1115.73 403.828 1115.62 404.224 1115.62 404.641C1115.62 404.953 1115.68 405.234 1115.78 405.484C1115.9 405.724 1116.09 405.948 1116.38 406.156C1116.66 406.354 1117.05 406.542 1117.56 406.719C1118.07 406.896 1118.72 407.073 1119.52 407.25C1120.9 407.562 1122.04 407.938 1122.94 408.375C1123.83 408.812 1124.5 409.349 1124.94 409.984C1125.38 410.62 1125.59 411.391 1125.59 412.297C1125.59 413.036 1125.44 413.714 1125.12 414.328C1124.82 414.943 1124.38 415.474 1123.8 415.922C1123.22 416.359 1122.54 416.703 1121.73 416.953C1120.94 417.193 1120.05 417.312 1119.06 417.312C1117.57 417.312 1116.31 417.047 1115.28 416.516C1114.25 415.984 1113.47 415.297 1112.94 414.453C1112.41 413.609 1112.14 412.719 1112.14 411.781H1115.05C1115.09 412.573 1115.32 413.203 1115.73 413.672C1116.15 414.13 1116.66 414.458 1117.27 414.656C1117.87 414.844 1118.47 414.938 1119.06 414.938C1119.85 414.938 1120.52 414.833 1121.05 414.625C1121.59 414.417 1122 414.13 1122.28 413.766C1122.56 413.401 1122.7 412.984 1122.7 412.516ZM1133.33 400.094V417H1130.43V400.094H1133.33ZM1130.21 395.609C1130.21 395.141 1130.35 394.745 1130.63 394.422C1130.92 394.099 1131.35 393.938 1131.91 393.938C1132.46 393.938 1132.88 394.099 1133.18 394.422C1133.48 394.745 1133.63 395.141 1133.63 395.609C1133.63 396.057 1133.48 396.443 1133.18 396.766C1132.88 397.078 1132.46 397.234 1131.91 397.234C1131.35 397.234 1130.92 397.078 1130.63 396.766C1130.35 396.443 1130.21 396.057 1130.21 395.609ZM1148.62 412.516C1148.62 412.099 1148.52 411.714 1148.33 411.359C1148.16 410.995 1147.79 410.667 1147.23 410.375C1146.67 410.073 1145.84 409.812 1144.73 409.594C1143.79 409.396 1142.94 409.161 1142.18 408.891C1141.43 408.62 1140.79 408.292 1140.26 407.906C1139.74 407.521 1139.33 407.068 1139.05 406.547C1138.77 406.026 1138.63 405.417 1138.63 404.719C1138.63 404.052 1138.78 403.422 1139.07 402.828C1139.37 402.234 1139.79 401.708 1140.33 401.25C1140.89 400.792 1141.55 400.432 1142.32 400.172C1143.09 399.911 1143.95 399.781 1144.9 399.781C1146.25 399.781 1147.41 400.021 1148.37 400.5C1149.32 400.979 1150.06 401.62 1150.57 402.422C1151.08 403.214 1151.33 404.094 1151.33 405.062H1148.44C1148.44 404.594 1148.3 404.141 1148.02 403.703C1147.75 403.255 1147.35 402.885 1146.82 402.594C1146.3 402.302 1145.66 402.156 1144.9 402.156C1144.09 402.156 1143.44 402.281 1142.94 402.531C1142.45 402.771 1142.09 403.078 1141.87 403.453C1141.65 403.828 1141.54 404.224 1141.54 404.641C1141.54 404.953 1141.59 405.234 1141.69 405.484C1141.81 405.724 1142.01 405.948 1142.29 406.156C1142.57 406.354 1142.96 406.542 1143.48 406.719C1143.99 406.896 1144.64 407.073 1145.43 407.25C1146.81 407.562 1147.95 407.938 1148.85 408.375C1149.75 408.812 1150.41 409.349 1150.85 409.984C1151.29 410.62 1151.51 411.391 1151.51 412.297C1151.51 413.036 1151.35 413.714 1151.04 414.328C1150.74 414.943 1150.29 415.474 1149.71 415.922C1149.14 416.359 1148.45 416.703 1147.65 416.953C1146.86 417.193 1145.96 417.312 1144.98 417.312C1143.49 417.312 1142.23 417.047 1141.19 416.516C1140.16 415.984 1139.38 415.297 1138.85 414.453C1138.32 413.609 1138.05 412.719 1138.05 411.781H1140.96C1141 412.573 1141.23 413.203 1141.65 413.672C1142.06 414.13 1142.57 414.458 1143.18 414.656C1143.78 414.844 1144.38 414.938 1144.98 414.938C1145.77 414.938 1146.43 414.833 1146.96 414.625C1147.5 414.417 1147.91 414.13 1148.19 413.766C1148.48 413.401 1148.62 412.984 1148.62 412.516Z" fill="black" fill-opacity="0.65"/>
<path d="M5.65625 394.25V417H2.64062V394.25H5.65625ZM15.1875 404.484V406.953H5V404.484H15.1875ZM16.7344 394.25V396.719H5V394.25H16.7344ZM19.5812 408.734V408.375C19.5812 407.156 19.7583 406.026 20.1125 404.984C20.4667 403.932 20.9771 403.021 21.6437 402.25C22.3104 401.469 23.1177 400.865 24.0656 400.438C25.0135 400 26.076 399.781 27.2531 399.781C28.4406 399.781 29.5083 400 30.4562 400.438C31.4146 400.865 32.2271 401.469 32.8937 402.25C33.5708 403.021 34.0865 403.932 34.4406 404.984C34.7948 406.026 34.9719 407.156 34.9719 408.375V408.734C34.9719 409.953 34.7948 411.083 34.4406 412.125C34.0865 413.167 33.5708 414.078 32.8937 414.859C32.2271 415.63 31.4198 416.234 30.4719 416.672C29.5344 417.099 28.4719 417.312 27.2844 417.312C26.0969 417.312 25.0292 417.099 24.0812 416.672C23.1333 416.234 22.3208 415.63 21.6437 414.859C20.9771 414.078 20.4667 413.167 20.1125 412.125C19.7583 411.083 19.5812 409.953 19.5812 408.734ZM22.4719 408.375V408.734C22.4719 409.578 22.5708 410.375 22.7687 411.125C22.9667 411.865 23.2635 412.521 23.6594 413.094C24.0656 413.667 24.5708 414.12 25.175 414.453C25.7792 414.776 26.4823 414.938 27.2844 414.938C28.076 414.938 28.7687 414.776 29.3625 414.453C29.9667 414.12 30.4667 413.667 30.8625 413.094C31.2583 412.521 31.5552 411.865 31.7531 411.125C31.9615 410.375 32.0656 409.578 32.0656 408.734V408.375C32.0656 407.542 31.9615 406.755 31.7531 406.016C31.5552 405.266 31.2531 404.604 30.8469 404.031C30.451 403.448 29.951 402.99 29.3469 402.656C28.7531 402.323 28.0552 402.156 27.2531 402.156C26.4615 402.156 25.7635 402.323 25.1594 402.656C24.5656 402.99 24.0656 403.448 23.6594 404.031C23.2635 404.604 22.9667 405.266 22.7687 406.016C22.5708 406.755 22.4719 407.542 22.4719 408.375ZM42.2875 402.75V417H39.3969V400.094H42.2094L42.2875 402.75ZM47.5687 400L47.5531 402.688C47.3135 402.635 47.0844 402.604 46.8656 402.594C46.6573 402.573 46.4177 402.562 46.1469 402.562C45.4802 402.562 44.8917 402.667 44.3812 402.875C43.8708 403.083 43.4385 403.375 43.0844 403.75C42.7302 404.125 42.449 404.573 42.2406 405.094C42.0427 405.604 41.9125 406.167 41.85 406.781L41.0375 407.25C41.0375 406.229 41.1365 405.271 41.3344 404.375C41.5427 403.479 41.8604 402.688 42.2875 402C42.7146 401.302 43.2562 400.76 43.9125 400.375C44.5792 399.979 45.3708 399.781 46.2875 399.781C46.4958 399.781 46.7354 399.807 47.0062 399.859C47.2771 399.901 47.4646 399.948 47.5687 400ZM53.9156 403.453V417H51.0094V400.094H53.7594L53.9156 403.453ZM53.3219 407.906L51.9781 407.859C51.9885 406.703 52.1396 405.635 52.4313 404.656C52.7229 403.667 53.1552 402.807 53.7281 402.078C54.301 401.349 55.0146 400.786 55.8688 400.391C56.7229 399.984 57.7125 399.781 58.8375 399.781C59.6292 399.781 60.3583 399.896 61.025 400.125C61.6917 400.344 62.2698 400.693 62.7594 401.172C63.249 401.651 63.6292 402.266 63.9 403.016C64.1708 403.766 64.3063 404.672 64.3063 405.734V417H61.4156V405.875C61.4156 404.99 61.2646 404.281 60.9625 403.75C60.6708 403.219 60.2542 402.833 59.7125 402.594C59.1708 402.344 58.5354 402.219 57.8063 402.219C56.9521 402.219 56.2385 402.37 55.6656 402.672C55.0927 402.974 54.6344 403.391 54.2906 403.922C53.9469 404.453 53.6969 405.062 53.5406 405.75C53.3948 406.427 53.3219 407.146 53.3219 407.906ZM64.275 406.312L62.3375 406.906C62.3479 405.979 62.499 405.089 62.7906 404.234C63.0927 403.38 63.525 402.62 64.0875 401.953C64.6604 401.286 65.3635 400.76 66.1969 400.375C67.0302 399.979 67.9833 399.781 69.0563 399.781C69.9625 399.781 70.7646 399.901 71.4625 400.141C72.1708 400.38 72.7646 400.75 73.2438 401.25C73.7333 401.74 74.1031 402.37 74.3531 403.141C74.6031 403.911 74.7281 404.828 74.7281 405.891V417H71.8219V405.859C71.8219 404.911 71.6708 404.177 71.3688 403.656C71.0771 403.125 70.6604 402.755 70.1188 402.547C69.5875 402.328 68.9521 402.219 68.2125 402.219C67.5771 402.219 67.0146 402.328 66.525 402.547C66.0354 402.766 65.624 403.068 65.2906 403.453C64.9573 403.828 64.7021 404.26 64.525 404.75C64.3583 405.24 64.275 405.76 64.275 406.312ZM88.625 393H91.5312V413.719L91.2812 417H88.625V393ZM102.953 408.406V408.734C102.953 409.964 102.807 411.104 102.516 412.156C102.224 413.198 101.797 414.104 101.234 414.875C100.672 415.646 99.9844 416.245 99.1719 416.672C98.3594 417.099 97.4271 417.312 96.375 417.312C95.3021 417.312 94.3594 417.13 93.5469 416.766C92.7448 416.391 92.0677 415.854 91.5156 415.156C90.9635 414.458 90.5208 413.615 90.1875 412.625C89.8646 411.635 89.6406 410.521 89.5156 409.281V407.844C89.6406 406.594 89.8646 405.474 90.1875 404.484C90.5208 403.495 90.9635 402.651 91.5156 401.953C92.0677 401.245 92.7448 400.708 93.5469 400.344C94.349 399.969 95.2812 399.781 96.3438 399.781C97.4062 399.781 98.349 399.99 99.1719 400.406C99.9948 400.812 100.682 401.396 101.234 402.156C101.797 402.917 102.224 403.828 102.516 404.891C102.807 405.943 102.953 407.115 102.953 408.406ZM100.047 408.734V408.406C100.047 407.562 99.9688 406.771 99.8125 406.031C99.6562 405.281 99.4062 404.625 99.0625 404.062C98.7188 403.49 98.2656 403.042 97.7031 402.719C97.1406 402.385 96.4479 402.219 95.625 402.219C94.8958 402.219 94.2604 402.344 93.7188 402.594C93.1875 402.844 92.7344 403.182 92.3594 403.609C91.9844 404.026 91.6771 404.505 91.4375 405.047C91.2083 405.578 91.0365 406.13 90.9219 406.703V410.469C91.0885 411.198 91.3594 411.901 91.7344 412.578C92.1198 413.245 92.6302 413.792 93.2656 414.219C93.9115 414.646 94.7083 414.859 95.6562 414.859C96.4375 414.859 97.1042 414.703 97.6562 414.391C98.2188 414.068 98.6719 413.625 99.0156 413.062C99.3698 412.5 99.6302 411.849 99.7969 411.109C99.9635 410.37 100.047 409.578 100.047 408.734ZM117.753 413.094V400.094H120.659V417H117.894L117.753 413.094ZM118.3 409.531L119.503 409.5C119.503 410.625 119.383 411.667 119.144 412.625C118.915 413.573 118.54 414.396 118.019 415.094C117.498 415.792 116.816 416.339 115.972 416.734C115.128 417.12 114.102 417.312 112.894 417.312C112.071 417.312 111.316 417.193 110.628 416.953C109.951 416.714 109.368 416.344 108.878 415.844C108.389 415.344 108.008 414.693 107.738 413.891C107.477 413.089 107.347 412.125 107.347 411V400.094H110.238V411.031C110.238 411.792 110.321 412.422 110.488 412.922C110.665 413.411 110.899 413.802 111.191 414.094C111.493 414.375 111.826 414.573 112.191 414.688C112.566 414.802 112.951 414.859 113.347 414.859C114.576 414.859 115.55 414.625 116.269 414.156C116.988 413.677 117.503 413.036 117.816 412.234C118.139 411.422 118.3 410.521 118.3 409.531ZM129.006 400.094V417H126.1V400.094H129.006ZM125.881 395.609C125.881 395.141 126.022 394.745 126.303 394.422C126.595 394.099 127.022 393.938 127.584 393.938C128.136 393.938 128.558 394.099 128.85 394.422C129.152 394.745 129.303 395.141 129.303 395.609C129.303 396.057 129.152 396.443 128.85 396.766C128.558 397.078 128.136 397.234 127.584 397.234C127.022 397.234 126.595 397.078 126.303 396.766C126.022 396.443 125.881 396.057 125.881 395.609ZM137.587 393V417H134.681V393H137.587ZM153.684 413.719V393H156.591V417H153.934L153.684 413.719ZM142.309 408.734V408.406C142.309 407.115 142.466 405.943 142.778 404.891C143.101 403.828 143.554 402.917 144.137 402.156C144.731 401.396 145.434 400.812 146.247 400.406C147.07 399.99 147.986 399.781 148.997 399.781C150.059 399.781 150.986 399.969 151.778 400.344C152.58 400.708 153.257 401.245 153.809 401.953C154.372 402.651 154.815 403.495 155.137 404.484C155.46 405.474 155.684 406.594 155.809 407.844V409.281C155.695 410.521 155.471 411.635 155.137 412.625C154.815 413.615 154.372 414.458 153.809 415.156C153.257 415.854 152.58 416.391 151.778 416.766C150.976 417.13 150.039 417.312 148.966 417.312C147.976 417.312 147.07 417.099 146.247 416.672C145.434 416.245 144.731 415.646 144.137 414.875C143.554 414.104 143.101 413.198 142.778 412.156C142.466 411.104 142.309 409.964 142.309 408.734ZM145.216 408.406V408.734C145.216 409.578 145.299 410.37 145.466 411.109C145.643 411.849 145.914 412.5 146.278 413.062C146.643 413.625 147.106 414.068 147.669 414.391C148.231 414.703 148.903 414.859 149.684 414.859C150.643 414.859 151.429 414.656 152.044 414.25C152.669 413.844 153.169 413.307 153.544 412.641C153.919 411.974 154.21 411.25 154.419 410.469V406.703C154.294 406.13 154.111 405.578 153.872 405.047C153.643 404.505 153.341 404.026 152.966 403.609C152.601 403.182 152.148 402.844 151.606 402.594C151.075 402.344 150.445 402.219 149.716 402.219C148.924 402.219 148.242 402.385 147.669 402.719C147.106 403.042 146.643 403.49 146.278 404.062C145.914 404.625 145.643 405.281 145.466 406.031C145.299 406.771 145.216 407.562 145.216 408.406ZM168.906 417.312C167.729 417.312 166.661 417.115 165.703 416.719C164.755 416.312 163.938 415.745 163.25 415.016C162.573 414.286 162.052 413.422 161.688 412.422C161.323 411.422 161.141 410.328 161.141 409.141V408.484C161.141 407.109 161.344 405.885 161.75 404.812C162.156 403.729 162.708 402.812 163.406 402.062C164.104 401.312 164.896 400.745 165.781 400.359C166.667 399.974 167.583 399.781 168.531 399.781C169.74 399.781 170.781 399.99 171.656 400.406C172.542 400.823 173.266 401.406 173.828 402.156C174.391 402.896 174.807 403.771 175.078 404.781C175.349 405.781 175.484 406.875 175.484 408.062V409.359H162.859V407H172.594V406.781C172.552 406.031 172.396 405.302 172.125 404.594C171.865 403.885 171.448 403.302 170.875 402.844C170.302 402.385 169.521 402.156 168.531 402.156C167.875 402.156 167.271 402.297 166.719 402.578C166.167 402.849 165.693 403.255 165.297 403.797C164.901 404.339 164.594 405 164.375 405.781C164.156 406.562 164.047 407.464 164.047 408.484V409.141C164.047 409.943 164.156 410.698 164.375 411.406C164.604 412.104 164.932 412.719 165.359 413.25C165.797 413.781 166.323 414.198 166.938 414.5C167.562 414.802 168.271 414.953 169.062 414.953C170.083 414.953 170.948 414.745 171.656 414.328C172.365 413.911 172.984 413.354 173.516 412.656L175.266 414.047C174.901 414.599 174.438 415.125 173.875 415.625C173.312 416.125 172.62 416.531 171.797 416.844C170.984 417.156 170.021 417.312 168.906 417.312ZM182.55 402.75V417H179.659V400.094H182.472L182.55 402.75ZM187.831 400L187.816 402.688C187.576 402.635 187.347 402.604 187.128 402.594C186.92 402.573 186.68 402.562 186.409 402.562C185.743 402.562 185.154 402.667 184.644 402.875C184.133 403.083 183.701 403.375 183.347 403.75C182.993 404.125 182.711 404.573 182.503 405.094C182.305 405.604 182.175 406.167 182.113 406.781L181.3 407.25C181.3 406.229 181.399 405.271 181.597 404.375C181.805 403.479 182.123 402.688 182.55 402C182.977 401.302 183.519 400.76 184.175 400.375C184.842 399.979 185.633 399.781 186.55 399.781C186.758 399.781 186.998 399.807 187.269 399.859C187.54 399.901 187.727 399.948 187.831 400ZM201.147 412.516C201.147 412.099 201.053 411.714 200.866 411.359C200.689 410.995 200.319 410.667 199.756 410.375C199.204 410.073 198.371 409.812 197.256 409.594C196.319 409.396 195.47 409.161 194.709 408.891C193.959 408.62 193.319 408.292 192.788 407.906C192.267 407.521 191.866 407.068 191.584 406.547C191.303 406.026 191.163 405.417 191.163 404.719C191.163 404.052 191.308 403.422 191.6 402.828C191.902 402.234 192.324 401.708 192.866 401.25C193.418 400.792 194.079 400.432 194.85 400.172C195.621 399.911 196.48 399.781 197.428 399.781C198.782 399.781 199.939 400.021 200.897 400.5C201.855 400.979 202.59 401.62 203.1 402.422C203.61 403.214 203.866 404.094 203.866 405.062H200.975C200.975 404.594 200.834 404.141 200.553 403.703C200.282 403.255 199.881 402.885 199.35 402.594C198.829 402.302 198.189 402.156 197.428 402.156C196.626 402.156 195.975 402.281 195.475 402.531C194.985 402.771 194.626 403.078 194.397 403.453C194.178 403.828 194.069 404.224 194.069 404.641C194.069 404.953 194.121 405.234 194.225 405.484C194.34 405.724 194.538 405.948 194.819 406.156C195.1 406.354 195.496 406.542 196.006 406.719C196.517 406.896 197.168 407.073 197.959 407.25C199.345 407.562 200.485 407.938 201.381 408.375C202.277 408.812 202.944 409.349 203.381 409.984C203.819 410.62 204.038 411.391 204.038 412.297C204.038 413.036 203.881 413.714 203.569 414.328C203.267 414.943 202.824 415.474 202.241 415.922C201.668 416.359 200.98 416.703 200.178 416.953C199.386 417.193 198.496 417.312 197.506 417.312C196.017 417.312 194.756 417.047 193.725 416.516C192.694 415.984 191.913 415.297 191.381 414.453C190.85 413.609 190.584 412.719 190.584 411.781H193.491C193.532 412.573 193.761 413.203 194.178 413.672C194.595 414.13 195.105 414.458 195.709 414.656C196.314 414.844 196.913 414.938 197.506 414.938C198.298 414.938 198.959 414.833 199.491 414.625C200.032 414.417 200.444 414.13 200.725 413.766C201.006 413.401 201.147 412.984 201.147 412.516Z" fill="black" fill-opacity="0.65"/>
<path d="M398.641 786.25H406.172C407.88 786.25 409.323 786.51 410.5 787.031C411.688 787.552 412.589 788.323 413.203 789.344C413.828 790.354 414.141 791.599 414.141 793.078C414.141 794.12 413.927 795.073 413.5 795.938C413.083 796.792 412.479 797.521 411.688 798.125C410.906 798.719 409.969 799.161 408.875 799.453L408.031 799.781H400.953L400.922 797.328H406.266C407.349 797.328 408.25 797.141 408.969 796.766C409.688 796.38 410.229 795.865 410.594 795.219C410.958 794.573 411.141 793.859 411.141 793.078C411.141 792.203 410.969 791.438 410.625 790.781C410.281 790.125 409.74 789.62 409 789.266C408.271 788.901 407.328 788.719 406.172 788.719H401.656V809H398.641V786.25ZM411.938 809L406.406 798.688L409.547 798.672L415.156 808.812V809H411.938ZM425.737 809.312C424.56 809.312 423.493 809.115 422.534 808.719C421.586 808.312 420.769 807.745 420.081 807.016C419.404 806.286 418.883 805.422 418.519 804.422C418.154 803.422 417.972 802.328 417.972 801.141V800.484C417.972 799.109 418.175 797.885 418.581 796.812C418.987 795.729 419.54 794.812 420.237 794.062C420.935 793.312 421.727 792.745 422.612 792.359C423.498 791.974 424.415 791.781 425.362 791.781C426.571 791.781 427.612 791.99 428.487 792.406C429.373 792.823 430.097 793.406 430.659 794.156C431.222 794.896 431.639 795.771 431.909 796.781C432.18 797.781 432.316 798.875 432.316 800.062V801.359H419.691V799H429.425V798.781C429.383 798.031 429.227 797.302 428.956 796.594C428.696 795.885 428.279 795.302 427.706 794.844C427.133 794.385 426.352 794.156 425.362 794.156C424.706 794.156 424.102 794.297 423.55 794.578C422.998 794.849 422.524 795.255 422.128 795.797C421.732 796.339 421.425 797 421.206 797.781C420.987 798.562 420.878 799.464 420.878 800.484V801.141C420.878 801.943 420.987 802.698 421.206 803.406C421.435 804.104 421.764 804.719 422.191 805.25C422.628 805.781 423.154 806.198 423.769 806.5C424.394 806.802 425.102 806.953 425.894 806.953C426.915 806.953 427.779 806.745 428.487 806.328C429.196 805.911 429.816 805.354 430.347 804.656L432.097 806.047C431.732 806.599 431.269 807.125 430.706 807.625C430.144 808.125 429.451 808.531 428.628 808.844C427.816 809.156 426.852 809.312 425.737 809.312ZM443.256 806.938C443.944 806.938 444.579 806.797 445.162 806.516C445.746 806.234 446.225 805.849 446.6 805.359C446.975 804.859 447.189 804.292 447.241 803.656H449.991C449.939 804.656 449.6 805.589 448.975 806.453C448.36 807.307 447.553 808 446.553 808.531C445.553 809.052 444.454 809.312 443.256 809.312C441.985 809.312 440.876 809.089 439.928 808.641C438.991 808.193 438.209 807.578 437.584 806.797C436.97 806.016 436.506 805.12 436.194 804.109C435.892 803.089 435.741 802.01 435.741 800.875V800.219C435.741 799.083 435.892 798.01 436.194 797C436.506 795.979 436.97 795.078 437.584 794.297C438.209 793.516 438.991 792.901 439.928 792.453C440.876 792.005 441.985 791.781 443.256 791.781C444.579 791.781 445.735 792.052 446.725 792.594C447.715 793.125 448.491 793.854 449.053 794.781C449.626 795.698 449.939 796.74 449.991 797.906H447.241C447.189 797.208 446.991 796.578 446.647 796.016C446.314 795.453 445.855 795.005 445.272 794.672C444.699 794.328 444.027 794.156 443.256 794.156C442.371 794.156 441.626 794.333 441.022 794.688C440.428 795.031 439.954 795.5 439.6 796.094C439.256 796.677 439.006 797.328 438.85 798.047C438.704 798.755 438.631 799.479 438.631 800.219V800.875C438.631 801.615 438.704 802.344 438.85 803.062C438.996 803.781 439.241 804.432 439.584 805.016C439.939 805.599 440.412 806.068 441.006 806.422C441.61 806.766 442.36 806.938 443.256 806.938ZM453.275 800.734V800.375C453.275 799.156 453.452 798.026 453.806 796.984C454.16 795.932 454.671 795.021 455.338 794.25C456.004 793.469 456.811 792.865 457.759 792.438C458.707 792 459.77 791.781 460.947 791.781C462.134 791.781 463.202 792 464.15 792.438C465.108 792.865 465.921 793.469 466.588 794.25C467.265 795.021 467.78 795.932 468.134 796.984C468.489 798.026 468.666 799.156 468.666 800.375V800.734C468.666 801.953 468.489 803.083 468.134 804.125C467.78 805.167 467.265 806.078 466.588 806.859C465.921 807.63 465.114 808.234 464.166 808.672C463.228 809.099 462.166 809.312 460.978 809.312C459.791 809.312 458.723 809.099 457.775 808.672C456.827 808.234 456.015 807.63 455.338 806.859C454.671 806.078 454.16 805.167 453.806 804.125C453.452 803.083 453.275 801.953 453.275 800.734ZM456.166 800.375V800.734C456.166 801.578 456.265 802.375 456.463 803.125C456.66 803.865 456.957 804.521 457.353 805.094C457.759 805.667 458.265 806.12 458.869 806.453C459.473 806.776 460.176 806.938 460.978 806.938C461.77 806.938 462.463 806.776 463.056 806.453C463.66 806.12 464.16 805.667 464.556 805.094C464.952 804.521 465.249 803.865 465.447 803.125C465.655 802.375 465.759 801.578 465.759 800.734V800.375C465.759 799.542 465.655 798.755 465.447 798.016C465.249 797.266 464.947 796.604 464.541 796.031C464.145 795.448 463.645 794.99 463.041 794.656C462.447 794.323 461.749 794.156 460.947 794.156C460.155 794.156 459.457 794.323 458.853 794.656C458.259 794.99 457.759 795.448 457.353 796.031C456.957 796.604 456.66 797.266 456.463 798.016C456.265 798.755 456.166 799.542 456.166 800.375ZM475.981 794.75V809H473.091V792.094H475.903L475.981 794.75ZM481.262 792L481.247 794.688C481.007 794.635 480.778 794.604 480.559 794.594C480.351 794.573 480.111 794.562 479.841 794.562C479.174 794.562 478.585 794.667 478.075 794.875C477.565 795.083 477.132 795.375 476.778 795.75C476.424 796.125 476.143 796.573 475.934 797.094C475.736 797.604 475.606 798.167 475.544 798.781L474.731 799.25C474.731 798.229 474.83 797.271 475.028 796.375C475.236 795.479 475.554 794.688 475.981 794C476.408 793.302 476.95 792.76 477.606 792.375C478.273 791.979 479.065 791.781 479.981 791.781C480.19 791.781 480.429 791.807 480.7 791.859C480.971 791.901 481.158 791.948 481.262 792ZM495.078 805.719V785H497.984V809H495.328L495.078 805.719ZM483.703 800.734V800.406C483.703 799.115 483.859 797.943 484.172 796.891C484.495 795.828 484.948 794.917 485.531 794.156C486.125 793.396 486.828 792.812 487.641 792.406C488.464 791.99 489.38 791.781 490.391 791.781C491.453 791.781 492.38 791.969 493.172 792.344C493.974 792.708 494.651 793.245 495.203 793.953C495.766 794.651 496.208 795.495 496.531 796.484C496.854 797.474 497.078 798.594 497.203 799.844V801.281C497.089 802.521 496.865 803.635 496.531 804.625C496.208 805.615 495.766 806.458 495.203 807.156C494.651 807.854 493.974 808.391 493.172 808.766C492.37 809.13 491.432 809.312 490.359 809.312C489.37 809.312 488.464 809.099 487.641 808.672C486.828 808.245 486.125 807.646 485.531 806.875C484.948 806.104 484.495 805.198 484.172 804.156C483.859 803.104 483.703 801.964 483.703 800.734ZM486.609 800.406V800.734C486.609 801.578 486.693 802.37 486.859 803.109C487.036 803.849 487.307 804.5 487.672 805.062C488.036 805.625 488.5 806.068 489.062 806.391C489.625 806.703 490.297 806.859 491.078 806.859C492.036 806.859 492.823 806.656 493.438 806.25C494.062 805.844 494.562 805.307 494.938 804.641C495.312 803.974 495.604 803.25 495.812 802.469V798.703C495.688 798.13 495.505 797.578 495.266 797.047C495.036 796.505 494.734 796.026 494.359 795.609C493.995 795.182 493.542 794.844 493 794.594C492.469 794.344 491.839 794.219 491.109 794.219C490.318 794.219 489.635 794.385 489.062 794.719C488.5 795.042 488.036 795.49 487.672 796.062C487.307 796.625 487.036 797.281 486.859 798.031C486.693 798.771 486.609 799.562 486.609 800.406ZM516.334 809H513.444V790.312C513.444 789.094 513.662 788.068 514.1 787.234C514.548 786.391 515.189 785.755 516.022 785.328C516.855 784.891 517.845 784.672 518.991 784.672C519.324 784.672 519.657 784.693 519.991 784.734C520.334 784.776 520.668 784.839 520.991 784.922L520.834 787.281C520.616 787.229 520.366 787.193 520.084 787.172C519.814 787.151 519.543 787.141 519.272 787.141C518.657 787.141 518.126 787.266 517.678 787.516C517.241 787.755 516.907 788.109 516.678 788.578C516.449 789.047 516.334 789.625 516.334 790.312V809ZM519.928 792.094V794.312H510.772V792.094H519.928ZM523.181 800.734V800.375C523.181 799.156 523.358 798.026 523.713 796.984C524.067 795.932 524.577 795.021 525.244 794.25C525.91 793.469 526.718 792.865 527.666 792.438C528.614 792 529.676 791.781 530.853 791.781C532.041 791.781 533.108 792 534.056 792.438C535.015 792.865 535.827 793.469 536.494 794.25C537.171 795.021 537.686 795.932 538.041 796.984C538.395 798.026 538.572 799.156 538.572 800.375V800.734C538.572 801.953 538.395 803.083 538.041 804.125C537.686 805.167 537.171 806.078 536.494 806.859C535.827 807.63 535.02 808.234 534.072 808.672C533.134 809.099 532.072 809.312 530.884 809.312C529.697 809.312 528.629 809.099 527.681 808.672C526.733 808.234 525.921 807.63 525.244 806.859C524.577 806.078 524.067 805.167 523.713 804.125C523.358 803.083 523.181 801.953 523.181 800.734ZM526.072 800.375V800.734C526.072 801.578 526.171 802.375 526.369 803.125C526.567 803.865 526.864 804.521 527.259 805.094C527.666 805.667 528.171 806.12 528.775 806.453C529.379 806.776 530.082 806.938 530.884 806.938C531.676 806.938 532.369 806.776 532.963 806.453C533.567 806.12 534.067 805.667 534.463 805.094C534.858 804.521 535.155 803.865 535.353 803.125C535.561 802.375 535.666 801.578 535.666 800.734V800.375C535.666 799.542 535.561 798.755 535.353 798.016C535.155 797.266 534.853 796.604 534.447 796.031C534.051 795.448 533.551 794.99 532.947 794.656C532.353 794.323 531.655 794.156 530.853 794.156C530.061 794.156 529.364 794.323 528.759 794.656C528.166 794.99 527.666 795.448 527.259 796.031C526.864 796.604 526.567 797.266 526.369 798.016C526.171 798.755 526.072 799.542 526.072 800.375ZM545.887 794.75V809H542.997V792.094H545.809L545.887 794.75ZM551.169 792L551.153 794.688C550.914 794.635 550.684 794.604 550.466 794.594C550.257 794.573 550.018 794.562 549.747 794.562C549.08 794.562 548.492 794.667 547.981 794.875C547.471 795.083 547.039 795.375 546.684 795.75C546.33 796.125 546.049 796.573 545.841 797.094C545.643 797.604 545.512 798.167 545.45 798.781L544.637 799.25C544.637 798.229 544.736 797.271 544.934 796.375C545.143 795.479 545.46 794.688 545.887 794C546.315 793.302 546.856 792.76 547.512 792.375C548.179 791.979 548.971 791.781 549.887 791.781C550.096 791.781 550.335 791.807 550.606 791.859C550.877 791.901 551.065 791.948 551.169 792ZM557.516 795.453V809H554.609V792.094H557.359L557.516 795.453ZM556.922 799.906L555.578 799.859C555.589 798.703 555.74 797.635 556.031 796.656C556.323 795.667 556.755 794.807 557.328 794.078C557.901 793.349 558.615 792.786 559.469 792.391C560.323 791.984 561.312 791.781 562.438 791.781C563.229 791.781 563.958 791.896 564.625 792.125C565.292 792.344 565.87 792.693 566.359 793.172C566.849 793.651 567.229 794.266 567.5 795.016C567.771 795.766 567.906 796.672 567.906 797.734V809H565.016V797.875C565.016 796.99 564.865 796.281 564.562 795.75C564.271 795.219 563.854 794.833 563.312 794.594C562.771 794.344 562.135 794.219 561.406 794.219C560.552 794.219 559.839 794.37 559.266 794.672C558.693 794.974 558.234 795.391 557.891 795.922C557.547 796.453 557.297 797.062 557.141 797.75C556.995 798.427 556.922 799.146 556.922 799.906ZM567.875 798.312L565.938 798.906C565.948 797.979 566.099 797.089 566.391 796.234C566.693 795.38 567.125 794.62 567.688 793.953C568.26 793.286 568.964 792.76 569.797 792.375C570.63 791.979 571.583 791.781 572.656 791.781C573.562 791.781 574.365 791.901 575.062 792.141C575.771 792.38 576.365 792.75 576.844 793.25C577.333 793.74 577.703 794.37 577.953 795.141C578.203 795.911 578.328 796.828 578.328 797.891V809H575.422V797.859C575.422 796.911 575.271 796.177 574.969 795.656C574.677 795.125 574.26 794.755 573.719 794.547C573.188 794.328 572.552 794.219 571.812 794.219C571.177 794.219 570.615 794.328 570.125 794.547C569.635 794.766 569.224 795.068 568.891 795.453C568.557 795.828 568.302 796.26 568.125 796.75C567.958 797.24 567.875 797.76 567.875 798.312ZM595.131 794.75V809H592.241V792.094H595.053L595.131 794.75ZM600.413 792L600.397 794.688C600.157 794.635 599.928 794.604 599.709 794.594C599.501 794.573 599.261 794.562 598.991 794.562C598.324 794.562 597.735 794.667 597.225 794.875C596.715 795.083 596.282 795.375 595.928 795.75C595.574 796.125 595.293 796.573 595.084 797.094C594.886 797.604 594.756 798.167 594.694 798.781L593.881 799.25C593.881 798.229 593.98 797.271 594.178 796.375C594.386 795.479 594.704 794.688 595.131 794C595.558 793.302 596.1 792.76 596.756 792.375C597.423 791.979 598.215 791.781 599.131 791.781C599.34 791.781 599.579 791.807 599.85 791.859C600.121 791.901 600.308 791.948 600.413 792ZM610.587 809.312C609.41 809.312 608.343 809.115 607.384 808.719C606.436 808.312 605.619 807.745 604.931 807.016C604.254 806.286 603.733 805.422 603.369 804.422C603.004 803.422 602.822 802.328 602.822 801.141V800.484C602.822 799.109 603.025 797.885 603.431 796.812C603.837 795.729 604.39 794.812 605.087 794.062C605.785 793.312 606.577 792.745 607.462 792.359C608.348 791.974 609.265 791.781 610.212 791.781C611.421 791.781 612.462 791.99 613.337 792.406C614.223 792.823 614.947 793.406 615.509 794.156C616.072 794.896 616.489 795.771 616.759 796.781C617.03 797.781 617.166 798.875 617.166 800.062V801.359H604.541V799H614.275V798.781C614.233 798.031 614.077 797.302 613.806 796.594C613.546 795.885 613.129 795.302 612.556 794.844C611.983 794.385 611.202 794.156 610.212 794.156C609.556 794.156 608.952 794.297 608.4 794.578C607.848 794.849 607.374 795.255 606.978 795.797C606.582 796.339 606.275 797 606.056 797.781C605.837 798.562 605.728 799.464 605.728 800.484V801.141C605.728 801.943 605.837 802.698 606.056 803.406C606.285 804.104 606.614 804.719 607.041 805.25C607.478 805.781 608.004 806.198 608.619 806.5C609.244 806.802 609.952 806.953 610.744 806.953C611.765 806.953 612.629 806.745 613.337 806.328C614.046 805.911 614.666 805.354 615.197 804.656L616.947 806.047C616.582 806.599 616.119 807.125 615.556 807.625C614.994 808.125 614.301 808.531 613.478 808.844C612.666 809.156 611.702 809.312 610.587 809.312ZM631.184 804.516C631.184 804.099 631.091 803.714 630.903 803.359C630.726 802.995 630.356 802.667 629.794 802.375C629.242 802.073 628.408 801.812 627.294 801.594C626.356 801.396 625.507 801.161 624.747 800.891C623.997 800.62 623.356 800.292 622.825 799.906C622.304 799.521 621.903 799.068 621.622 798.547C621.341 798.026 621.2 797.417 621.2 796.719C621.2 796.052 621.346 795.422 621.637 794.828C621.94 794.234 622.361 793.708 622.903 793.25C623.455 792.792 624.117 792.432 624.887 792.172C625.658 791.911 626.518 791.781 627.466 791.781C628.82 791.781 629.976 792.021 630.934 792.5C631.893 792.979 632.627 793.62 633.137 794.422C633.648 795.214 633.903 796.094 633.903 797.062H631.012C631.012 796.594 630.872 796.141 630.591 795.703C630.32 795.255 629.919 794.885 629.387 794.594C628.867 794.302 628.226 794.156 627.466 794.156C626.664 794.156 626.012 794.281 625.512 794.531C625.023 794.771 624.664 795.078 624.434 795.453C624.216 795.828 624.106 796.224 624.106 796.641C624.106 796.953 624.158 797.234 624.262 797.484C624.377 797.724 624.575 797.948 624.856 798.156C625.137 798.354 625.533 798.542 626.044 798.719C626.554 798.896 627.205 799.073 627.997 799.25C629.382 799.562 630.523 799.938 631.419 800.375C632.315 800.812 632.981 801.349 633.419 801.984C633.856 802.62 634.075 803.391 634.075 804.297C634.075 805.036 633.919 805.714 633.606 806.328C633.304 806.943 632.861 807.474 632.278 807.922C631.705 808.359 631.018 808.703 630.216 808.953C629.424 809.193 628.533 809.312 627.544 809.312C626.054 809.312 624.794 809.047 623.762 808.516C622.731 807.984 621.95 807.297 621.419 806.453C620.887 805.609 620.622 804.719 620.622 803.781H623.528C623.57 804.573 623.799 805.203 624.216 805.672C624.632 806.13 625.143 806.458 625.747 806.656C626.351 806.844 626.95 806.938 627.544 806.938C628.335 806.938 628.997 806.833 629.528 806.625C630.07 806.417 630.481 806.13 630.762 805.766C631.044 805.401 631.184 804.984 631.184 804.516ZM641.562 795.344V815.5H638.656V792.094H641.312L641.562 795.344ZM652.953 800.406V800.734C652.953 801.964 652.807 803.104 652.516 804.156C652.224 805.198 651.797 806.104 651.234 806.875C650.682 807.646 650 808.245 649.188 808.672C648.375 809.099 647.443 809.312 646.391 809.312C645.318 809.312 644.37 809.135 643.547 808.781C642.724 808.427 642.026 807.911 641.453 807.234C640.88 806.557 640.422 805.745 640.078 804.797C639.745 803.849 639.516 802.781 639.391 801.594V799.844C639.516 798.594 639.75 797.474 640.094 796.484C640.438 795.495 640.891 794.651 641.453 793.953C642.026 793.245 642.719 792.708 643.531 792.344C644.344 791.969 645.281 791.781 646.344 791.781C647.406 791.781 648.349 791.99 649.172 792.406C649.995 792.812 650.688 793.396 651.25 794.156C651.812 794.917 652.234 795.828 652.516 796.891C652.807 797.943 652.953 799.115 652.953 800.406ZM650.047 800.734V800.406C650.047 799.562 649.958 798.771 649.781 798.031C649.604 797.281 649.328 796.625 648.953 796.062C648.589 795.49 648.12 795.042 647.547 794.719C646.974 794.385 646.292 794.219 645.5 794.219C644.771 794.219 644.135 794.344 643.594 794.594C643.062 794.844 642.609 795.182 642.234 795.609C641.859 796.026 641.552 796.505 641.312 797.047C641.083 797.578 640.911 798.13 640.797 798.703V802.75C641.005 803.479 641.297 804.167 641.672 804.812C642.047 805.448 642.547 805.964 643.172 806.359C643.797 806.745 644.583 806.938 645.531 806.938C646.312 806.938 646.984 806.776 647.547 806.453C648.12 806.12 648.589 805.667 648.953 805.094C649.328 804.521 649.604 803.865 649.781 803.125C649.958 802.375 650.047 801.578 650.047 800.734ZM656.675 800.734V800.375C656.675 799.156 656.852 798.026 657.206 796.984C657.56 795.932 658.071 795.021 658.737 794.25C659.404 793.469 660.211 792.865 661.159 792.438C662.107 792 663.17 791.781 664.347 791.781C665.534 791.781 666.602 792 667.55 792.438C668.508 792.865 669.321 793.469 669.987 794.25C670.665 795.021 671.18 795.932 671.534 796.984C671.889 798.026 672.066 799.156 672.066 800.375V800.734C672.066 801.953 671.889 803.083 671.534 804.125C671.18 805.167 670.665 806.078 669.987 806.859C669.321 807.63 668.514 808.234 667.566 808.672C666.628 809.099 665.566 809.312 664.378 809.312C663.191 809.312 662.123 809.099 661.175 808.672C660.227 808.234 659.415 807.63 658.737 806.859C658.071 806.078 657.56 805.167 657.206 804.125C656.852 803.083 656.675 801.953 656.675 800.734ZM659.566 800.375V800.734C659.566 801.578 659.665 802.375 659.862 803.125C660.06 803.865 660.357 804.521 660.753 805.094C661.159 805.667 661.665 806.12 662.269 806.453C662.873 806.776 663.576 806.938 664.378 806.938C665.17 806.938 665.862 806.776 666.456 806.453C667.06 806.12 667.56 805.667 667.956 805.094C668.352 804.521 668.649 803.865 668.847 803.125C669.055 802.375 669.159 801.578 669.159 800.734V800.375C669.159 799.542 669.055 798.755 668.847 798.016C668.649 797.266 668.347 796.604 667.941 796.031C667.545 795.448 667.045 794.99 666.441 794.656C665.847 794.323 665.149 794.156 664.347 794.156C663.555 794.156 662.857 794.323 662.253 794.656C661.659 794.99 661.159 795.448 660.753 796.031C660.357 796.604 660.06 797.266 659.862 798.016C659.665 798.755 659.566 799.542 659.566 800.375ZM679.381 795.703V809H676.491V792.094H679.225L679.381 795.703ZM678.694 799.906L677.491 799.859C677.501 798.703 677.673 797.635 678.006 796.656C678.34 795.667 678.808 794.807 679.413 794.078C680.017 793.349 680.735 792.786 681.569 792.391C682.413 791.984 683.345 791.781 684.366 791.781C685.199 791.781 685.949 791.896 686.616 792.125C687.282 792.344 687.85 792.698 688.319 793.188C688.798 793.677 689.163 794.312 689.413 795.094C689.663 795.865 689.788 796.807 689.788 797.922V809H686.881V797.891C686.881 797.005 686.751 796.297 686.491 795.766C686.23 795.224 685.85 794.833 685.35 794.594C684.85 794.344 684.235 794.219 683.506 794.219C682.788 794.219 682.131 794.37 681.538 794.672C680.954 794.974 680.449 795.391 680.022 795.922C679.605 796.453 679.277 797.062 679.038 797.75C678.808 798.427 678.694 799.146 678.694 799.906ZM704.822 804.516C704.822 804.099 704.728 803.714 704.541 803.359C704.364 802.995 703.994 802.667 703.431 802.375C702.879 802.073 702.046 801.812 700.931 801.594C699.994 801.396 699.145 801.161 698.384 800.891C697.634 800.62 696.994 800.292 696.462 799.906C695.942 799.521 695.541 799.068 695.259 798.547C694.978 798.026 694.837 797.417 694.837 796.719C694.837 796.052 694.983 795.422 695.275 794.828C695.577 794.234 695.999 793.708 696.541 793.25C697.093 792.792 697.754 792.432 698.525 792.172C699.296 791.911 700.155 791.781 701.103 791.781C702.457 791.781 703.614 792.021 704.572 792.5C705.53 792.979 706.265 793.62 706.775 794.422C707.285 795.214 707.541 796.094 707.541 797.062H704.65C704.65 796.594 704.509 796.141 704.228 795.703C703.957 795.255 703.556 794.885 703.025 794.594C702.504 794.302 701.864 794.156 701.103 794.156C700.301 794.156 699.65 794.281 699.15 794.531C698.66 794.771 698.301 795.078 698.072 795.453C697.853 795.828 697.744 796.224 697.744 796.641C697.744 796.953 697.796 797.234 697.9 797.484C698.015 797.724 698.212 797.948 698.494 798.156C698.775 798.354 699.171 798.542 699.681 798.719C700.192 798.896 700.843 799.073 701.634 799.25C703.02 799.562 704.16 799.938 705.056 800.375C705.952 800.812 706.619 801.349 707.056 801.984C707.494 802.62 707.712 803.391 707.712 804.297C707.712 805.036 707.556 805.714 707.244 806.328C706.942 806.943 706.499 807.474 705.916 807.922C705.343 808.359 704.655 808.703 703.853 808.953C703.061 809.193 702.171 809.312 701.181 809.312C699.692 809.312 698.431 809.047 697.4 808.516C696.369 807.984 695.587 807.297 695.056 806.453C694.525 805.609 694.259 804.719 694.259 803.781H697.166C697.207 804.573 697.436 805.203 697.853 805.672C698.27 806.13 698.78 806.458 699.384 806.656C699.989 806.844 700.587 806.938 701.181 806.938C701.973 806.938 702.634 806.833 703.166 806.625C703.707 806.417 704.119 806.13 704.4 805.766C704.681 805.401 704.822 804.984 704.822 804.516ZM719.325 809.312C718.148 809.312 717.08 809.115 716.122 808.719C715.174 808.312 714.356 807.745 713.669 807.016C712.992 806.286 712.471 805.422 712.106 804.422C711.742 803.422 711.559 802.328 711.559 801.141V800.484C711.559 799.109 711.763 797.885 712.169 796.812C712.575 795.729 713.127 794.812 713.825 794.062C714.523 793.312 715.315 792.745 716.2 792.359C717.085 791.974 718.002 791.781 718.95 791.781C720.158 791.781 721.2 791.99 722.075 792.406C722.96 792.823 723.684 793.406 724.247 794.156C724.809 794.896 725.226 795.771 725.497 796.781C725.768 797.781 725.903 798.875 725.903 800.062V801.359H713.278V799H723.013V798.781C722.971 798.031 722.815 797.302 722.544 796.594C722.283 795.885 721.867 795.302 721.294 794.844C720.721 794.385 719.94 794.156 718.95 794.156C718.294 794.156 717.69 794.297 717.138 794.578C716.585 794.849 716.111 795.255 715.716 795.797C715.32 796.339 715.013 797 714.794 797.781C714.575 798.562 714.466 799.464 714.466 800.484V801.141C714.466 801.943 714.575 802.698 714.794 803.406C715.023 804.104 715.351 804.719 715.778 805.25C716.216 805.781 716.742 806.198 717.356 806.5C717.981 806.802 718.69 806.953 719.481 806.953C720.502 806.953 721.367 806.745 722.075 806.328C722.783 805.911 723.403 805.354 723.934 804.656L725.684 806.047C725.32 806.599 724.856 807.125 724.294 807.625C723.731 808.125 723.039 808.531 722.216 808.844C721.403 809.156 720.44 809.312 719.325 809.312ZM739.922 804.516C739.922 804.099 739.828 803.714 739.641 803.359C739.464 802.995 739.094 802.667 738.531 802.375C737.979 802.073 737.146 801.812 736.031 801.594C735.094 801.396 734.245 801.161 733.484 800.891C732.734 800.62 732.094 800.292 731.562 799.906C731.042 799.521 730.641 799.068 730.359 798.547C730.078 798.026 729.938 797.417 729.938 796.719C729.938 796.052 730.083 795.422 730.375 794.828C730.677 794.234 731.099 793.708 731.641 793.25C732.193 792.792 732.854 792.432 733.625 792.172C734.396 791.911 735.255 791.781 736.203 791.781C737.557 791.781 738.714 792.021 739.672 792.5C740.63 792.979 741.365 793.62 741.875 794.422C742.385 795.214 742.641 796.094 742.641 797.062H739.75C739.75 796.594 739.609 796.141 739.328 795.703C739.057 795.255 738.656 794.885 738.125 794.594C737.604 794.302 736.964 794.156 736.203 794.156C735.401 794.156 734.75 794.281 734.25 794.531C733.76 794.771 733.401 795.078 733.172 795.453C732.953 795.828 732.844 796.224 732.844 796.641C732.844 796.953 732.896 797.234 733 797.484C733.115 797.724 733.312 797.948 733.594 798.156C733.875 798.354 734.271 798.542 734.781 798.719C735.292 798.896 735.943 799.073 736.734 799.25C738.12 799.562 739.26 799.938 740.156 800.375C741.052 800.812 741.719 801.349 742.156 801.984C742.594 802.62 742.812 803.391 742.812 804.297C742.812 805.036 742.656 805.714 742.344 806.328C742.042 806.943 741.599 807.474 741.016 807.922C740.443 808.359 739.755 808.703 738.953 808.953C738.161 809.193 737.271 809.312 736.281 809.312C734.792 809.312 733.531 809.047 732.5 808.516C731.469 807.984 730.688 807.297 730.156 806.453C729.625 805.609 729.359 804.719 729.359 803.781H732.266C732.307 804.573 732.536 805.203 732.953 805.672C733.37 806.13 733.88 806.458 734.484 806.656C735.089 806.844 735.688 806.938 736.281 806.938C737.073 806.938 737.734 806.833 738.266 806.625C738.807 806.417 739.219 806.13 739.5 805.766C739.781 805.401 739.922 804.984 739.922 804.516Z" fill="black" fill-opacity="0.65"/>
<defs>
<clipPath id="clip0_122_294">
<rect width="48" height="48" fill="white" transform="translate(344 401)"/>
</clipPath>
</defs>
</svg>
