<svg width="1440" height="1024" viewBox="0 0 1440 1024" fill="none" xmlns="http://www.w3.org/2000/svg">
<rect width="1440" height="1024" fill="white"/>
<path d="M490.336 294.215L466.313 300.64L464.493 314.705C462.81 327.715 470.968 341.14 483.664 345.785C497.124 344.524 508.43 333.617 510.113 320.607L511.933 306.542L490.336 294.215ZM487.003 319.977L504.744 322.272C502.151 331.756 494.069 339.457 484.292 340.933L487 320L469.259 317.705L470.988 304.343L489.672 299.349L487.003 319.977Z" fill="#E6645A"/>
<path d="M317.384 498.018L277.043 521.818C274.244 523.469 273.349 527.022 275 529.82L292.825 560.092C294.476 562.89 298.044 563.81 300.842 562.159L341.184 538.36C343.983 536.708 344.903 533.141 343.252 530.342L325.402 500.086C323.751 497.287 320.183 496.367 317.384 498.018ZM338.209 533.317L297.867 557.117L288.943 541.988L329.284 518.189L338.209 533.317ZM323.334 508.103L282.993 531.903L280.018 526.86L320.359 503.061L323.334 508.103Z" fill="#007AFF"/>
<path d="M599 671.35C603.156 671.35 611.5 673.461 611.5 677.65V678.154C608.469 681.682 604 683.95 599 683.95C594 683.95 589.531 681.682 586.5 678.154V677.65C586.5 673.461 594.844 671.35 599 671.35ZM599 668.2C595.562 668.2 592.75 665.365 592.75 661.9C592.75 658.435 595.562 655.6 599 655.6C602.438 655.6 605.25 658.435 605.25 661.9C605.25 665.365 602.438 668.2 599 668.2ZM617.75 668.83C617.75 657.395 609.469 649.3 599 649.3C588.531 649.3 580.25 657.395 580.25 668.83C580.25 676.201 586.344 685.966 599 697.621C611.656 685.966 617.75 676.201 617.75 668.83ZM599 643C612.125 643 624 653.143 624 668.83C624 679.288 615.656 691.668 599 706C582.344 691.668 574 679.288 574 668.83C574 653.143 585.875 643 599 643Z" fill="#706AD9"/>
<path d="M768.676 447.568L775.992 447.067L772.959 402.77L765.643 403.271L768.676 447.568ZM784.319 461.331L791.635 460.831L786.581 387.003L779.265 387.504L784.319 461.331ZM753.032 433.804L760.349 433.303L759.338 418.538L752.022 419.038L753.032 433.804ZM797.94 445.564L805.257 445.063L802.224 400.767L794.908 401.268L797.94 445.564ZM810.551 415.032L811.562 429.797L818.878 429.296L817.867 414.531L810.551 415.032Z" fill="#C9D95F"/>
<g clip-path="url(#clip0_150_229)">
<path d="M764.7 211.199C766.992 208.813 768.676 205.89 769.593 202.687C769.83 201.867 769.99 201.178 770.102 200.52L770.276 199.486L751.249 201.08L750.435 191.365L779.035 188.968C779.558 190.827 779.901 192.716 780.058 194.59C780.737 202.695 778.041 210.795 772.647 216.932L764.7 211.199Z" fill="#8BB7F0"/>
<path d="M778.426 189.835C778.838 191.434 779.113 193.052 779.248 194.658C779.888 202.299 777.444 209.937 772.517 215.835L765.918 211.074C767.98 208.727 769.507 205.94 770.375 202.911C770.618 202.065 770.786 201.348 770.904 200.657L771.256 198.589L769.165 198.764L751.991 200.203L751.312 192.106L778.426 189.835ZM779.628 188.103L749.557 190.623L750.507 201.958L769.303 200.383C769.183 201.091 769.009 201.781 768.815 202.462C767.841 205.861 765.975 208.91 763.449 211.295L772.764 218.016C778.426 211.878 781.619 203.5 780.867 194.522C780.681 192.299 780.252 190.156 779.628 188.103Z" fill="#4E7AB5"/>
<path d="M771.144 198.598C770.771 203.898 768.446 208.731 764.798 212.27L771.437 217.059C776.188 211.976 779.137 205.241 779.336 197.912L771.144 198.598Z" fill="#8BB7F0"/>
<path d="M752.61 227.057C741.432 227.994 730.84 222.729 724.796 213.282L732.348 206.943C736.225 213.96 743.749 218.016 751.796 217.342C756.189 216.973 760.226 215.248 763.508 212.341L771.533 218.131C766.474 223.297 759.79 226.456 752.61 227.057Z" fill="#BAE0BD"/>
<path d="M732.131 208.186C736.287 214.959 743.824 218.825 751.864 218.151C756.216 217.787 760.23 216.141 763.552 213.374L770.279 218.228C765.444 222.859 759.214 225.689 752.542 226.248C741.903 227.139 731.809 222.256 725.872 213.439L732.131 208.186ZM732.6 205.671L723.733 213.113C729.624 222.793 740.617 228.878 752.678 227.867C760.692 227.196 767.709 223.496 772.763 218.016L763.448 211.295C760.358 214.216 756.298 216.149 751.728 216.532C743.487 217.222 736.032 212.673 732.6 205.671Z" fill="#5E9C76"/>
<path d="M764.798 212.27C761.417 215.551 756.924 217.727 751.864 218.151C743.108 218.885 735.156 214.165 731.347 206.825L725.059 212.162C730.622 221.397 741.072 227.209 752.542 226.248C760.064 225.618 766.658 222.171 771.437 217.059L764.798 212.27Z" fill="#BAE0BD"/>
<path d="M722.781 184.561C727.313 174.702 736.757 168.05 747.59 167.142C754.866 166.533 762.062 168.591 767.948 172.949L761.699 180.341C757.862 177.693 753.171 176.459 748.404 176.858C740.567 177.515 733.888 182.58 731.115 189.873L722.781 184.561Z" fill="#F78F8F"/>
<path d="M747.658 167.952C754.448 167.383 761.167 169.204 766.759 173.096L761.544 179.265C757.674 176.791 753.04 175.655 748.336 176.049C740.518 176.704 733.81 181.576 730.73 188.665L723.822 184.262C728.341 175.02 737.354 168.815 747.658 167.952ZM747.522 166.333C735.776 167.317 726.126 174.759 721.753 184.87L731.541 191.11C733.887 183.852 740.396 178.345 748.472 177.668C753.425 177.253 758.147 178.677 761.834 181.441L769.12 172.822C763.201 168.183 755.606 165.655 747.522 166.333Z" fill="#C74343"/>
<path d="M748.336 176.049L747.658 167.952C736.436 168.892 727.242 176.058 723.15 185.761L730.137 190.215C732.786 182.552 739.736 176.769 748.336 176.049Z" fill="#F78F8F"/>
<path d="M724.009 211.987C721.809 208.152 720.51 203.993 720.142 199.61C719.757 195.014 720.445 190.355 722.135 186.076L730.584 191.462C729.894 193.844 729.65 196.307 729.858 198.796C730.053 201.12 730.648 203.379 731.628 205.519L724.009 211.987Z" fill="#FFEEA3"/>
<path d="M722.542 187.299L729.641 191.825C729.049 194.118 728.849 196.48 729.049 198.864C729.234 201.077 729.769 203.234 730.641 205.292L724.241 210.725C722.386 207.235 721.282 203.48 720.952 199.542C720.605 195.398 721.154 191.204 722.542 187.299ZM721.753 184.87C719.8 189.386 718.893 194.431 719.333 199.678C719.75 204.657 721.352 209.244 723.801 213.229L732.63 205.735C731.574 203.601 730.879 201.244 730.668 198.728C730.446 196.072 730.769 193.496 731.541 191.11L721.753 184.87Z" fill="#BA9B48"/>
<path d="M729.049 198.864C728.795 195.837 729.206 192.912 730.137 190.215L723.15 185.761C721.372 189.977 720.544 194.666 720.952 199.542C721.34 204.17 722.813 208.437 725.057 212.164L731.346 206.825C730.096 204.42 729.289 201.733 729.049 198.864Z" fill="#FFEEA3"/>
</g>
<g clip-path="url(#clip1_150_229)">
<path d="M218.243 196.661L182.751 205.113C180.489 205.652 178.219 204.256 177.68 201.994L165.977 152.851C165.438 150.589 166.835 148.319 169.097 147.781L195.033 141.604L211.935 152.003L221.363 191.59C221.901 193.852 220.505 196.122 218.243 196.661Z" fill="#43A047"/>
<path d="M211.935 152.003L198.284 155.254L195.033 141.604L211.935 152.003Z" fill="#C8E6C9"/>
<path d="M198.284 155.254L215.186 165.654L211.934 152.003L198.284 155.254Z" fill="#2E7D32"/>
<path d="M186.519 172.481L205.63 167.93L206.28 170.66L187.169 175.211L186.519 172.481ZM188.145 179.307L207.256 174.755L207.906 177.485L188.795 182.037L188.145 179.307ZM189.77 186.132L208.881 181.58L209.531 184.311L190.42 188.862L189.77 186.132ZM181.059 173.782L183.789 173.131L184.439 175.862L181.709 176.512L181.059 173.782ZM182.684 180.607L185.414 179.957L186.065 182.687L183.335 183.337L182.684 180.607ZM184.31 187.432L187.04 186.782L187.69 189.512L184.96 190.162L184.31 187.432Z" fill="#E8F5E9"/>
</g>
<defs>
<clipPath id="clip0_150_229">
<rect width="65" height="65" fill="white" transform="translate(715 167.427) rotate(-4.78923)"/>
</clipPath>
<clipPath id="clip1_150_229">
<rect width="67.3558" height="67.3558" fill="white" transform="translate(153.105 147.262) rotate(-13.396)"/>
</clipPath>
</defs>
</svg>
