<svg width="1440" height="1024" viewBox="0 0 1440 1024" fill="none" xmlns="http://www.w3.org/2000/svg">
<rect width="1440" height="1024" fill="white"/>
<path d="M569.754 262.822L554.923 266.789L553.8 275.471C552.761 283.503 557.797 291.791 565.635 294.659C573.944 293.88 580.924 287.147 581.963 279.115L583.087 270.432L569.754 262.822ZM567.696 278.726L578.649 280.143C577.048 285.998 572.058 290.752 566.022 291.663L567.694 278.74L556.742 277.323L557.809 269.075L569.344 265.991L567.696 278.726Z" fill="#E6645A"/>
<path d="M259.306 456.445L226.145 476.009C223.845 477.366 223.109 480.286 224.466 482.587L239.118 507.47C240.475 509.77 243.408 510.526 245.708 509.169L278.869 489.606C281.17 488.249 281.926 485.316 280.569 483.016L265.896 458.145C264.539 455.845 261.606 455.088 259.306 456.445ZM276.424 485.461L243.263 505.024L235.927 492.589L269.087 473.026L276.424 485.461ZM264.197 464.736L231.036 484.299L228.59 480.154L261.751 460.59L264.197 464.736Z" fill="#007AFF"/>
<path d="M576.302 538.435C579.698 539.018 586.221 541.909 585.635 545.325L585.564 545.736C582.593 548.187 578.624 549.409 574.538 548.708C570.453 548.006 567.118 545.53 565.135 542.229L565.206 541.818C565.792 538.402 572.906 537.852 576.302 538.435ZM576.743 535.867C573.934 535.384 572.033 532.678 572.518 529.853C573.003 527.028 575.698 525.112 578.507 525.594C581.316 526.076 583.217 528.782 582.732 531.607C582.247 534.432 579.552 536.349 576.743 535.867ZM591.976 539.011C593.577 529.688 587.943 521.926 579.389 520.457C570.834 518.989 562.934 524.427 561.333 533.75C560.301 539.759 563.914 548.576 572.625 559.854C584.598 552.127 590.945 545.02 591.976 539.011ZM580.27 515.321C590.996 517.162 599.28 527.098 597.084 539.888C595.62 548.414 587.069 557.337 571.452 566.685C559.847 552.663 554.762 541.399 556.226 532.873C558.422 520.083 569.545 513.48 580.27 515.321Z" fill="#706AD9"/>
<path d="M731.135 425.705L737.064 425.299L734.606 389.401L728.677 389.807L731.135 425.705ZM743.812 436.859L749.741 436.454L745.646 376.624L739.716 377.029L743.812 436.859ZM718.457 414.551L724.387 414.145L723.567 402.179L717.638 402.585L718.457 414.551ZM754.851 424.082L760.78 423.676L758.323 387.778L752.394 388.184L754.851 424.082ZM765.071 399.338L765.89 411.304L771.819 410.898L771 398.932L765.071 399.338Z" fill="#C9D95F"/>
<g clip-path="url(#clip0_150_229)">
<path d="M1113.52 133.716C1114.58 132.248 1115.27 130.535 1115.52 128.728C1115.59 128.265 1115.63 127.88 1115.64 127.514L1115.65 126.94L1105.45 129.248L1104.27 124.04L1119.61 120.571C1120.03 121.54 1120.36 122.538 1120.59 123.543C1121.57 127.887 1120.72 132.485 1118.26 136.223L1113.52 133.716Z" fill="#8BB7F0"/>
<path d="M1119.34 121.087C1119.69 121.923 1119.96 122.78 1120.15 123.641C1121.08 127.737 1120.33 132.065 1118.11 135.638L1114.17 133.556C1115.11 132.127 1115.72 130.499 1115.97 128.79C1116.03 128.313 1116.07 127.912 1116.08 127.527L1116.12 126.379L1115 126.633L1105.79 128.716L1104.81 124.375L1119.34 121.087ZM1119.86 120.057L1103.74 123.704L1105.12 129.78L1115.19 127.501C1115.18 127.894 1115.14 128.281 1115.09 128.665C1114.81 130.583 1114.03 132.378 1112.85 133.863L1118.41 136.802C1121.01 133.044 1122.11 128.257 1121.02 123.444C1120.75 122.253 1120.36 121.123 1119.86 120.057Z" fill="#4E7AB5"/>
<path d="M1116.06 126.393C1116.26 129.296 1115.36 132.093 1113.65 134.29L1117.61 136.384C1119.81 133.267 1120.89 129.39 1120.45 125.399L1116.06 126.393Z" fill="#8BB7F0"/>
<path d="M1108.16 143.235C1102.17 144.591 1096.02 142.538 1092.03 137.872L1095.65 133.861C1098.28 137.373 1102.67 139.002 1106.98 138.027C1109.34 137.494 1111.4 136.251 1112.96 134.426L1117.75 136.958C1115.4 140.144 1112.01 142.364 1108.16 143.235Z" fill="#BAE0BD"/>
<path d="M1095.62 134.552C1098.39 137.91 1102.77 139.436 1107.08 138.461C1109.41 137.933 1111.47 136.736 1113.06 134.983L1117.08 137.105C1114.8 139.985 1111.64 141.992 1108.06 142.801C1102.36 144.091 1096.51 142.208 1092.63 137.876L1095.62 134.552ZM1095.69 133.152L1091.44 137.861C1095.37 142.665 1101.79 145.132 1108.26 143.669C1112.56 142.697 1116.08 140.158 1118.41 136.802L1112.84 133.864C1111.39 135.682 1109.33 137.038 1106.88 137.593C1102.47 138.592 1098.08 136.69 1095.69 133.152Z" fill="#5E9C76"/>
<path d="M1113.65 134.29C1112.07 136.325 1109.79 137.847 1107.08 138.461C1102.39 139.523 1097.72 137.565 1095.09 133.873L1092.09 137.245C1095.81 141.832 1101.91 144.192 1108.06 142.801C1112.09 141.889 1115.41 139.519 1117.61 136.384L1113.65 134.29Z" fill="#BAE0BD"/>
<path d="M1088.76 122.447C1090.47 116.755 1095.09 112.431 1100.89 111.117C1104.79 110.235 1108.85 110.805 1112.38 112.723L1109.55 117.206C1107.27 116.061 1104.63 115.747 1102.07 116.325C1097.87 117.276 1094.63 120.53 1093.68 124.696L1088.76 122.447Z" fill="#F78F8F"/>
<path d="M1100.99 111.551C1104.63 110.728 1108.42 111.206 1111.74 112.893L1109.38 116.634C1107.1 115.586 1104.5 115.321 1101.97 115.891C1097.78 116.84 1094.51 119.991 1093.38 124.07L1089.3 122.205C1091.05 116.85 1095.47 112.801 1100.99 111.551ZM1100.8 110.683C1094.5 112.108 1089.83 116.876 1088.22 122.692L1094.01 125.334C1094.73 121.22 1097.84 117.739 1102.17 116.759C1104.83 116.159 1107.5 116.573 1109.7 117.792L1113 112.565C1109.44 110.497 1105.13 109.703 1100.8 110.683Z" fill="#C74343"/>
<path d="M1101.97 115.891L1100.99 111.551C1094.98 112.912 1090.53 117.496 1089.05 123.07L1093.18 124.955C1094.03 120.598 1097.36 116.934 1101.97 115.891Z" fill="#F78F8F"/>
<path d="M1091.5 137.23C1090.02 135.316 1089 133.159 1088.47 130.809C1087.91 128.346 1087.93 125.766 1088.52 123.317L1093.51 125.598C1093.32 126.942 1093.38 128.297 1093.68 129.631C1093.96 130.877 1094.45 132.057 1095.15 133.144L1091.5 137.23Z" fill="#FFEEA3"/>
<path d="M1088.84 123.95L1093.03 125.866C1092.88 127.155 1092.95 128.451 1093.24 129.729C1093.51 130.916 1093.97 132.045 1094.59 133.095L1091.53 136.528C1090.26 134.775 1089.38 132.822 1088.9 130.711C1088.4 128.49 1088.38 126.173 1088.84 123.95ZM1088.22 122.692C1087.51 125.29 1087.4 128.095 1088.03 130.907C1088.64 133.577 1089.86 135.943 1091.49 137.919L1095.71 133.185C1094.97 132.107 1094.42 130.882 1094.11 129.533C1093.79 128.109 1093.77 126.687 1094.01 125.334L1088.22 122.692Z" fill="#BA9B48"/>
<path d="M1093.24 129.729C1092.88 128.107 1092.88 126.489 1093.18 124.955L1089.05 123.07C1088.41 125.491 1088.31 128.097 1088.9 130.711C1089.46 133.192 1090.59 135.394 1092.09 137.246L1095.09 133.873C1094.23 132.663 1093.59 131.267 1093.24 129.729Z" fill="#FFEEA3"/>
</g>
<g clip-path="url(#clip1_150_229)">
<path d="M218.964 174.871L193.919 180.835C192.323 181.215 190.722 180.23 190.341 178.634L182.083 143.956C181.703 142.36 182.688 140.758 184.284 140.378L202.586 136.019L214.513 143.358L221.166 171.293C221.546 172.889 220.561 174.49 218.964 174.871Z" fill="#B1BF54"/>
<path d="M214.513 143.358L204.88 145.652L202.586 136.019L214.513 143.358Z" fill="#C8E6C9"/>
<path d="M204.88 145.652L216.807 152.99L214.513 143.358L204.88 145.652Z" fill="#2E7D32"/>
<path d="M196.579 157.808L210.064 154.596L210.523 156.523L197.037 159.735L196.579 157.808ZM197.726 162.624L211.211 159.413L211.67 161.339L198.184 164.551L197.726 162.624ZM198.873 167.441L212.358 164.229L212.817 166.156L199.331 169.367L198.873 167.441ZM192.725 158.726L194.652 158.267L195.111 160.193L193.184 160.652L192.725 158.726ZM193.873 163.542L195.799 163.083L196.258 165.01L194.331 165.469L193.873 163.542ZM195.02 168.358L196.946 167.9L197.405 169.826L195.478 170.285L195.02 168.358Z" fill="#E8F5E9"/>
</g>
<path d="M979 454V460.06C985.78 461.04 991 466.84 991 473.9C991 475.7 990.64 477.4 990.04 478.98L995.24 482.04C996.36 479.56 997 476.8 997 473.9C997 463.54 989.1 455 979 454V454ZM977 487.9C969.26 487.9 963 481.64 963 473.9C963 466.84 968.22 461.04 975 460.06V454C964.88 455 957 463.52 957 473.9C957 484.94 965.94 493.9 976.98 493.9C983.6 493.9 989.46 490.68 993.1 485.72L987.9 482.66C985.34 485.86 981.42 487.9 977 487.9Z" fill="#4F4C8C"/>
<path d="M870.121 227.303L871.128 238.633L869.65 238.765L868.642 227.435L870.121 227.303ZM873.763 226.979L873.872 228.209L865.118 228.987L865.008 227.758L873.763 226.979ZM878.36 237.112L880.031 229.355L881.571 229.218L879.058 239.238C878.999 239.453 878.915 239.685 878.807 239.935C878.704 240.19 878.564 240.435 878.386 240.671C878.208 240.906 877.985 241.104 877.717 241.263C877.454 241.428 877.131 241.527 876.747 241.561C876.633 241.571 876.487 241.569 876.307 241.553C876.128 241.538 876.001 241.523 875.927 241.509L875.815 240.342C875.857 240.344 875.923 240.343 876.011 240.34C876.106 240.343 876.171 240.342 876.207 240.339C876.534 240.31 876.808 240.241 877.028 240.132C877.249 240.029 877.428 239.869 877.566 239.653C877.709 239.442 877.822 239.157 877.906 238.799L878.36 237.112ZM875.969 229.717L878.736 236.059L879.245 237.543L878.257 238.164L874.397 229.856L875.969 229.717ZM884.853 230.558L885.746 240.596L884.298 240.725L883.262 229.068L884.585 228.95L884.853 230.558ZM890.75 232.575L890.765 232.738C890.819 233.35 890.797 233.925 890.698 234.462C890.599 234.994 890.427 235.464 890.181 235.873C889.94 236.281 889.627 236.609 889.241 236.858C888.855 237.107 888.4 237.254 887.876 237.301C887.342 237.349 886.862 237.302 886.436 237.162C886.011 237.022 885.64 236.797 885.325 236.485C885.01 236.173 884.746 235.789 884.532 235.332C884.324 234.874 884.163 234.353 884.048 233.767L883.971 232.895C883.978 232.267 884.045 231.699 884.172 231.191C884.299 230.683 884.488 230.243 884.737 229.87C884.991 229.492 885.312 229.194 885.701 228.977C886.089 228.754 886.547 228.619 887.076 228.572C887.606 228.525 888.084 228.587 888.513 228.758C888.94 228.924 889.311 229.184 889.625 229.538C889.939 229.891 890.189 230.327 890.377 230.843C890.568 231.354 890.693 231.932 890.75 232.575ZM889.317 232.867L889.303 232.704C889.265 232.283 889.186 231.893 889.065 231.532C888.944 231.167 888.777 230.852 888.566 230.589C888.359 230.319 888.105 230.117 887.806 229.982C887.506 229.841 887.158 229.788 886.764 229.823C886.401 229.856 886.09 229.946 885.831 230.094C885.578 230.243 885.367 230.431 885.199 230.661C885.031 230.885 884.899 231.137 884.804 231.417C884.713 231.692 884.652 231.975 884.62 232.265L884.8 234.28C884.936 234.634 885.111 234.964 885.327 235.269C885.542 235.569 885.814 235.803 886.142 235.973C886.471 236.137 886.871 236.198 887.343 236.156C887.732 236.122 888.06 236.012 888.325 235.826C888.596 235.634 888.809 235.388 888.966 235.087C889.127 234.785 889.235 234.446 889.291 234.069C889.346 233.688 889.355 233.287 889.317 232.867ZM896.874 236.501C896.287 236.553 895.747 236.502 895.252 236.347C894.762 236.187 894.329 235.94 893.955 235.608C893.585 235.274 893.288 234.867 893.062 234.385C892.836 233.903 892.697 233.366 892.644 232.775L892.615 232.448C892.554 231.763 892.601 231.145 892.756 230.593C892.91 230.035 893.145 229.554 893.459 229.15C893.773 228.745 894.142 228.427 894.566 228.196C894.99 227.965 895.438 227.828 895.91 227.786C896.512 227.733 897.04 227.791 897.494 227.959C897.954 228.128 898.34 228.386 898.654 228.735C898.966 229.078 899.213 229.495 899.392 229.987C899.572 230.473 899.687 231.011 899.74 231.603L899.797 232.249L893.51 232.808L893.405 231.633L898.253 231.202L898.244 231.093C898.19 230.721 898.08 230.365 897.913 230.024C897.752 229.683 897.519 229.411 897.213 229.208C896.908 229.005 896.508 228.925 896.016 228.969C895.689 228.998 895.394 229.095 895.132 229.26C894.869 229.419 894.651 229.642 894.477 229.93C894.304 230.217 894.18 230.56 894.106 230.959C894.032 231.358 894.017 231.811 894.062 232.32L894.091 232.646C894.127 233.046 894.215 233.417 894.355 233.76C894.5 234.098 894.691 234.389 894.927 234.635C895.169 234.88 895.449 235.064 895.768 235.188C896.093 235.31 896.453 235.354 896.847 235.319C897.355 235.274 897.777 235.132 898.111 234.893C898.445 234.654 898.729 234.349 898.963 233.978L899.896 234.593C899.739 234.884 899.531 235.167 899.273 235.441C899.015 235.714 898.688 235.947 898.292 236.14C897.902 236.331 897.429 236.452 896.874 236.501ZM904.363 235.678L902.923 235.806L902.096 226.499C902.042 225.892 902.105 225.372 902.286 224.937C902.472 224.497 902.763 224.152 903.159 223.903C903.555 223.648 904.038 223.495 904.608 223.444C904.774 223.43 904.941 223.425 905.109 223.431C905.282 223.437 905.451 223.453 905.616 223.48L905.642 224.662C905.531 224.646 905.405 224.639 905.264 224.641C905.128 224.643 904.993 224.649 904.858 224.661C904.552 224.689 904.293 224.774 904.081 224.919C903.873 225.057 903.723 225.249 903.63 225.492C903.536 225.736 903.505 226.029 903.535 226.371L904.363 235.678ZM905.404 227.099L905.502 228.204L900.942 228.61L900.844 227.505L905.404 227.099ZM907.407 231.258L907.391 231.079C907.337 230.472 907.375 229.902 907.505 229.367C907.635 228.828 907.849 228.351 908.147 227.938C908.444 227.519 908.82 227.182 909.273 226.928C909.725 226.668 910.245 226.512 910.831 226.46C911.423 226.407 911.964 226.469 912.456 226.645C912.952 226.815 913.383 227.08 913.75 227.439C914.121 227.793 914.418 228.224 914.641 228.733C914.864 229.236 915.002 229.791 915.056 230.398L915.072 230.577C915.126 231.184 915.088 231.755 914.957 232.289C914.827 232.824 914.611 233.3 914.308 233.719C914.01 234.133 913.635 234.469 913.182 234.729C912.734 234.984 912.215 235.137 911.623 235.19C911.032 235.242 910.49 235.183 909.999 235.012C909.508 234.836 909.077 234.571 908.705 234.218C908.339 233.858 908.044 233.427 907.822 232.924C907.599 232.42 907.461 231.865 907.407 231.258ZM908.831 230.951L908.846 231.13C908.884 231.551 908.968 231.943 909.1 232.308C909.231 232.667 909.408 232.981 909.631 233.249C909.859 233.516 910.13 233.72 910.446 233.859C910.761 233.993 911.118 234.042 911.518 234.007C911.912 233.972 912.25 233.861 912.531 233.673C912.818 233.481 913.047 233.233 913.218 232.93C913.39 232.627 913.509 232.287 913.575 231.91C913.645 231.527 913.662 231.126 913.624 230.706L913.609 230.527C913.572 230.112 913.485 229.724 913.348 229.365C913.217 229.001 913.037 228.685 912.809 228.417C912.586 228.144 912.317 227.938 912.001 227.799C911.691 227.659 911.336 227.607 910.936 227.643C910.542 227.678 910.202 227.792 909.916 227.984C909.635 228.177 909.406 228.427 909.23 228.736C909.058 229.038 908.939 229.381 908.874 229.763C908.808 230.14 908.794 230.536 908.831 230.951ZM918.45 227.272L919.081 234.369L917.642 234.497L916.893 226.078L918.294 225.953L918.45 227.272ZM920.959 225.669L921.07 227.008C920.948 226.993 920.833 226.987 920.723 226.992C920.619 226.991 920.499 226.996 920.364 227.008C920.032 227.038 919.744 227.116 919.499 227.242C919.254 227.368 919.051 227.533 918.891 227.735C918.732 227.938 918.611 228.173 918.531 228.442C918.455 228.705 918.415 228.991 918.411 229.3L918.027 229.569C917.982 229.061 917.989 228.579 918.048 228.124C918.112 227.669 918.235 227.26 918.417 226.899C918.599 226.532 918.845 226.239 919.154 226.018C919.469 225.791 919.854 225.657 920.311 225.617C920.415 225.608 920.535 225.61 920.672 225.624C920.809 225.633 920.905 225.648 920.959 225.669ZM924.273 227.108L924.873 233.855L923.425 233.983L922.676 225.563L924.046 225.442L924.273 227.108ZM924.174 229.352L923.503 229.388C923.457 228.812 923.485 228.273 923.587 227.773C923.688 227.267 923.865 226.82 924.118 226.431C924.371 226.043 924.702 225.731 925.11 225.496C925.517 225.256 926.001 225.111 926.561 225.061C926.956 225.026 927.324 225.051 927.666 225.135C928.008 225.215 928.311 225.363 928.576 225.58C928.841 225.797 929.058 226.086 929.226 226.448C929.394 226.809 929.502 227.255 929.549 227.784L930.047 233.394L928.608 233.522L928.115 227.982C928.076 227.541 927.969 227.195 927.795 226.943C927.627 226.692 927.402 226.518 927.122 226.423C926.841 226.322 926.519 226.288 926.156 226.321C925.73 226.358 925.382 226.465 925.11 226.641C924.838 226.817 924.628 227.045 924.48 227.325C924.333 227.604 924.235 227.919 924.188 228.268C924.145 228.612 924.14 228.973 924.174 229.352ZM929.559 228.073L928.62 228.455C928.584 227.992 928.62 227.542 928.727 227.104C928.84 226.665 929.022 226.267 929.272 225.91C929.528 225.553 929.855 225.26 930.253 225.031C930.65 224.797 931.116 224.656 931.651 224.608C932.102 224.568 932.507 224.592 932.865 224.681C933.228 224.769 933.54 224.927 933.801 225.155C934.067 225.377 934.279 225.674 934.437 226.047C934.596 226.42 934.699 226.871 934.746 227.4L935.238 232.933L933.791 233.062L933.297 227.513C933.255 227.041 933.147 226.682 932.974 226.436C932.805 226.184 932.581 226.019 932.302 225.939C932.028 225.853 931.707 225.827 931.338 225.86C931.022 225.888 930.747 225.967 930.512 226.098C930.278 226.229 930.087 226.397 929.938 226.604C929.788 226.805 929.68 227.032 929.614 227.284C929.553 227.535 929.534 227.798 929.559 228.073Z" fill="#8C3D37"/>
<path d="M779.843 504.96L781.039 518.415L779.283 518.571L778.087 505.116L779.843 504.96ZM784.167 504.575L784.297 506.035L773.901 506.96L773.771 505.5L784.167 504.575ZM792.264 515.693L791.807 510.546C791.772 510.152 791.661 509.817 791.475 509.542C791.295 509.26 791.041 509.053 790.712 508.92C790.384 508.788 789.988 508.743 789.526 508.784C789.095 508.822 788.723 508.93 788.409 509.107C788.102 509.283 787.867 509.499 787.703 509.756C787.546 510.012 787.48 510.279 787.505 510.556L785.795 510.708C785.763 510.351 785.824 509.988 785.978 509.621C786.131 509.253 786.368 508.912 786.688 508.598C787.013 508.278 787.412 508.012 787.884 507.803C788.361 507.586 788.902 507.451 789.506 507.398C790.233 507.333 790.884 507.399 791.461 507.597C792.043 507.793 792.514 508.127 792.872 508.598C793.236 509.062 793.452 509.667 793.518 510.413L793.932 515.07C793.962 515.403 794.021 515.755 794.11 516.125C794.205 516.496 794.323 516.811 794.464 517.072L794.477 517.22L792.694 517.378C792.59 517.189 792.499 516.933 792.42 516.611C792.342 516.283 792.29 515.977 792.264 515.693ZM792.173 511.315L792.298 512.514L790.57 512.668C790.084 512.711 789.653 512.79 789.278 512.904C788.903 513.012 788.592 513.154 788.347 513.331C788.102 513.508 787.922 513.72 787.808 513.966C787.692 514.206 787.649 514.48 787.676 514.788C787.704 515.102 787.8 515.382 787.965 515.629C788.13 515.875 788.36 516.062 788.658 516.191C788.96 516.313 789.321 516.356 789.74 516.318C790.264 516.272 790.716 516.12 791.097 515.862C791.477 515.605 791.77 515.306 791.976 514.965C792.188 514.623 792.29 514.3 792.281 513.997L793.084 514.754C793.064 515.017 792.973 515.314 792.81 515.645C792.647 515.976 792.418 516.301 792.123 516.619C791.834 516.93 791.479 517.201 791.059 517.431C790.644 517.654 790.166 517.789 789.624 517.838C788.946 517.898 788.34 517.818 787.805 517.599C787.276 517.379 786.85 517.06 786.527 516.641C786.21 516.216 786.027 515.726 785.978 515.172C785.93 514.636 785.993 514.155 786.166 513.73C786.339 513.299 786.61 512.93 786.981 512.624C787.35 512.312 787.806 512.06 788.348 511.869C788.89 511.678 789.502 511.552 790.186 511.491L792.173 511.315ZM797.883 502.611L799.146 516.805L797.427 516.957L796.165 502.763L797.883 502.611ZM802.959 502.159L804.221 516.353L802.502 516.506L801.24 502.312L802.959 502.159ZM810.156 514.782L812.14 505.571L813.97 505.409L810.985 517.307C810.915 517.562 810.815 517.838 810.686 518.135C810.564 518.438 810.398 518.729 810.187 519.008C809.976 519.288 809.711 519.522 809.392 519.712C809.081 519.908 808.697 520.026 808.241 520.066C808.105 520.078 807.931 520.075 807.719 520.057C807.506 520.038 807.355 520.021 807.267 520.004L807.134 518.618C807.184 518.62 807.262 518.619 807.367 518.616C807.479 518.619 807.557 518.618 807.6 518.614C807.988 518.58 808.313 518.498 808.574 518.369C808.837 518.247 809.05 518.057 809.213 517.8C809.383 517.549 809.518 517.211 809.617 516.786L810.156 514.782ZM807.316 506L810.603 513.532L811.207 515.294L810.034 516.032L805.45 506.166L807.316 506Z" fill="#8C3074"/>
<defs>
<clipPath id="clip0_150_229">
<rect width="35.5996" height="35.5996" fill="white" transform="translate(1083.24 113.743) rotate(-12.7485)"/>
</clipPath>
<clipPath id="clip1_150_229">
<rect width="47.5301" height="47.5301" fill="white" transform="translate(173 140.012) rotate(-13.396)"/>
</clipPath>
</defs>
</svg>
