<svg width="1440" height="1024" viewBox="0 0 1440 1024" fill="none" xmlns="http://www.w3.org/2000/svg">
<rect width="1440" height="1024" fill="white"/>
<path d="M578.915 264.007L554.436 270.554L552.582 284.886C550.867 298.143 559.18 311.823 572.116 316.557C585.832 315.271 597.353 304.157 599.068 290.901L600.922 276.569L578.915 264.007ZM575.519 290.258L593.597 292.597C590.955 302.261 582.719 310.108 572.756 311.612L575.516 290.282L557.438 287.943L559.199 274.328L578.238 269.238L575.519 290.258Z" fill="#E6645A"/>
<path d="M309.306 502.784L276.145 522.347C273.845 523.704 273.109 526.625 274.466 528.925L289.118 553.808C290.475 556.109 293.408 556.865 295.708 555.508L328.869 535.945C331.17 534.587 331.926 531.655 330.569 529.354L315.896 504.484C314.539 502.183 311.606 501.427 309.306 502.784ZM326.424 531.799L293.263 551.363L285.927 538.927L319.087 519.364L326.424 531.799ZM314.197 511.074L281.036 530.637L278.59 526.492L311.751 506.929L314.197 511.074Z" fill="#007AFF"/>
<path d="M576.891 538.61C580.057 539.971 585.721 544.309 584.351 547.493L584.187 547.876C580.725 549.563 576.58 549.822 572.772 548.184C568.964 546.545 566.302 543.358 565.147 539.684L565.311 539.301C566.681 536.117 573.726 537.248 576.891 538.61ZM577.921 536.216C575.303 535.089 574.088 532.014 575.221 529.381C576.354 526.748 579.423 525.515 582.041 526.641C584.659 527.768 585.874 530.844 584.741 533.477C583.608 536.11 580.539 537.342 577.921 536.216ZM591.995 542.839C595.734 534.15 592.073 525.285 584.1 521.854C576.127 518.424 567.174 521.862 563.435 530.55C561.025 536.151 562.473 545.568 568.302 558.572C581.751 553.863 589.585 548.44 591.995 542.839ZM586.16 517.067C596.156 521.368 601.884 532.967 596.755 544.887C593.336 552.834 582.934 559.506 565.562 564.939C557.563 548.59 555.256 536.449 558.675 528.502C563.804 516.582 576.164 512.766 586.16 517.067Z" fill="#706AD9"/>
<path d="M640.135 437.705L646.064 437.299L643.606 401.401L637.677 401.807L640.135 437.705ZM652.812 448.859L658.741 448.454L654.646 388.624L648.716 389.029L652.812 448.859ZM627.457 426.551L633.387 426.145L632.567 414.179L626.638 414.585L627.457 426.551ZM663.851 436.082L669.78 435.676L667.323 399.778L661.394 400.184L663.851 436.082ZM674.071 411.338L674.89 423.304L680.819 422.898L680 410.932L674.071 411.338Z" fill="#C9D95F"/>
<g clip-path="url(#clip0_150_229)">
<path d="M751.397 199.482C753.075 197.735 754.309 195.595 754.98 193.249C755.153 192.648 755.271 192.144 755.353 191.662L755.48 190.905L741.546 192.072L740.95 184.957L761.895 183.202C762.278 184.564 762.529 185.947 762.644 187.319C763.141 193.255 761.167 199.187 757.217 203.681L751.397 199.482Z" fill="#8BB7F0"/>
<path d="M761.449 183.837C761.75 185.008 761.952 186.193 762.051 187.369C762.52 192.965 760.73 198.558 757.121 202.878L752.289 199.391C753.799 197.672 754.917 195.631 755.553 193.413C755.73 192.794 755.854 192.268 755.94 191.762L756.198 190.248L754.667 190.376L742.089 191.43L741.593 185.5L761.449 183.837ZM762.329 182.569L740.307 184.414L741.003 192.715L754.767 191.562C754.679 192.08 754.552 192.585 754.41 193.084C753.697 195.573 752.33 197.806 750.481 199.553L757.303 204.475C761.449 199.98 763.787 193.844 763.237 187.27C763.1 185.641 762.786 184.072 762.329 182.569Z" fill="#4E7AB5"/>
<path d="M756.116 190.255C755.843 194.136 754.14 197.675 751.469 200.267L756.33 203.774C759.81 200.052 761.969 195.119 762.115 189.752L756.116 190.255Z" fill="#8BB7F0"/>
<path d="M742.543 211.096C734.357 211.782 726.6 207.926 722.174 201.008L727.704 196.366C730.544 201.504 736.054 204.475 741.947 203.981C745.164 203.711 748.12 202.447 750.524 200.319L756.401 204.559C752.696 208.342 747.801 210.656 742.543 211.096Z" fill="#BAE0BD"/>
<path d="M727.545 197.276C730.589 202.236 736.108 205.067 741.996 204.574C745.184 204.307 748.123 203.102 750.556 201.075L755.482 204.63C751.942 208.022 747.379 210.094 742.493 210.503C734.702 211.156 727.31 207.58 722.962 201.123L727.545 197.276ZM727.889 195.434L721.395 200.884C725.709 207.973 733.76 212.429 742.592 211.689C748.461 211.197 753.6 208.488 757.301 204.475L750.48 199.553C748.217 201.692 745.243 203.108 741.897 203.388C735.862 203.894 730.402 200.562 727.889 195.434Z" fill="#5E9C76"/>
<path d="M751.469 200.267C748.992 202.669 745.702 204.263 741.996 204.574C735.584 205.111 729.761 201.654 726.971 196.279L722.366 200.188C726.44 206.951 734.094 211.207 742.493 210.503C748.002 210.042 752.831 207.517 756.33 203.774L751.469 200.267Z" fill="#BAE0BD"/>
<path d="M720.698 179.975C724.017 172.755 730.933 167.883 738.867 167.219C744.195 166.772 749.464 168.28 753.775 171.471L749.199 176.885C746.389 174.945 742.954 174.041 739.463 174.334C733.723 174.815 728.832 178.524 726.801 183.865L720.698 179.975Z" fill="#F78F8F"/>
<path d="M738.916 167.812C743.889 167.395 748.81 168.729 752.904 171.579L749.085 176.096C746.251 174.285 742.858 173.452 739.413 173.741C733.688 174.221 728.775 177.788 726.519 182.98L721.461 179.756C724.77 172.988 731.371 168.444 738.916 167.812ZM738.817 166.626C730.215 167.346 723.148 172.796 719.945 180.201L727.114 184.77C728.831 179.456 733.598 175.422 739.512 174.927C743.14 174.623 746.598 175.666 749.298 177.69L754.633 171.378C750.299 167.98 744.737 166.13 738.817 166.626Z" fill="#C74343"/>
<path d="M739.413 173.741L738.916 167.811C730.698 168.5 723.965 173.748 720.969 180.854L726.085 184.115C728.025 178.503 733.115 174.269 739.413 173.741Z" fill="#F78F8F"/>
<path d="M721.597 200.06C719.986 197.251 719.035 194.206 718.766 190.995C718.484 187.63 718.988 184.218 720.225 181.084L726.413 185.029C725.907 186.773 725.729 188.577 725.881 190.399C726.024 192.101 726.46 193.756 727.178 195.323L721.597 200.06Z" fill="#FFEEA3"/>
<path d="M720.523 181.98L725.722 185.294C725.289 186.974 725.142 188.703 725.288 190.449C725.424 192.07 725.816 193.649 726.454 195.157L721.767 199.136C720.409 196.579 719.601 193.83 719.359 190.946C719.105 187.911 719.507 184.839 720.523 181.98ZM719.946 180.201C718.515 183.509 717.851 187.203 718.173 191.045C718.479 194.692 719.652 198.051 721.445 200.969L727.911 195.481C727.137 193.918 726.629 192.192 726.474 190.35C726.311 188.405 726.548 186.518 727.114 184.77L719.946 180.201Z" fill="#BA9B48"/>
<path d="M725.288 190.449C725.103 188.233 725.403 186.09 726.086 184.115L720.969 180.854C719.667 183.941 719.06 187.375 719.359 190.946C719.643 194.335 720.722 197.459 722.365 200.189L726.971 196.279C726.056 194.518 725.464 192.55 725.288 190.449Z" fill="#FFEEA3"/>
</g>
<g clip-path="url(#clip1_150_229)">
<path d="M218.243 196.661L182.751 205.113C180.489 205.652 178.219 204.256 177.68 201.994L165.977 152.851C165.438 150.589 166.835 148.319 169.097 147.781L195.033 141.604L211.935 152.003L221.363 191.59C221.901 193.852 220.505 196.122 218.243 196.661Z" fill="#43A047"/>
<path d="M211.935 152.003L198.284 155.254L195.033 141.604L211.935 152.003Z" fill="#C8E6C9"/>
<path d="M198.284 155.254L215.186 165.654L211.934 152.003L198.284 155.254Z" fill="#2E7D32"/>
<path d="M186.519 172.481L205.63 167.93L206.28 170.66L187.169 175.211L186.519 172.481ZM188.145 179.307L207.256 174.755L207.906 177.485L188.795 182.037L188.145 179.307ZM189.77 186.132L208.881 181.58L209.531 184.311L190.42 188.862L189.77 186.132ZM181.059 173.782L183.789 173.131L184.439 175.862L181.709 176.512L181.059 173.782ZM182.684 180.607L185.414 179.957L186.065 182.687L183.335 183.337L182.684 180.607ZM184.31 187.432L187.04 186.782L187.69 189.512L184.96 190.162L184.31 187.432Z" fill="#E8F5E9"/>
</g>
<defs>
<clipPath id="clip0_150_229">
<rect width="47.6014" height="47.6014" fill="white" transform="translate(715 167.427) rotate(-4.78923)"/>
</clipPath>
<clipPath id="clip1_150_229">
<rect width="67.3558" height="67.3558" fill="white" transform="translate(153.105 147.262) rotate(-13.396)"/>
</clipPath>
</defs>
</svg>
