<?xml version="1.0" encoding="iso-8859-1"?>
<!-- Generator: Adobe Illustrator 19.0.0, SVG Export Plug-In . SVG Version: 6.00 Build 0)  -->
<svg version="1.1" id="Layer_1" xmlns="http://www.w3.org/2000/svg" xmlns:xlink="http://www.w3.org/1999/xlink" x="0px" y="0px"
	 viewBox="0 0 512 512" style="enable-background:new 0 0 512 512;" xml:space="preserve">
<circle style="fill:#FFE356;" cx="256" cy="256" r="256"/>
<path style="fill:#FEFEFE;" d="M256,52.111c112.604,0,203.889,91.285,203.889,203.889S368.604,459.889,256,459.889
	S52.111,368.604,52.111,256S143.396,52.111,256,52.111z M256,69.056c103.129,0,186.762,83.633,186.762,186.762
	S359.129,442.579,256,442.579S69.238,358.947,69.238,255.818S152.871,69.056,256,69.056z"/>
<path style="fill:#FF7069;" d="M387.371,80.9c16.763,0,30.428,13.665,30.428,30.428s-13.665,30.428-30.428,30.428
	s-30.428-13.665-30.428-30.428S370.608,80.9,387.371,80.9z"/>
<g>
	<path style="fill:#83CF8F;" d="M124.629,80.9c16.763,0,30.428,13.665,30.428,30.428s-13.665,30.428-30.428,30.428
		s-30.428-13.665-30.428-30.428S107.866,80.9,124.629,80.9z"/>
	<path style="fill:#83CF8F;" d="M387.371,370.243c16.763,0,30.428,13.665,30.428,30.428c0,16.763-13.665,30.428-30.428,30.428
		s-30.428-13.665-30.428-30.428C356.942,383.909,370.608,370.243,387.371,370.243z"/>
</g>
<path style="fill:#FF7069;" d="M124.629,370.243c16.763,0,30.428,13.665,30.428,30.428c0,16.763-13.665,30.428-30.428,30.428
	s-30.428-13.665-30.428-30.428C94.201,383.909,107.866,370.243,124.629,370.243z"/>
<path style="fill:#75BD80;" d="M149.227,104.769c0,17.492-14.212,31.522-31.522,31.522c-1.64,0-3.28-0.182-4.92-0.364
	c-3.462-0.547-6.742-1.64-9.657-3.098c2.186,2.186,4.737,4.191,7.653,5.648c4.191,2.186,8.928,3.28,13.848,3.28
	c16.763,0,30.428-13.665,30.428-30.428c0-4.009-0.729-7.653-2.186-11.297c-1.822-4.373-4.555-8.381-8.017-11.479
	c2.551,4.191,4.009,8.928,4.373,14.03c0,0.729,0,1.275,0,2.004V104.769z"/>
<path style="fill:#F7635B;" d="M411.969,104.769c0,17.492-14.212,31.522-31.522,31.522c-1.64,0-3.28-0.182-4.92-0.364
	c-3.462-0.547-6.742-1.64-9.657-3.098c2.186,2.186,4.737,4.191,7.653,5.648c4.191,2.186,8.928,3.28,13.848,3.28
	c16.763,0,30.428-13.665,30.428-30.428c0-4.009-0.729-7.653-2.186-11.297c-1.822-4.373-4.555-8.381-8.017-11.479
	c2.551,4.191,4.009,8.928,4.373,14.03c0,0.729,0,1.275,0,2.004V104.769z"/>
<path style="fill:#75BD80;" d="M411.969,394.112c0,17.492-14.212,31.522-31.522,31.522c-1.64,0-3.28-0.182-4.92-0.364
	c-3.462-0.547-6.742-1.64-9.657-3.098c2.186,2.186,4.737,4.191,7.653,5.648c4.191,2.186,8.928,3.28,13.848,3.28
	c16.763,0,30.428-13.665,30.428-30.428c0-4.009-0.729-7.653-2.186-11.297c-1.822-4.373-4.555-8.382-8.017-11.479
	c2.551,4.191,4.009,8.928,4.373,14.03c0,0.729,0,1.275,0,2.004V394.112z"/>
<path style="fill:#F7635B;" d="M149.227,394.112c0,17.492-14.212,31.522-31.522,31.522c-1.64,0-3.28-0.182-4.92-0.364
	c-3.462-0.547-6.742-1.64-9.657-3.098c2.186,2.186,4.737,4.191,7.653,5.648c4.191,2.186,8.928,3.28,13.848,3.28
	c16.763,0,30.428-13.665,30.428-30.428c0-4.009-0.729-7.653-2.186-11.297c-1.822-4.373-4.555-8.382-8.017-11.479
	c2.551,4.191,4.009,8.928,4.373,14.03c0,0.729,0,1.275,0,2.004V394.112z"/>
<path style="fill:#6B7F9E;" d="M256,120.256c74.887,0,135.744,60.857,135.744,135.744S330.887,391.744,256,391.744
	S120.256,330.887,120.256,256S181.113,120.256,256,120.256z"/>
<path style="fill:#8597B1;" d="M256,120.256c53.751,0,100.214,31.34,122.26,76.527c3.28,12.39,5.102,25.327,5.102,38.628
	c0,81.811-66.323,148.316-148.316,148.316c-12.208,0-24.051-1.458-35.348-4.191c-46.827-21.5-79.442-68.692-79.442-123.536
	C120.256,181.113,181.113,120.256,256,120.256z"/>
<path style="fill:#E4E7ED;" d="M340.908,149.956c25.327,20.225,43.183,49.196,48.831,82.54c-0.364-0.547-0.911-1.458-1.275-2.733
	c-2.733,0.911-2.733,0.911-5.831,1.458l-0.182,0.182c-1.275,1.822,0,1.093-2.186,2.915c-2.551,2.186-4.373,5.102-7.288,6.924
	c-0.364,3.098,0.182,3.826-0.547,7.47c-0.364,1.275-1.822,5.102-3.644,4.737c-0.547-0.182-2.915-6.013-3.462-7.653
	c-0.911-2.733-2.004-4.92-2.733-8.017c-0.364-1.64-0.729-4.92-1.093-6.195c-1.822,0.364-1.822,1.458-3.644,0.182
	c-1.275-0.911-0.729-1.458-1.458-2.733c-1.458-1.458-2.915-2.733-4.555-4.191c-1.093-0.364-5.648,0.364-7.653,0
	c-3.462-0.364-3.644-0.182-5.831-2.915c-3.644,0.182-3.28,1.458-6.742-1.458c-2.369-2.004-1.822-5.102-5.284-3.28
	c-0.182,2.915,1.275,3.462,2.551,4.737c0.911,1.093,2.004,1.64,2.551,3.098c0,0,0.182,1.275,0.364,1.458
	c3.28,0.182,4.009-1.275,5.831-2.733c1.822,1.64,0,2.004,2.551,3.28c2.004,1.093,1.64,0.364,2.915,2.004
	c0.729,2.186-4.555,8.199-6.195,9.293c-1.275,0.911-2.004,0.364-3.098,1.275c-1.822,1.458,0.182,1.275-2.733,2.369
	c-3.28,1.275-6.559,3.644-9.839,3.826c-0.729-2.004-1.458-4.009-2.186-6.195c-2.186-6.924-2.004-4.191-4.373-7.835
	c-1.093-1.64-0.547-2.551-1.275-4.009c-0.547-1.093-1.275-1.458-1.822-2.733c-0.911-2.004-2.186-5.102-4.555-4.737
	c-0.547,1.64,2.186,6.924,2.733,8.199c0.729,1.275,1.64,1.822,2.004,3.644c0.364,2.551,0,2.186,1.275,4.009
	c2.915,3.462-0.182,2.915,4.373,6.377c3.462,2.551,2.551,3.28,4.009,6.742c2.186,0.547,8.746-2.369,10.021-1.458
	c1.275,2.369-1.64,6.195-2.369,8.382c-2.369,6.924-6.742,6.924-10.021,12.208c-1.822,2.915-2.551,3.28-4.191,6.742
	c-1.822,4.009,3.826,14.759,0.364,19.314c-0.729,1.093-3.098,1.64-6.195,4.92c-3.098,3.462,0,2.915-1.093,8.564
	c-0.911,1.275-2.186,1.458-3.28,2.369c-0.364,1.275,0,2.369-0.911,4.191c-0.729,2.004-0.911,0.911-2.004,2.551
	c-0.911,1.275-0.729,1.822-1.64,2.915c-0.911,1.093-1.275,1.458-2.004,2.004c-3.826,3.462-11.843,3.644-12.572,3.098
	c-2.004-1.64-0.547-2.004-1.093-4.373c-0.547-2.004-1.458-3.644-2.369-5.284v-0.182c-0.364-0.729-0.911-1.458-1.093-2.186
	c-1.64-4.92-0.911-8.746-3.644-13.665c-3.462-6.559,1.822-9.839,1.64-13.483c0-0.911-0.364-1.64-0.547-2.369
	c-0.729-4.009-1.093-7.653-3.644-10.75c-2.915-3.462-2.551-2.186-1.64-7.835c1.275-6.559-1.64-4.92-5.466-5.102
	c-2.004-5.831-5.648-3.098-9.475-1.275c-2.369,1.093-3.28-0.364-5.831,0c-5.831,0.729-1.275,3.28-9.11-2.915
	c-3.28-2.551-1.093-1.275-3.098-4.555c-0.729-1.275-2.733-2.733-3.644-4.009c-2.915-3.826,0.547-7.47,0-11.843
	c-0.911-8.017-2.186-1.093,2.186-10.75c2.369-5.102,5.831-5.102,6.742-7.47c0.729-2.004,0.182-3.462,1.822-5.466
	c1.275-1.458,3.098-1.275,3.826-3.644c1.093-2.915-0.911-3.28-3.098-3.462c-0.911-3.098-0.911-2.369-0.182-5.102
	c0.364-1.64,0-2.369,0.364-4.009c0.911-4.009,7.653,0,9.657-1.64c0.911-1.64,1.093-3.462,0-5.102
	c-1.093-1.64-2.551-1.458-3.28-2.915c1.64-1.093,0.364-0.182,1.822-0.364c1.64-0.364,1.458-0.911,3.462-1.275
	c1.822-0.364,2.915-2.004,4.737-3.098c2.551-1.64,1.275-3.098,4.373-3.462c4.737-0.911,1.64-0.729,2.186-5.102
	c0.729-0.364,1.458-0.547,2.186-0.911c1.458,2.004-0.364,1.275,1.458,2.551c0.547-0.364,1.093-0.547,1.64-0.911
	c-0.182-2.186-1.275-1.822-1.822-4.373c-2.369,0.364-3.28,2.369-5.102,1.64s-2.004-3.462-1.822-5.648
	c0.729-1.64,4.191-2.551,5.466-2.915c2.186-0.729,1.822-2.186,3.826-4.191c2.551-2.551,0.729,0,2.004-3.28
	c2.915-0.182,1.458-0.182,3.28-1.093l0,0h0.182c0.911-0.364,2.369-0.547,3.644-1.093c4.737-1.64,6.742-0.729,10.204,0.547
	c2.733,1.093,10.75,1.093,11.479,4.555c-2.004,2.004-3.826,0.547-6.559,0.729c0.547,2.551,0.729,2.551,3.098,3.462
	c0.364-1.275-0.182-0.729,0.547-1.64c0.729,0.182,1.64,0.364,2.369,0.364c0.729-2.733,1.64-2.369,4.373-2.551
	c-0.364-1.822-0.911-1.275,0-2.733c2.733,0.364,0.547,0,1.822,2.186c1.822-0.182,3.826-2.369,6.377-2.733
	c1.64-0.182,1.64,0.364,3.826,0.182c1.822-0.182,1.822-0.911,3.826-0.182c0.729-1.275,0-1.275,1.64-1.64
	c2.551-0.364,4.92,1.093,7.47,1.458c-1.822-2.369-3.644-1.822-1.275-5.648c2.915-0.547,3.098-0.182,4.373,2.004
	c0.729-0.364,1.093-0.729,1.458-1.093L340.908,149.956z M123.536,226.665c6.195-27.878,20.772-52.475,40.996-71.06
	c1.64,0.547,3.644,0.182,5.284,0.182c0.547-1.093,0.911-2.004,1.822-2.369c0.364-0.182,0.911-0.182,1.458-0.182
	c0,0.547,0.182,1.093,0.364,1.64v0.364c0,0,0,0.182,0.182,0.364c2.733-1.64,0.364-1.64,1.822-4.555
	c-2.369-0.364-2.004-0.182-3.462-1.64c1.458-1.458,4.009-2.004,6.013-1.822c-0.182,1.458-0.729,1.275-0.182,2.551
	c1.64-0.911,2.733-3.644,5.102-3.098c0.547,0.364,1.093,0.729,1.64,0.911c-1.275,1.275-3.28,1.275-4.92,2.004
	c-0.729,7.47,2.369,1.275,1.275,6.377c1.822-0.182,3.644-1.458,4.373-2.915c-0.729-0.911-1.64-0.911-2.186-2.004
	c0.364-1.458,1.458-2.369,2.733-3.098c0.911-0.364,2.004-0.729,3.098-0.729c13.848,0.182,7.288,0.729,11.479,2.733
	c0.911,0.364,2.733,0.547,3.28,1.458c0.911,1.275,0,2.551,1.458,3.644c1.275,0.911,1.458,0,2.915,2.004
	c-0.364,1.093-1.093,2.369-2.915,2.369c-2.369,0-0.911-1.64-3.462-1.275c0,2.369,2.369,3.28,0.182,4.555
	c-1.822,1.093-0.729-0.364-2.186,0.364l-0.182,0.182l-0.182,0.182c-0.182,0.364-0.547,0.547-0.729,0.729
	c-3.462-0.911-2.733-0.547-4.92-2.733c-0.729-0.911-0.911-1.093-2.369-0.911c-0.911,0-2.004,0.364-2.915-0.364
	c1.64-2.186,2.551,0,4.92-1.275c0.364-0.182,3.098-2.369,3.644-2.733c-0.729-1.64,0-0.364-1.093-1.275
	c-2.369-2.551-3.098-1.822-6.377-1.822c-1.458,1.822-2.733,4.009-4.373,4.92c-1.093,0.547-2.186,0.729-3.826,0
	c0.729,2.915,2.733,0.729,2.733,4.373c-1.275-0.182-1.822-0.911-3.28-0.364c-2.733,1.093-0.364,0.911,0,1.458
	c0,0,1.275,0.182,0,0.729c-1.458,0.547-0.182-0.364-2.915-2.004c0.364-0.729,0.729-1.458,1.093-2.186
	c-2.186,0.729-5.102,1.822-7.653,3.098c-2.915,1.458-5.831,3.28-7.47,4.737c0,2.551,0.364,0.911,0.729,4.009
	c4.009,0.182,2.733,1.458,6.742,2.551c0.729,0.182,1.822,0.364,2.915,0.547c0,2.004-1.822,3.462-0.547,5.466
	c2.915,2.004,2.915-1.822,3.644-4.373c9.475-2.004,4.92-4.737,7.47-10.021c0.364-0.729,0.911-1.64,1.64-2.551
	c0.729,0,3.644,0.364,4.373,0.547c2.186,0.364,0.911,0.911,3.28,2.004c0,1.822-0.911,4.373,1.822,3.826
	c2.186-0.364,1.64-2.004,4.191-2.551c1.093,2.733,0.911,4.009,1.458,7.288c6.195,2.369,3.462,4.373,2.186,8.928
	c0.729,0.364,1.64,0.729,2.369,1.093c0,1.275,0,2.551-0.182,3.826c-0.182,0-6.742-1.458-7.106-1.64
	c0.911-2.915,2.915-2.915,4.009-5.831c-2.369,0.364-2.186,1.093-3.826,1.64c-1.458,0.364-2.733,0.182-4.373,0.364
	c-0.547,1.822,0-1.64,0.182,0.729c0,0.911,0.547,0,0,1.093c-2.186-1.093-1.458-3.462-5.466-1.093
	c0.911,0.364,1.822,0.729,2.733,1.093c-0.182,2.733-0.364,0.729-0.911,2.369c-1.458,4.555,3.826,1.822,5.102,1.458
	c-0.364,2.369-1.822,2.369-3.826,3.098c-2.369,0.729-2.915,1.64-4.737,2.004c0-2.915-0.364-0.364,0.911-2.369
	c-1.822,0.182-3.098,1.093-4.92,1.822h-0.182c-2.186,0.911-2.551,1.093-2.915,3.826c-1.822,0.547-4.191,1.275-5.466,2.733
	c-1.275,1.275-2.733,2.551-4.009,3.826c-0.182,0.182-0.182,0.182-0.364,0.364c0.547,3.644,0,3.644-2.186,5.102
	c-1.822,1.093-2.369,1.093-4.191,2.733c-5.466,4.92-2.733,2.551-2.551,10.932c-1.093-0.364-2.186-0.729-3.28-1.093
	c-0.911-5.648,0.364-3.644-4.191-5.102c-4.737-1.458-4.191,0.911-6.195,1.458c-2.186,0.547-3.28-2.004-6.559,0
	c-1.822,1.275-3.462,2.004-3.826,4.191c-0.547,2.551-1.64,4.555-1.458,7.47c0.364,7.835,7.47,8.199,9.293,4.555
	c1.275-2.369,0.911-3.826,4.92-3.098c0.364,2.004-0.182,3.644-0.729,5.284c-0.364,0.911-1.275,2.733-0.911,4.009
	c2.915,1.093,2.915-1.093,6.559,1.275c0.182,3.644-1.64,7.835,1.093,10.021c2.186,1.64,2.369,0.182,4.373-0.182
	c2.186-0.364,1.822,0.911,3.826,1.275c1.093-1.458,0.729-0.547,1.458-2.186c1.275-2.915,1.64-1.64,4.737-3.462
	c0.364-0.182,0.547-0.364,0.911-0.547c0.364,0.729,0.729,1.458,1.093,2.186c2.186-2.733,2.551,0,5.102,0.729
	c1.093,0.364,2.004,0.364,2.551,0.364c1.822,0,2.004-0.911,4.737,0c0.364,0.182,0.729,0.182,1.093,0.364c0,0,0.182,0,0.182,0.182
	l0.182,0.182c0.364,0.547,0.547,0.911,0.911,1.458c1.822,1.64,3.644,3.462,5.284,5.102c3.462,1.275,3.462-1.275,7.288,2.551
	c1.64,1.64,0.911,1.458,1.822,3.462c0.182,0.364,0.364,0.547,0.547,1.093c0.364,0.911,0.729,1.822,1.093,2.733
	c1.822,2.369,4.191,0.911,6.742,3.28c1.458,1.458,0.364,0.911,3.462,1.458c4.92,0.729,2.915,0.364,6.742,3.098
	c1.458,1.093,1.822,0.364,3.098,1.275c1.822,2.551,1.458,5.466-0.182,7.653c-4.737,7.106-3.098,5.831-3.462,11.479
	c-0.182,3.28-1.093,9.839-4.009,10.568c-10.932,3.098-4.555,5.102-7.47,10.568c-0.911,1.458-1.458,2.004-2.004,3.098
	c-2.186,5.102-0.729,6.742-7.106,5.648c0.547,1.093,0.182,0.364,0.911,1.275c1.822,2.915,2.186,5.102-1.64,5.831
	c-3.28,0.547-1.822,0-2.186,3.644c-1.275,0.547-1.822,0-2.733,0.911c1.093,2.004,0,0.364,2.004,1.458
	c-0.364,1.093-0.547,2.186-0.911,3.462c-0.729,2.733-0.911,0.182-1.275,3.462c1.093,0.547,1.822,0.364,2.915,1.822
	c-0.182,1.093-1.093,3.826-1.458,5.466c1.64,2.369,2.915,4.92,6.377,5.284c0,2.004,0.364,1.822-1.275,2.186
	c-1.458,0.364-4.555-1.093-5.831-1.822c-2.186-1.275-4.373-2.733-5.831-5.102c-0.911-1.275-0.547-0.729-1.458-1.822
	c-1.64-2.186-0.911-3.098-1.458-4.555c-0.182-0.911-1.64-1.822-1.093-4.373c0.182-0.729,1.275-4.373-0.182-3.826
	s1.093,0.364-0.911,1.275c-0.547-1.275-0.911-3.28-1.093-4.92c-0.547-2.733-1.093-2.915-1.458-4.555
	c-0.729-3.826,0.911-4.373-0.911-10.75c-1.275-4.191-0.729-14.394-2.004-19.496c-0.182-0.911-0.364-1.458-0.729-2.004
	c-1.093-2.004-4.009-2.915-6.377-4.373c-0.182,0-0.182,0-0.182-0.182c-3.098-2.186-6.195-10.932-8.746-14.212
	c-1.093-1.64-1.822-0.911-2.369-3.28c-0.547-2.186,0.364-1.822,1.093-3.826c-3.826-7.106,4.92-6.924,3.098-15.488
	c-0.364-1.64-1.458-3.826-2.551-4.373c-1.822,0.729-0.911,1.275-1.822,2.733c-1.458-0.911-2.915-1.64-4.373-2.551
	c-4.555-4.373-2.004-1.275-3.28-4.009c-2.733-5.831-5.284-2.551-8.564-5.466c-1.458-1.275-1.64-3.098-4.009-2.733
	c-3.644,0.547-1.64,1.093-5.284-0.729c-3.098-1.458-6.559-3.28-8.746-5.284c-0.182-4.191,1.093-3.826-2.004-7.653L123.536,226.665z
	 M166.172,154.329c0.911-0.729,1.64-1.458,2.551-2.186v0.182c0.182,0.364,0.364,0.364,0.547,1.093
	c-2.186,0.547-2.186,0.911-3.098,1.093V154.329z M282.42,194.596c1.275,0.729,2.733,1.275,3.644,2.186
	c1.093,3.098-0.364,1.64,1.822,4.92c1.275,1.822,0.911,2.915,2.369,4.009c2.369-0.364,0.364,0.364,1.822-1.093
	c0.182-0.364,0.911-1.093,1.275-1.458c-0.729-1.093-1.275-1.275-2.004-2.551c2.733-3.644,3.826-1.458,4.555,0.911
	c1.64,6.559,4.373,4.737,6.559,4.373c2.186-0.364,0.364,0,2.369,0.547c1.822,0.547,0.911,0,2.369-0.364
	c4.555-1.093,1.093,7.653,0.547,8.746c-2.551,0.364-2.004-0.182-3.826-0.364c-3.644-0.364,0.182,2.186-8.382-0.547
	c-8.199-2.551-6.377-3.28-8.199,2.551c-1.822-0.182-1.822-0.547-3.462-1.093c-0.729-0.182-1.093-0.364-1.275-0.547l0,0
	c-0.729-0.182,0,0-1.458-1.458c-1.275-1.275-4.373-1.458-6.559-2.551c0-1.822,1.64-3.462-0.364-5.648
	c-0.729-0.182-9.839,0.182-11.297,0.547c-2.915,0.547-3.462,3.098-7.653,2.551c-2.186-0.364-1.458-0.182-2.004-1.458
	c0.729-0.729,0-0.364,1.275-0.729c0.547-0.182,0.729-0.182,1.093-0.182c6.742-1.093,3.28-4.373,7.47-7.653
	c3.462-2.733,0.729,0,2.733-3.28c2.369-0.182,2.004,0.911,4.009,0c1.64-0.911,1.093-1.64,3.462-1.64
	c2.004,2.004,1.64,3.28,5.102,4.92c1.275,0.547,2.186,0.911,3.098,2.186c1.64,2.186,0.182,1.458,0.911,3.098
	c0.182,0,0.364-0.182,0.547-0.182l0,0c1.822-0.911-0.911-1.093,2.004-3.826c-0.911-0.547-1.458-1.093-2.004-1.458l0,0
	c-2.369-1.275-1.458-0.182-4.373-3.826c-0.729-1.093-0.911-1.093-0.911-2.733c2.186-0.364,2.551,1.093,4.373,2.915
	c0.182,0.182,0.547,0.364,0.911,0.729l0,0L282.42,194.596z M328.883,288.251c-1.822,0.911-2.186,3.28-3.644,4.373
	c-1.64,1.458-3.644,0.729-4.191,3.462c-0.729,3.28,1.275,2.369-0.911,6.559c-0.911,1.64-0.911,5.648,0.364,6.742
	c3.826,3.644,5.831-5.648,6.742-8.382c0.729-2.004,1.275-4.373,2.004-6.377c0.729-2.004,1.64-3.826-0.182-6.559L328.883,288.251z
	 M322.688,191.135c0.364,4.191,2.733,5.831,4.555,7.835c-0.182,2.004-0.729,1.458-0.729,4.373c2.186,1.458,3.644,2.551,6.559,1.64
	c0.364-3.462-0.729-3.28-1.822-5.648c0.182-0.364,0.729-0.547,0.729-0.729c0.729-1.093,0.364,0.364,0.729-1.275
	c-2.004-0.729-5.284-2.733-5.648-5.466c0.911-0.729,0.729-0.364,1.458-0.729c1.64-1.093,0.364,0.547,1.275-1.275
	c-0.911-1.64-1.822-1.822-3.644-1.093c-0.911,0.364-3.098,2.004-3.644,2.369H322.688z M304.831,192.228
	c-1.275-1.822-1.275-2.733-3.826-2.915c-1.093,1.093-2.186,2.733-2.733,4.555c-0.911,2.551-0.182,0.729-0.182,3.644
	c0,0.182,0,0.182,0,0.364c0,1.64-0.364-0.364-0.182,1.275c2.004-0.364,0.547-0.364,2.004-0.911s5.831-1.822,7.106-1.458
	c2.915,0.729,5.466,3.098,8.928,0.729c-0.182-3.098-3.826-4.191-6.377-5.466c0.182-2.733,0.911-0.547,0.729-3.28
	c-0.911,0-1.458-0.182-2.186,0.182c-2.004,0.911-0.911,1.093-0.911,1.458c0,1.458,2.004-0.364,0,1.458
	c-0.547,0.547-1.458,0.547-2.186,0.547L304.831,192.228z M253.996,171.092c0,4.92,1.64,3.28,3.28,5.648
	c-0.729,2.004-0.911,0.364-1.64,2.551c-0.729,1.822,0.182,0.182-0.364,3.28c1.275,0,3.098-0.364,4.737-0.547
	c2.369-0.182,2.369-0.364,3.098-2.733c-1.275-1.64-2.551-3.28-4.009-4.737c-1.64-2.551,0-0.729-0.547-2.915
	c-0.364-0.729-0.729-1.458-1.093-2.369c-2.186,0.729-2.004,0.547-3.644,2.004L253.996,171.092z"/>
<g>
</g>
<g>
</g>
<g>
</g>
<g>
</g>
<g>
</g>
<g>
</g>
<g>
</g>
<g>
</g>
<g>
</g>
<g>
</g>
<g>
</g>
<g>
</g>
<g>
</g>
<g>
</g>
<g>
</g>
</svg>
