<svg id="Layer_1" data-name="Layer 1" xmlns="http://www.w3.org/2000/svg" xmlns:xlink="http://www.w3.org/1999/xlink" viewBox="0 0 1440 870.13"><defs><style>.cls-1,.cls-12{fill:none;}.cls-2,.cls-5{fill:#fff;}.cls-3{fill:#dfe1fc;fill-opacity:0.48;fill-rule:evenodd;}.cls-4{fill:#e3bd8f;}.cls-5{fill-opacity:0.81;}.cls-6{fill:#007aff;}.cls-7{fill:#78a55a;}.cls-8{clip-path:url(#clip-path);}.cls-9{fill:#bb271a;}.cls-10{fill:#4979d1;}.cls-11{fill:#ebc351;}.cls-12{stroke:#000;stroke-opacity:0.6;stroke-dasharray:2 2;}.cls-13{fill-opacity:0.65;}</style><clipPath id="clip-path" transform="translate(0 -40.85)"><rect class="cls-1" x="429" y="450" width="58" height="58"/></clipPath></defs><rect class="cls-2" width="1440" height="870.13"/><path class="cls-3" d="M830.85,672.32a254.53,254.53,0,0,1-322.08-7.67L565.93,615a180.1,180.1,0,0,0,206.63,6.69ZM533.5,583.52a180.19,180.19,0,0,1-22.47-189l-57.25-49.76a254.66,254.66,0,0,0,23.51,287.67Zm330.44,57.94A254.6,254.6,0,0,0,889,334.4l-57.24,49.77a180.12,180.12,0,0,1-24.54,207.94ZM674.5,217a253.8,253.8,0,0,1,186.88,81.74L805.1,347.66a180,180,0,0,0-269.64,8.42l-55.71-48.43A254,254,0,0,1,674.5,217Z" transform="translate(0 -40.85)"/><circle class="cls-4" cx="674" cy="430.15" r="167"/><path class="cls-5" d="M629.61,448.32h-7.26l0-3.78h6.23a7,7,0,0,0,2.68-.45,3.49,3.49,0,0,0,1.62-1.31,3.79,3.79,0,0,0,.56-2.09,4.23,4.23,0,0,0-.52-2.23,3,3,0,0,0-1.61-1.25,8.05,8.05,0,0,0-2.77-.41h-4.41V461h-5.37V432.56h9.78a18.26,18.26,0,0,1,4.32.47,9.05,9.05,0,0,1,3.24,1.41,6.29,6.29,0,0,1,2,2.4,7.76,7.76,0,0,1,.7,3.44,6.56,6.56,0,0,1-.82,3.24,6,6,0,0,1-2.48,2.38,9.73,9.73,0,0,1-4.22,1.06ZM629.38,461h-8.61l2.24-4.22h6.37a5.69,5.69,0,0,0,2.64-.53,3.53,3.53,0,0,0,1.56-1.44,4.33,4.33,0,0,0,.52-2.15,5.27,5.27,0,0,0-.46-2.3,3.17,3.17,0,0,0-1.45-1.51,5.44,5.44,0,0,0-2.58-.53H624l0-3.78h7.11l1.23,1.46a7.56,7.56,0,0,1,4,1,5.93,5.93,0,0,1,2.31,2.46,7.27,7.27,0,0,1,.74,3.24,8.38,8.38,0,0,1-1.19,4.59,7.16,7.16,0,0,1-3.44,2.79A14.08,14.08,0,0,1,629.38,461Zm24.83.39a11.35,11.35,0,0,1-4.32-.78,9.36,9.36,0,0,1-3.26-2.17,9.85,9.85,0,0,1-2-3.26,11.33,11.33,0,0,1-.7-4v-.78a13.26,13.26,0,0,1,.7-4.44,10.26,10.26,0,0,1,2-3.46,8.79,8.79,0,0,1,3.09-2.22,9.82,9.82,0,0,1,4-.78,9.7,9.7,0,0,1,4,.76,7.69,7.69,0,0,1,2.87,2.11,9.43,9.43,0,0,1,1.74,3.28,14.17,14.17,0,0,1,.58,4.2V452H646.22v-3.56H657.7v-.39a6.06,6.06,0,0,0-.47-2.25,3.56,3.56,0,0,0-1.32-1.64,4.06,4.06,0,0,0-2.33-.62,3.85,3.85,0,0,0-2,.51,4,4,0,0,0-1.41,1.4,7.36,7.36,0,0,0-.82,2.15,13.17,13.17,0,0,0-.27,2.78v.78a8.45,8.45,0,0,0,.35,2.46,6,6,0,0,0,1.08,2,5.09,5.09,0,0,0,1.72,1.29,5.59,5.59,0,0,0,2.3.45,6.66,6.66,0,0,0,2.93-.63,6.49,6.49,0,0,0,2.3-1.89l2.6,2.69a8.52,8.52,0,0,1-1.8,1.88,9,9,0,0,1-2.69,1.46A11,11,0,0,1,654.21,461.39Zm23-21.52v3.71H665.13v-3.71Zm-8.87-5.2h5.18v20.24a3.29,3.29,0,0,0,.25,1.44,1.32,1.32,0,0,0,.76.69,3.92,3.92,0,0,0,1.21.17,6.86,6.86,0,0,0,.94-.06l.72-.11,0,3.86a8.94,8.94,0,0,1-1.46.35,10,10,0,0,1-1.82.14,7.28,7.28,0,0,1-3-.59,4.35,4.35,0,0,1-2-1.93,7.54,7.54,0,0,1-.72-3.55Zm23.31,5.2v3.71H679.57v-3.71Zm-8.87-5.2H688v20.24a3.28,3.28,0,0,0,.26,1.44,1.32,1.32,0,0,0,.76.69,3.92,3.92,0,0,0,1.21.17,6.86,6.86,0,0,0,.94-.06l.72-.11,0,3.86a8.94,8.94,0,0,1-1.46.35,10,10,0,0,1-1.82.14,7.25,7.25,0,0,1-3.05-.59,4.31,4.31,0,0,1-2-1.93,7.54,7.54,0,0,1-.72-3.55Zm22.79,26.72a11.34,11.34,0,0,1-4.31-.78,9.36,9.36,0,0,1-3.26-2.17,9.85,9.85,0,0,1-2-3.26,11.33,11.33,0,0,1-.71-4v-.78a13.25,13.25,0,0,1,.71-4.44,10.26,10.26,0,0,1,2-3.46,8.84,8.84,0,0,1,3.08-2.22,9.87,9.87,0,0,1,4-.78,9.62,9.62,0,0,1,4,.76,7.53,7.53,0,0,1,2.87,2.11,9.11,9.11,0,0,1,1.74,3.28,14.16,14.16,0,0,1,.59,4.2V452H697.62v-3.56H709.1v-.39a6.06,6.06,0,0,0-.47-2.25,3.58,3.58,0,0,0-1.33-1.64,4,4,0,0,0-2.32-.62,3.85,3.85,0,0,0-2,.51,4,4,0,0,0-1.41,1.4,7.09,7.09,0,0,0-.82,2.15,13.17,13.17,0,0,0-.27,2.78v.78a8.45,8.45,0,0,0,.35,2.46,6,6,0,0,0,1.08,2,5.15,5.15,0,0,0,1.71,1.29,5.67,5.67,0,0,0,2.31.45,6.69,6.69,0,0,0,2.93-.63,6.57,6.57,0,0,0,2.3-1.89l2.6,2.69a8.52,8.52,0,0,1-1.8,1.88,9,9,0,0,1-2.69,1.46A11,11,0,0,1,705.6,461.39Zm18.19-17.21V461h-5.15V439.87h4.88Zm6.43-4.45-.08,4.81a6.56,6.56,0,0,0-1-.12c-.35,0-.68,0-1,0a6,6,0,0,0-2.09.33,4,4,0,0,0-1.51.92,3.94,3.94,0,0,0-.89,1.48,6.51,6.51,0,0,0-.36,2l-1.11-.14a16.27,16.27,0,0,1,.41-3.73,10.63,10.63,0,0,1,1.19-3,5.66,5.66,0,0,1,2-2,5.15,5.15,0,0,1,2.73-.72,6.06,6.06,0,0,1,.92.07A3.18,3.18,0,0,1,730.22,439.73Z" transform="translate(0 -40.85)"/><path class="cls-6" d="M604.35,498.64h5.38a11.09,11.09,0,0,1-1.58,5.06,9.55,9.55,0,0,1-3.81,3.44,12.91,12.91,0,0,1-5.92,1.25,11.89,11.89,0,0,1-4.83-.94,10.38,10.38,0,0,1-3.65-2.71,12.47,12.47,0,0,1-2.3-4.26,18.12,18.12,0,0,1-.8-5.6v-2.17a17.88,17.88,0,0,1,.82-5.61,12.1,12.1,0,0,1,2.34-4.26,10.58,10.58,0,0,1,3.69-2.73,11.85,11.85,0,0,1,4.84-1,12.29,12.29,0,0,1,5.88,1.29,9.3,9.3,0,0,1,3.74,3.5,12.24,12.24,0,0,1,1.6,5.11h-5.37a8.46,8.46,0,0,0-.79-3,4.06,4.06,0,0,0-1.83-1.9,6.75,6.75,0,0,0-3.23-.66,6,6,0,0,0-2.75.59,5,5,0,0,0-1.95,1.75,8.4,8.4,0,0,0-1.17,2.89,18.22,18.22,0,0,0-.39,4v2.21a19,19,0,0,0,.35,3.88,8.74,8.74,0,0,0,1.09,2.91,5,5,0,0,0,1.91,1.82,6,6,0,0,0,2.8.62,7.18,7.18,0,0,0,3.2-.62,4.28,4.28,0,0,0,1.9-1.84A7.7,7.7,0,0,0,604.35,498.64Zm9.23-1v-.41a13.29,13.29,0,0,1,.66-4.28,9.92,9.92,0,0,1,1.94-3.42,8.64,8.64,0,0,1,3.1-2.24,11.17,11.17,0,0,1,8.4,0,8.55,8.55,0,0,1,3.12,2.24,9.92,9.92,0,0,1,1.94,3.42,13.29,13.29,0,0,1,.66,4.28v.41a13.47,13.47,0,0,1-.66,4.28,10,10,0,0,1-1.94,3.41,8.55,8.55,0,0,1-3.1,2.25,11.43,11.43,0,0,1-8.4,0,8.46,8.46,0,0,1-3.12-2.25,10,10,0,0,1-1.94-3.41A13.47,13.47,0,0,1,613.58,497.65Zm5.15-.41v.41a12,12,0,0,0,.28,2.6,7,7,0,0,0,.84,2.13,4.11,4.11,0,0,0,1.46,1.44,4.43,4.43,0,0,0,2.19.51,4.3,4.3,0,0,0,2.15-.51,4.11,4.11,0,0,0,1.46-1.44,6.75,6.75,0,0,0,.86-2.13,11.39,11.39,0,0,0,.28-2.6v-.41a11,11,0,0,0-.28-2.56,6.57,6.57,0,0,0-.86-2.13,4.23,4.23,0,0,0-7.26,0,6.78,6.78,0,0,0-.84,2.13A11.54,11.54,0,0,0,618.73,497.24ZM643.62,478v30h-5.17V478ZM655,478v30h-5.17V478Zm15.42,30.39a11.35,11.35,0,0,1-4.32-.78,9.36,9.36,0,0,1-3.26-2.17,9.85,9.85,0,0,1-2.05-3.26,11.33,11.33,0,0,1-.71-4v-.78a13.25,13.25,0,0,1,.71-4.44,10.26,10.26,0,0,1,2-3.46,8.79,8.79,0,0,1,3.09-2.22,9.82,9.82,0,0,1,4-.78,9.62,9.62,0,0,1,4,.76,7.65,7.65,0,0,1,2.88,2.11,9.25,9.25,0,0,1,1.73,3.28,14.16,14.16,0,0,1,.59,4.2V499H662.44v-3.56h11.48v-.39a6.06,6.06,0,0,0-.47-2.25,3.58,3.58,0,0,0-1.33-1.64,4,4,0,0,0-2.32-.62,3.85,3.85,0,0,0-2,.51,4,4,0,0,0-1.41,1.4,7.09,7.09,0,0,0-.82,2.15,13.17,13.17,0,0,0-.27,2.78v.78a8.45,8.45,0,0,0,.35,2.46,6,6,0,0,0,1.08,2,5.15,5.15,0,0,0,1.71,1.29,5.67,5.67,0,0,0,2.31.45,6.66,6.66,0,0,0,2.93-.63,6.57,6.57,0,0,0,2.3-1.89l2.6,2.69a8.52,8.52,0,0,1-1.8,1.88,9,9,0,0,1-2.69,1.46A11,11,0,0,1,670.43,508.39Zm21.7-4.06a4.37,4.37,0,0,0,2-.43,3.42,3.42,0,0,0,1.37-1.21,3.47,3.47,0,0,0,.57-1.82h4.86a6.89,6.89,0,0,1-1.21,3.85,8.29,8.29,0,0,1-3.13,2.69,9.35,9.35,0,0,1-4.33,1,10.21,10.21,0,0,1-4.26-.82,8.43,8.43,0,0,1-3-2.28,10.35,10.35,0,0,1-1.8-3.4,14.24,14.24,0,0,1-.58-4.14v-.63a14.24,14.24,0,0,1,.58-4.14,10.35,10.35,0,0,1,1.8-3.4,8.31,8.31,0,0,1,3-2.28,10.15,10.15,0,0,1,4.24-.82,9.74,9.74,0,0,1,4.49,1,7.42,7.42,0,0,1,3.05,2.82,8.31,8.31,0,0,1,1.15,4.27H696a4.79,4.79,0,0,0-.51-2,3.69,3.69,0,0,0-1.33-1.44,3.76,3.76,0,0,0-2.09-.55,4,4,0,0,0-2.19.55,3.78,3.78,0,0,0-1.35,1.5,7.45,7.45,0,0,0-.66,2.11,15.67,15.67,0,0,0-.17,2.42v.63a16.2,16.2,0,0,0,.17,2.46,7.56,7.56,0,0,0,.66,2.11,3.87,3.87,0,0,0,1.35,1.46A4.12,4.12,0,0,0,692.13,504.33Zm23.19-17.46v3.71H703.21v-3.71Zm-8.87-5.2h5.17v20.24a3.28,3.28,0,0,0,.26,1.44,1.32,1.32,0,0,0,.76.69,3.92,3.92,0,0,0,1.21.17,6.86,6.86,0,0,0,.94-.06l.72-.11,0,3.86a8.94,8.94,0,0,1-1.46.35,10,10,0,0,1-1.82.14,7.28,7.28,0,0,1-3-.59,4.31,4.31,0,0,1-2-1.93,7.54,7.54,0,0,1-.72-3.55Zm22.8,26.72a11.39,11.39,0,0,1-4.32-.78,9.36,9.36,0,0,1-3.26-2.17,9.85,9.85,0,0,1-2-3.26,11.33,11.33,0,0,1-.71-4v-.78a13.25,13.25,0,0,1,.71-4.44,10.26,10.26,0,0,1,2-3.46,8.79,8.79,0,0,1,3.09-2.22,9.82,9.82,0,0,1,4-.78,9.62,9.62,0,0,1,4,.76,7.65,7.65,0,0,1,2.88,2.11,9.25,9.25,0,0,1,1.73,3.28,14.16,14.16,0,0,1,.59,4.2V499H721.26v-3.56h11.48v-.39a6.06,6.06,0,0,0-.47-2.25,3.62,3.62,0,0,0-1.32-1.64,4.06,4.06,0,0,0-2.33-.62,3.85,3.85,0,0,0-2,.51,4,4,0,0,0-1.41,1.4,7.36,7.36,0,0,0-.82,2.15,13.17,13.17,0,0,0-.27,2.78v.78a8.45,8.45,0,0,0,.35,2.46,6.14,6.14,0,0,0,1.07,2,5.3,5.3,0,0,0,1.72,1.29,5.67,5.67,0,0,0,2.31.45,6.66,6.66,0,0,0,2.93-.63,6.57,6.57,0,0,0,2.3-1.89l2.6,2.69a8.52,8.52,0,0,1-1.8,1.88,9,9,0,0,1-2.69,1.46A11,11,0,0,1,729.25,508.39Zm25.7-4.88V478h5.2v30h-4.69Zm-13.57-5.82v-.41a16.26,16.26,0,0,1,.55-4.4,10.16,10.16,0,0,1,1.64-3.42,7.47,7.47,0,0,1,2.59-2.2,7.67,7.67,0,0,1,3.5-.78,6.81,6.81,0,0,1,3.3.76,7,7,0,0,1,2.42,2.17,11.29,11.29,0,0,1,1.62,3.34,22.18,22.18,0,0,1,.88,4.21v1.12a21.37,21.37,0,0,1-.88,4.12,11.55,11.55,0,0,1-1.62,3.28,7.09,7.09,0,0,1-2.42,2.15,7,7,0,0,1-3.34.76,7.26,7.26,0,0,1-6.07-3.05,10.45,10.45,0,0,1-1.62-3.39A15.63,15.63,0,0,1,741.38,497.69Zm5.17-.41v.41a13,13,0,0,0,.24,2.56,7.13,7.13,0,0,0,.76,2.11,4,4,0,0,0,1.35,1.4,3.85,3.85,0,0,0,2,.51,4.36,4.36,0,0,0,2.5-.66,4.55,4.55,0,0,0,1.54-1.86,8.52,8.52,0,0,0,.71-2.68V496a9.08,9.08,0,0,0-.41-2.17,5.21,5.21,0,0,0-.9-1.72A4,4,0,0,0,753,491a4.39,4.39,0,0,0-2-.41,3.66,3.66,0,0,0-2,.53,3.82,3.82,0,0,0-1.37,1.42,7.24,7.24,0,0,0-.78,2.13A13.5,13.5,0,0,0,746.55,497.28Z" transform="translate(0 -40.85)"/><path class="cls-7" d="M673.5,223,648,234.27v16.91c0,15.64,10.88,30.27,25.5,33.82,14.62-3.55,25.5-18.18,25.5-33.82V234.27Zm0,31h19.83c-1.5,11.61-9.29,22-19.83,25.2V254H653.67V237.94l19.83-8.77Z" transform="translate(0 -40.85)"/><g class="cls-8"><path class="cls-9" d="M470.08,498.33V476.58h-4.83V459.67h16.92l-4.84,12.08h4.84Zm-4.83-16.91v16.91H438.67a4.85,4.85,0,0,1-4.84-4.83v-7.25a4.85,4.85,0,0,1,4.84-4.83Zm-21.15,6.64h-3.62v3.63h3.62Zm16.32-28.39v16.91H438.67a4.85,4.85,0,0,1-4.84-4.83V464.5a4.85,4.85,0,0,1,4.84-4.83Zm-16.32,6.64h-3.62v3.63h3.62Z" transform="translate(0 -40.85)"/></g><path class="cls-10" d="M921.67,476.33a5.35,5.35,0,0,1-5.34,5.34,4.66,4.66,0,0,1-1.36-.19L905.48,491a4.75,4.75,0,0,1,.19,1.38,5.34,5.34,0,1,1-10.67,0,4.43,4.43,0,0,1,.19-1.38l-6.8-6.8a5.46,5.46,0,0,1-2.78,0l-12.13,12.16a4.61,4.61,0,0,1,.19,1.36,5.34,5.34,0,1,1-5.34-5.34,4.61,4.61,0,0,1,1.36.19l12.16-12.13a4.86,4.86,0,0,1-.18-1.39,5.33,5.33,0,0,1,10.66,0,4.86,4.86,0,0,1-.18,1.39l6.8,6.8a4.43,4.43,0,0,1,1.38-.19,4.54,4.54,0,0,1,1.39.19l9.47-9.5a4.3,4.3,0,0,1-.19-1.36,5.34,5.34,0,0,1,10.67,0Z" transform="translate(0 -40.85)"/><path class="cls-11" d="M683.88,660h-20.5l-15.33,15.3,0,30.6a5.13,5.13,0,0,0,5.12,5.1h30.76a5.13,5.13,0,0,0,5.12-5.1V665.1A5.13,5.13,0,0,0,683.88,660ZM668.5,675.3h-5.12V665.1h5.12Zm7.69,0h-5.13V665.1h5.13Zm7.69,0h-5.13V665.1h5.13Z" transform="translate(0 -40.85)"/><path class="cls-12" d="M929,471h116" transform="translate(0 -40.85)"/><path class="cls-12" d="M301,471H417" transform="translate(0 -40.85)"/><path class="cls-12" d="M673,842V726" transform="translate(0 -40.85)"/><path class="cls-12" d="M673,217V101" transform="translate(0 -40.85)"/><path class="cls-13" d="M354.59,70.41V96h-4.83V70.41ZM364.92,81V96h-4.65V77h4.36Zm-.74,4.76h-1.37a12.63,12.63,0,0,1,.56-3.76,8.81,8.81,0,0,1,1.53-2.9,6.85,6.85,0,0,1,2.37-1.86,7.08,7.08,0,0,1,3.06-.65,7.46,7.46,0,0,1,2.48.39,4.53,4.53,0,0,1,1.9,1.23,5.43,5.43,0,0,1,1.23,2.21,11,11,0,0,1,.44,3.34V96H371.7V83.77a4.52,4.52,0,0,0-.39-2.06,2.14,2.14,0,0,0-1.09-1.07,4.23,4.23,0,0,0-1.74-.32,3.92,3.92,0,0,0-1.88.44,3.84,3.84,0,0,0-1.33,1.18,5.81,5.81,0,0,0-.81,1.74A7.55,7.55,0,0,0,364.18,85.8ZM390.37,77v3.34h-10.9V77Zm-8-4.68h4.66V90.52a3,3,0,0,0,.23,1.3,1.16,1.16,0,0,0,.68.61,3.25,3.25,0,0,0,1.09.16,7.34,7.34,0,0,0,.85,0l.65-.11,0,3.48a8.52,8.52,0,0,1-1.32.32,10.08,10.08,0,0,1-1.64.12,6.5,6.5,0,0,1-2.74-.53A3.9,3.9,0,0,1,383,94.08a6.78,6.78,0,0,1-.65-3.2Zm20.52,24a10.21,10.21,0,0,1-3.89-.7,8.65,8.65,0,0,1-2.93-2,9.05,9.05,0,0,1-1.85-2.94,10.24,10.24,0,0,1-.63-3.62v-.7a11.93,11.93,0,0,1,.63-4,9.08,9.08,0,0,1,1.8-3.11,7.81,7.81,0,0,1,2.77-2,9.58,9.58,0,0,1,7.14,0,6.94,6.94,0,0,1,2.58,1.9,8.15,8.15,0,0,1,1.57,3,12.74,12.74,0,0,1,.53,3.78v2H395.72V84.7h10.33v-.35a5.53,5.53,0,0,0-.42-2,3.14,3.14,0,0,0-1.19-1.47,3.56,3.56,0,0,0-2.09-.56,3.5,3.5,0,0,0-1.81.45A3.67,3.67,0,0,0,399.27,82a6.37,6.37,0,0,0-.74,1.93,12,12,0,0,0-.24,2.5v.7a7.49,7.49,0,0,0,.31,2.22,5.41,5.41,0,0,0,1,1.77,4.68,4.68,0,0,0,1.55,1.16,5.06,5.06,0,0,0,2.07.41,6,6,0,0,0,2.64-.57,5.78,5.78,0,0,0,2.07-1.7l2.34,2.42a7.74,7.74,0,0,1-1.62,1.69,8.35,8.35,0,0,1-2.42,1.32A10,10,0,0,1,402.91,96.35ZM426.73,77H431V95.42a8.1,8.1,0,0,1-1.12,4.38,7.07,7.07,0,0,1-3.12,2.74,11,11,0,0,1-7.13.63,9.87,9.87,0,0,1-2.55-1,6.42,6.42,0,0,1-2-1.74l2.09-2.74a6.49,6.49,0,0,0,2.14,1.67,6,6,0,0,0,2.59.58,5.05,5.05,0,0,0,2.39-.53,3.49,3.49,0,0,0,1.53-1.51,5,5,0,0,0,.54-2.43V81.32Zm-12.85,9.74v-.37a14,14,0,0,1,.53-4,9.18,9.18,0,0,1,1.51-3.07,7,7,0,0,1,2.41-2,7.1,7.1,0,0,1,3.2-.7,6.71,6.71,0,0,1,3.16.68,5.85,5.85,0,0,1,2.15,2,9.82,9.82,0,0,1,1.33,3,26,26,0,0,1,.76,3.8v1a20.72,20.72,0,0,1-.79,3.71,10.62,10.62,0,0,1-1.41,3,6.22,6.22,0,0,1-2.18,1.94,6.57,6.57,0,0,1-3.06.68,6.84,6.84,0,0,1-3.16-.72,7.07,7.07,0,0,1-2.41-2,9.52,9.52,0,0,1-1.51-3.06A13.33,13.33,0,0,1,413.88,86.72Zm4.64-.37v.37a9.89,9.89,0,0,0,.25,2.3,6.09,6.09,0,0,0,.75,1.9,3.82,3.82,0,0,0,1.29,1.27,3.58,3.58,0,0,0,1.84.45A4.24,4.24,0,0,0,425,92a3.79,3.79,0,0,0,1.4-1.66,7.84,7.84,0,0,0,.64-2.41V85.21a8.22,8.22,0,0,0-.39-1.95,4.82,4.82,0,0,0-.79-1.55,3.56,3.56,0,0,0-1.3-1,4.38,4.38,0,0,0-1.88-.37,3.58,3.58,0,0,0-1.85.47,3.82,3.82,0,0,0-1.3,1.29,6.42,6.42,0,0,0-.77,1.91A10.42,10.42,0,0,0,418.52,86.35Zm22.15-5.48V96H436V77h4.4Zm5.79-4-.07,4.32a6.92,6.92,0,0,0-.88-.1c-.32,0-.62,0-.9,0a5.41,5.41,0,0,0-1.88.3,3.42,3.42,0,0,0-1.35.83,3.5,3.5,0,0,0-.81,1.33,5.57,5.57,0,0,0-.32,1.76l-1-.12a14.24,14.24,0,0,1,.37-3.36,9.3,9.3,0,0,1,1.07-2.71,5.2,5.2,0,0,1,1.76-1.79,4.66,4.66,0,0,1,2.46-.65,5,5,0,0,1,.83.07A2.76,2.76,0,0,1,446.46,76.86ZM459.79,92V83.19a3.85,3.85,0,0,0-.34-1.67,2.34,2.34,0,0,0-1-1.09,3.5,3.5,0,0,0-1.74-.39,3.76,3.76,0,0,0-1.63.32,2.46,2.46,0,0,0-1.06.89,2.38,2.38,0,0,0-.37,1.3H449a4.62,4.62,0,0,1,.57-2.23,6,6,0,0,1,1.6-1.9,8,8,0,0,1,2.51-1.32,11,11,0,0,1,3.3-.47,9.51,9.51,0,0,1,3.85.74,5.84,5.84,0,0,1,2.68,2.18,6.45,6.45,0,0,1,1,3.67v8.3a14.23,14.23,0,0,0,.18,2.44,6.59,6.59,0,0,0,.56,1.74V96h-4.73a7.22,7.22,0,0,1-.51-1.83A14,14,0,0,1,459.79,92Zm.64-7.54,0,2.76h-2.93a7.35,7.35,0,0,0-1.92.22,3.53,3.53,0,0,0-1.35.64,2.52,2.52,0,0,0-.8,1,3.08,3.08,0,0,0-.26,1.28,2.55,2.55,0,0,0,.32,1.27,2.43,2.43,0,0,0,1,.9,3.25,3.25,0,0,0,1.47.31,4.46,4.46,0,0,0,2.15-.49,4.21,4.21,0,0,0,1.42-1.23,2.73,2.73,0,0,0,.55-1.37l1.33,2a7.59,7.59,0,0,1-.74,1.53,6.57,6.57,0,0,1-1.26,1.51,6.34,6.34,0,0,1-4.4,1.62,7.09,7.09,0,0,1-3.3-.74,5.8,5.8,0,0,1-2.3-2,5.13,5.13,0,0,1-.85-2.92,6.16,6.16,0,0,1,.56-2.67,5.22,5.22,0,0,1,1.68-2,7.67,7.67,0,0,1,2.74-1.21,15.38,15.38,0,0,1,3.78-.42ZM478.54,77v3.34H467.65V77Zm-8-4.68h4.66V90.52a3,3,0,0,0,.23,1.3,1.15,1.15,0,0,0,.69.61,3.17,3.17,0,0,0,1.09.16,7.3,7.3,0,0,0,.84,0l.65-.11,0,3.48a8.52,8.52,0,0,1-1.32.32,10.08,10.08,0,0,1-1.64.12,6.54,6.54,0,0,1-2.74-.53,4,4,0,0,1-1.83-1.74,6.78,6.78,0,0,1-.65-3.2Zm20.52,24a10.16,10.16,0,0,1-3.88-.7,8.59,8.59,0,0,1-2.94-2,8.86,8.86,0,0,1-1.84-2.94,10,10,0,0,1-.64-3.62v-.7a11.68,11.68,0,0,1,.64-4,8.91,8.91,0,0,1,1.79-3.11,7.9,7.9,0,0,1,2.77-2,9.58,9.58,0,0,1,7.14,0,7.06,7.06,0,0,1,2.59,1.9,8.29,8.29,0,0,1,1.56,3A12.74,12.74,0,0,1,498.8,86v2H483.89V84.7h10.34v-.35a5.74,5.74,0,0,0-.43-2,3.14,3.14,0,0,0-1.19-1.47,4,4,0,0,0-3.9-.11A3.67,3.67,0,0,0,487.44,82a6.37,6.37,0,0,0-.74,1.93,12,12,0,0,0-.24,2.5v.7a7.49,7.49,0,0,0,.31,2.22,5.41,5.41,0,0,0,1,1.77,4.68,4.68,0,0,0,1.55,1.16,5.06,5.06,0,0,0,2.07.41,6,6,0,0,0,2.64-.57,5.7,5.7,0,0,0,2.07-1.7l2.34,2.42a7.74,7.74,0,0,1-1.62,1.69,8.1,8.1,0,0,1-2.42,1.32A10,10,0,0,1,491.08,96.35ZM518,91.43,522.13,77h3l-.87,5L520,96h-2.54ZM515.66,77l3.13,14.48.28,4.54h-2.93l-5-19ZM529,91.25,532,77h4.5l-5,19h-2.93ZM525.54,77l4.13,14.31.55,4.71h-2.55l-4.24-14-.86-5Zm19.53,0V96h-4.65V77Zm-5-5a2.31,2.31,0,0,1,.7-1.73,2.73,2.73,0,0,1,1.94-.68,2.65,2.65,0,0,1,1.91.68,2.29,2.29,0,0,1,.72,1.73,2.25,2.25,0,0,1-.72,1.7,2.62,2.62,0,0,1-1.91.69,2.69,2.69,0,0,1-1.94-.69A2.27,2.27,0,0,1,540.1,72Zm19.3,5v3.34H548.51V77Zm-8-4.68h4.66V90.52a3,3,0,0,0,.23,1.3,1.16,1.16,0,0,0,.68.61,3.27,3.27,0,0,0,1.1.16,7.3,7.3,0,0,0,.84,0l.65-.11,0,3.48a8.52,8.52,0,0,1-1.32.32,10.08,10.08,0,0,1-1.64.12,6.54,6.54,0,0,1-2.74-.53,4,4,0,0,1-1.83-1.74,6.78,6.78,0,0,1-.65-3.2ZM568,69V96h-4.66V69Zm-.74,16.8h-1.37a12.1,12.1,0,0,1,.53-3.65,9.14,9.14,0,0,1,1.49-2.9,7,7,0,0,1,2.3-1.94,6.63,6.63,0,0,1,3-.68,7.58,7.58,0,0,1,2.55.4,4.92,4.92,0,0,1,2,1.25A5.7,5.7,0,0,1,579,80.53a10.52,10.52,0,0,1,.46,3.34V96h-4.68V83.84a4.63,4.63,0,0,0-.38-2.08,2.39,2.39,0,0,0-1.11-1.11,4.09,4.09,0,0,0-1.74-.33,4,4,0,0,0-1.93.44,3.62,3.62,0,0,0-1.34,1.18,5.52,5.52,0,0,0-.77,1.74A8.39,8.39,0,0,0,567.21,85.8Zm32.63,8.09L604.94,77h5l-7.63,21.9a16.08,16.08,0,0,1-.69,1.53,6.63,6.63,0,0,1-1.09,1.57,5.37,5.37,0,0,1-1.72,1.23,6,6,0,0,1-2.48.47,6.19,6.19,0,0,1-1.12-.09,8.93,8.93,0,0,1-1-.23V99.88a2.49,2.49,0,0,0,.4,0l.42,0a4.78,4.78,0,0,0,1.69-.25,2.14,2.14,0,0,0,1.07-.75,4.12,4.12,0,0,0,.71-1.34ZM597.33,77l4.31,14,.75,4.9-3.2.58L592.32,77ZM612,86.68v-.37a11.91,11.91,0,0,1,.6-3.85,8.83,8.83,0,0,1,1.74-3.07,7.77,7.77,0,0,1,2.79-2,9.17,9.17,0,0,1,3.76-.74,9.27,9.27,0,0,1,3.8.74,7.76,7.76,0,0,1,2.81,2,9,9,0,0,1,1.74,3.07,11.91,11.91,0,0,1,.6,3.85v.37a11.91,11.91,0,0,1-.6,3.85,9.13,9.13,0,0,1-1.74,3.08,7.77,7.77,0,0,1-2.79,2,10.28,10.28,0,0,1-7.56,0,7.76,7.76,0,0,1-2.81-2,9,9,0,0,1-1.74-3.08A11.91,11.91,0,0,1,612,86.68Zm4.64-.37v.37a10.85,10.85,0,0,0,.24,2.34,6.37,6.37,0,0,0,.76,1.92,3.82,3.82,0,0,0,1.32,1.3,4.07,4.07,0,0,0,2,.46,3.91,3.91,0,0,0,1.93-.46,3.82,3.82,0,0,0,1.32-1.3,5.9,5.9,0,0,0,.77-1.92,10.24,10.24,0,0,0,.25-2.34v-.37a10,10,0,0,0-.25-2.3,5.93,5.93,0,0,0-.77-1.91,3.81,3.81,0,0,0-6.54,0,6.41,6.41,0,0,0-.76,1.91A10.54,10.54,0,0,0,616.6,86.31Zm28.8,5.17V77h4.67V96h-4.39Zm.59-3.94,1.44,0A14,14,0,0,1,647,91a8.14,8.14,0,0,1-1.31,2.82,6.18,6.18,0,0,1-2.24,1.84,7.37,7.37,0,0,1-3.2.65A8,8,0,0,1,637.7,96a5.15,5.15,0,0,1-2-1.24,5.87,5.87,0,0,1-1.28-2.2,10.07,10.07,0,0,1-.46-3.25V77h4.64V89.3a5,5,0,0,0,.21,1.58,2.94,2.94,0,0,0,.62,1,2.35,2.35,0,0,0,.93.56,4,4,0,0,0,1.16.16,4.54,4.54,0,0,0,2.65-.67,3.7,3.7,0,0,0,1.41-1.82A7.64,7.64,0,0,0,646,87.54Zm13.73-6.67V96h-4.63V77h4.39Zm5.79-4-.07,4.32a6.92,6.92,0,0,0-.88-.1c-.32,0-.62,0-.9,0a5.41,5.41,0,0,0-1.88.3,3.42,3.42,0,0,0-1.35.83,3.63,3.63,0,0,0-.81,1.33,5.87,5.87,0,0,0-.32,1.76l-1-.12a14.24,14.24,0,0,1,.37-3.36,9.59,9.59,0,0,1,1.07-2.71,5.2,5.2,0,0,1,1.76-1.79,4.71,4.71,0,0,1,2.46-.65,5,5,0,0,1,.83.07A2.76,2.76,0,0,1,665.51,76.86ZM684.9,96h-4.67V75.22a7.21,7.21,0,0,1,.82-3.6,5.3,5.3,0,0,1,2.36-2.23,8,8,0,0,1,3.6-.76,9,9,0,0,1,1.3.09,12.55,12.55,0,0,1,1.25.24l-.09,3.54a3.84,3.84,0,0,0-.73-.12,7.64,7.64,0,0,0-.86,0,3.6,3.6,0,0,0-1.62.33,2.27,2.27,0,0,0-1,1,3.33,3.33,0,0,0-.34,1.56Zm3.85-19v3.34H677.36V77ZM703,92V83.19a3.85,3.85,0,0,0-.34-1.67,2.34,2.34,0,0,0-1-1.09A3.5,3.5,0,0,0,699.9,80a3.8,3.8,0,0,0-1.63.32,2.46,2.46,0,0,0-1.06.89,2.38,2.38,0,0,0-.37,1.3h-4.66a4.62,4.62,0,0,1,.57-2.23,6,6,0,0,1,1.6-1.9,8,8,0,0,1,2.51-1.32,11,11,0,0,1,3.31-.47,9.58,9.58,0,0,1,3.85.74,5.86,5.86,0,0,1,2.67,2.18,6.45,6.45,0,0,1,1,3.67v8.3a14.23,14.23,0,0,0,.18,2.44,6.59,6.59,0,0,0,.56,1.74V96h-4.73a7.22,7.22,0,0,1-.51-1.83A14,14,0,0,1,703,92Zm.65-7.54,0,2.76h-2.93a7.35,7.35,0,0,0-1.92.22,3.53,3.53,0,0,0-1.35.64,2.52,2.52,0,0,0-.8,1,3.08,3.08,0,0,0-.26,1.28,2.55,2.55,0,0,0,.32,1.27,2.43,2.43,0,0,0,1,.9,3.25,3.25,0,0,0,1.47.31,4.46,4.46,0,0,0,2.15-.49,4.21,4.21,0,0,0,1.42-1.23,2.73,2.73,0,0,0,.55-1.37l1.33,2a8.08,8.08,0,0,1-.73,1.53,6.89,6.89,0,0,1-1.27,1.51,6.34,6.34,0,0,1-4.4,1.62,7.09,7.09,0,0,1-3.3-.74,5.8,5.8,0,0,1-2.3-2,5.13,5.13,0,0,1-.85-2.92,6,6,0,0,1,.57-2.67,5.11,5.11,0,0,1,1.67-2,7.67,7.67,0,0,1,2.74-1.21,15.38,15.38,0,0,1,3.78-.42Zm15.13,8.06L723.21,77h4.86l-6.53,19h-2.95ZM715.55,77,720,92.52l.16,3.48h-3l-6.54-19Zm14.75,9.7v-.37a11.91,11.91,0,0,1,.6-3.85,9,9,0,0,1,1.74-3.07,7.77,7.77,0,0,1,2.79-2,10,10,0,0,1,7.56,0,7.68,7.68,0,0,1,2.81,2,8.85,8.85,0,0,1,1.75,3.07,12.19,12.19,0,0,1,.59,3.85v.37a12.19,12.19,0,0,1-.59,3.85,9,9,0,0,1-1.75,3.08,7.77,7.77,0,0,1-2.79,2,9.37,9.37,0,0,1-3.78.72,9.51,9.51,0,0,1-3.78-.72,7.76,7.76,0,0,1-2.81-2,9.13,9.13,0,0,1-1.74-3.08A11.91,11.91,0,0,1,730.3,86.68Zm4.64-.37v.37a10.24,10.24,0,0,0,.25,2.34,6.11,6.11,0,0,0,.75,1.92,3.82,3.82,0,0,0,1.32,1.3,4.07,4.07,0,0,0,2,.46,3.88,3.88,0,0,0,1.93-.46,3.82,3.82,0,0,0,1.32-1.3,5.91,5.91,0,0,0,.78-1.92,10.85,10.85,0,0,0,.24-2.34v-.37a10.54,10.54,0,0,0-.24-2.3,6,6,0,0,0-.78-1.91,3.58,3.58,0,0,0-1.33-1.32,4.11,4.11,0,0,0-3.89,0,3.63,3.63,0,0,0-1.32,1.32,6.15,6.15,0,0,0-.75,1.91A10,10,0,0,0,734.94,86.31Zm28.8,5.17V77h4.67V96H764Zm.6-3.94,1.44,0a14,14,0,0,1-.42,3.53A8,8,0,0,1,764,93.86a6.1,6.1,0,0,1-2.24,1.84,7.32,7.32,0,0,1-3.19.65A8,8,0,0,1,756,96a5.12,5.12,0,0,1-2-1.24,5.88,5.88,0,0,1-1.29-2.2,10.35,10.35,0,0,1-.46-3.25V77h4.65V89.3a5,5,0,0,0,.21,1.58,2.78,2.78,0,0,0,.61,1,2.35,2.35,0,0,0,.93.56,4,4,0,0,0,1.16.16,4.59,4.59,0,0,0,2.66-.67,3.73,3.73,0,0,0,1.4-1.82A7.4,7.4,0,0,0,764.34,87.54Zm13.73-6.67V96h-4.64V77h4.39Zm5.78-4-.07,4.32a6.92,6.92,0,0,0-.88-.1c-.31,0-.61,0-.89,0a5.43,5.43,0,0,0-1.89.3,3.57,3.57,0,0,0-1.35.83A3.63,3.63,0,0,0,778,83.5a5.88,5.88,0,0,0-.31,1.76l-1-.12a14.8,14.8,0,0,1,.36-3.36,9.6,9.6,0,0,1,1.08-2.71,5.09,5.09,0,0,1,1.75-1.79,4.71,4.71,0,0,1,2.46-.65,4.89,4.89,0,0,1,.83.07A2.58,2.58,0,0,1,783.85,76.86Zm8.37.12V96h-4.66V77Zm-5-5a2.31,2.31,0,0,1,.7-1.73,2.72,2.72,0,0,1,1.93-.68,2.66,2.66,0,0,1,1.92.68,2.29,2.29,0,0,1,.72,1.73,2.25,2.25,0,0,1-.72,1.7,2.63,2.63,0,0,1-1.92.69,2.68,2.68,0,0,1-1.93-.69A2.27,2.27,0,0,1,787.25,72Zm19.3,5v3.34h-10.9V77Zm-8-4.68h4.66V90.52a3,3,0,0,0,.23,1.3,1.16,1.16,0,0,0,.68.61,3.25,3.25,0,0,0,1.09.16,7.34,7.34,0,0,0,.85,0l.65-.11v3.48a8.11,8.11,0,0,1-1.31.32,10.08,10.08,0,0,1-1.64.12,6.54,6.54,0,0,1-2.74-.53,4,4,0,0,1-1.83-1.74,6.78,6.78,0,0,1-.65-3.2Zm20.52,24a10.21,10.21,0,0,1-3.89-.7,8.55,8.55,0,0,1-2.93-2,9.05,9.05,0,0,1-1.85-2.94,10.24,10.24,0,0,1-.63-3.62v-.7a11.93,11.93,0,0,1,.63-4,8.93,8.93,0,0,1,1.8-3.11,7.81,7.81,0,0,1,2.77-2,9.58,9.58,0,0,1,7.14,0,6.94,6.94,0,0,1,2.58,1.9,8.15,8.15,0,0,1,1.57,3A12.75,12.75,0,0,1,826.8,86v2H811.9V84.7h10.33v-.35a5.53,5.53,0,0,0-.42-2,3.2,3.2,0,0,0-1.19-1.47,4,4,0,0,0-3.9-.11A3.67,3.67,0,0,0,815.45,82a6.37,6.37,0,0,0-.74,1.93,12,12,0,0,0-.24,2.5v.7a7.49,7.49,0,0,0,.31,2.22,5.41,5.41,0,0,0,1,1.77,4.68,4.68,0,0,0,1.55,1.16,5.06,5.06,0,0,0,2.07.41,6,6,0,0,0,2.64-.57,5.87,5.87,0,0,0,2.07-1.7l2.34,2.42a7.74,7.74,0,0,1-1.62,1.69,8.22,8.22,0,0,1-2.42,1.32A10,10,0,0,1,819.09,96.35ZM846.76,96h-4.67V75.22a7.21,7.21,0,0,1,.82-3.6,5.35,5.35,0,0,1,2.36-2.23,8,8,0,0,1,3.6-.76,9,9,0,0,1,1.3.09,12.55,12.55,0,0,1,1.25.24l-.09,3.54a4,4,0,0,0-.73-.12,7.71,7.71,0,0,0-.87,0,3.58,3.58,0,0,0-1.61.33,2.27,2.27,0,0,0-1,1,3.33,3.33,0,0,0-.34,1.56Zm3.85-19v3.34H839.22V77Zm2.94,9.7v-.37a11.91,11.91,0,0,1,.6-3.85,9,9,0,0,1,1.74-3.07,7.77,7.77,0,0,1,2.79-2,10,10,0,0,1,7.56,0,7.8,7.8,0,0,1,2.82,2,9,9,0,0,1,1.74,3.07,11.91,11.91,0,0,1,.59,3.85v.37a11.91,11.91,0,0,1-.59,3.85,9.13,9.13,0,0,1-1.74,3.08,7.9,7.9,0,0,1-2.8,2,9.37,9.37,0,0,1-3.78.72,9.51,9.51,0,0,1-3.78-.72,7.76,7.76,0,0,1-2.81-2,9.13,9.13,0,0,1-1.74-3.08A11.91,11.91,0,0,1,853.55,86.68Zm4.64-.37v.37a10.83,10.83,0,0,0,.25,2.34,5.89,5.89,0,0,0,.76,1.92,3.71,3.71,0,0,0,1.31,1.3,4.07,4.07,0,0,0,2,.46,4,4,0,0,0,1.94-.46,3.79,3.79,0,0,0,1.31-1.3,5.91,5.91,0,0,0,.78-1.92,10.85,10.85,0,0,0,.24-2.34v-.37a10.54,10.54,0,0,0-.24-2.3,6,6,0,0,0-.78-1.91,3.58,3.58,0,0,0-1.33-1.32,4.11,4.11,0,0,0-3.89,0,3.53,3.53,0,0,0-1.31,1.32,5.92,5.92,0,0,0-.76,1.91A10.53,10.53,0,0,0,858.19,86.31Zm22.12-5.44V96h-4.64V77h4.39Zm5.78-4L886,81.18a6.71,6.71,0,0,0-.88-.1c-.31,0-.61,0-.89,0a5.37,5.37,0,0,0-1.88.3,3.54,3.54,0,0,0-1.36.83,3.63,3.63,0,0,0-.81,1.33,5.88,5.88,0,0,0-.31,1.76l-1-.12a14.24,14.24,0,0,1,.37-3.36,9.3,9.3,0,0,1,1.07-2.71,5.12,5.12,0,0,1,1.76-1.79,4.66,4.66,0,0,1,2.46-.65,4.86,4.86,0,0,1,.82.07A2.58,2.58,0,0,1,886.09,76.86Zm8.07,4V96h-4.64V77h4.38Zm-.68,4.92h-1.43a13.16,13.16,0,0,1,.48-3.65,8.85,8.85,0,0,1,1.44-2.9,6.56,6.56,0,0,1,2.34-1.94,7.43,7.43,0,0,1,3.25-.68,6.87,6.87,0,0,1,2.36.39,4.46,4.46,0,0,1,1.84,1.17A5.11,5.11,0,0,1,905,80.27a9.36,9.36,0,0,1,.43,3V96h-4.64V83.78a4.63,4.63,0,0,0-.39-2.09,2.1,2.1,0,0,0-1.07-1,4.11,4.11,0,0,0-1.69-.32,3.84,3.84,0,0,0-1.88.44,3.52,3.52,0,0,0-1.28,1.18,5.48,5.48,0,0,0-.74,1.74A8.89,8.89,0,0,0,893.48,85.8Zm11.57-.86-1.92.35a11.69,11.69,0,0,1,.49-3.35A8.33,8.33,0,0,1,905,79.18a6.53,6.53,0,0,1,2.3-1.87,7.24,7.24,0,0,1,3.2-.68A7.42,7.42,0,0,1,913,77a4.72,4.72,0,0,1,2,1.25,5.45,5.45,0,0,1,1.23,2.2,10.55,10.55,0,0,1,.44,3.3V96H912V83.77a4.65,4.65,0,0,0-.39-2.13,2,2,0,0,0-1.07-1,4.19,4.19,0,0,0-1.65-.3,3.6,3.6,0,0,0-1.69.37,3.44,3.44,0,0,0-1.2,1,5,5,0,0,0-.72,1.48A6.81,6.81,0,0,0,905.05,84.94Zm37,5.86a1.92,1.92,0,0,0-.31-1.08,2.77,2.77,0,0,0-1.2-.86,11.89,11.89,0,0,0-2.53-.75,19.4,19.4,0,0,1-2.72-.79,8.91,8.91,0,0,1-2.15-1.15,5.06,5.06,0,0,1-1.4-1.6,4.48,4.48,0,0,1-.5-2.14,5,5,0,0,1,.51-2.22,5.52,5.52,0,0,1,1.48-1.84,7.19,7.19,0,0,1,2.36-1.27,9.76,9.76,0,0,1,3.13-.47,10,10,0,0,1,4.16.79,6.2,6.2,0,0,1,2.69,2.18,5.36,5.36,0,0,1,.93,3.09h-4.64a2.76,2.76,0,0,0-.35-1.37,2.36,2.36,0,0,0-1-1A3.62,3.62,0,0,0,938.7,80a3.84,3.84,0,0,0-1.64.32,2.36,2.36,0,0,0-1,.82,2,2,0,0,0-.34,1.13,1.83,1.83,0,0,0,.18.82,2,2,0,0,0,.61.66,5,5,0,0,0,1.15.54,17.15,17.15,0,0,0,1.81.47,18.09,18.09,0,0,1,3.71,1.13,6.2,6.2,0,0,1,2.49,1.83,4.56,4.56,0,0,1,.9,2.92,4.93,4.93,0,0,1-.55,2.32,5.4,5.4,0,0,1-1.58,1.81A8,8,0,0,1,942,95.93a11.59,11.59,0,0,1-3.25.42,9.64,9.64,0,0,1-4.43-.93A7.1,7.1,0,0,1,931.56,93a5.54,5.54,0,0,1-.93-3h4.45a2.93,2.93,0,0,0,.59,1.77,3.11,3.11,0,0,0,1.37,1,5.57,5.57,0,0,0,1.78.28,4.93,4.93,0,0,0,1.78-.28,2.55,2.55,0,0,0,1.09-.79A2,2,0,0,0,942.05,90.8Zm8.15-4.12v-.37a12.19,12.19,0,0,1,.59-3.85,9,9,0,0,1,1.74-3.07,7.9,7.9,0,0,1,2.8-2,9.14,9.14,0,0,1,3.76-.74,9.27,9.27,0,0,1,3.8.74,7.76,7.76,0,0,1,2.81,2,9,9,0,0,1,1.74,3.07,11.91,11.91,0,0,1,.6,3.85v.37a11.91,11.91,0,0,1-.6,3.85,9.13,9.13,0,0,1-1.74,3.08,7.77,7.77,0,0,1-2.79,2,10.28,10.28,0,0,1-7.56,0,7.8,7.8,0,0,1-2.82-2,9.13,9.13,0,0,1-1.74-3.08A12.19,12.19,0,0,1,950.2,86.68Zm4.64-.37v.37a10.85,10.85,0,0,0,.24,2.34,6.37,6.37,0,0,0,.76,1.92,3.82,3.82,0,0,0,1.32,1.3,4,4,0,0,0,2,.46,3.91,3.91,0,0,0,1.93-.46,3.82,3.82,0,0,0,1.32-1.3,5.9,5.9,0,0,0,.77-1.92,10.24,10.24,0,0,0,.25-2.34v-.37a10,10,0,0,0-.25-2.3,5.93,5.93,0,0,0-.77-1.91A3.61,3.61,0,0,0,961,80.78a3.67,3.67,0,0,0-1.95-.49,3.64,3.64,0,0,0-3.25,1.81,6.41,6.41,0,0,0-.76,1.91A10.54,10.54,0,0,0,954.84,86.31ZM977.24,69V96h-4.66V69Zm16.65,22.48V77h4.67V96h-4.39Zm.59-3.94,1.44,0A14,14,0,0,1,995.5,91a8,8,0,0,1-1.32,2.82A6.07,6.07,0,0,1,992,95.7a7.37,7.37,0,0,1-3.2.65,8,8,0,0,1-2.56-.39,5.08,5.08,0,0,1-2-1.24,5.87,5.87,0,0,1-1.28-2.2,10.07,10.07,0,0,1-.46-3.25V77h4.64V89.3a5,5,0,0,0,.21,1.58,2.94,2.94,0,0,0,.62,1,2.35,2.35,0,0,0,.93.56,4,4,0,0,0,1.16.16,4.59,4.59,0,0,0,2.66-.67,3.73,3.73,0,0,0,1.4-1.82A7.64,7.64,0,0,0,994.48,87.54ZM1012.57,77v3.34h-10.89V77Zm-8-4.68h4.66V90.52a3,3,0,0,0,.23,1.3,1.15,1.15,0,0,0,.69.61,3.17,3.17,0,0,0,1.09.16,7.3,7.3,0,0,0,.84,0l.65-.11,0,3.48a8.52,8.52,0,0,1-1.32.32,10.08,10.08,0,0,1-1.64.12,6.54,6.54,0,0,1-2.74-.53,4,4,0,0,1-1.83-1.74,6.78,6.78,0,0,1-.65-3.2Zm16.9,4.68V96h-4.66V77Zm-5-5a2.31,2.31,0,0,1,.7-1.73,2.71,2.71,0,0,1,1.93-.68,2.66,2.66,0,0,1,1.92.68,2.29,2.29,0,0,1,.72,1.73,2.25,2.25,0,0,1-.72,1.7,2.63,2.63,0,0,1-1.92.69,2.67,2.67,0,0,1-1.93-.69A2.27,2.27,0,0,1,1016.52,72ZM1026,86.68v-.37a11.91,11.91,0,0,1,.6-3.85,9,9,0,0,1,1.74-3.07,7.81,7.81,0,0,1,2.8-2,9.14,9.14,0,0,1,3.76-.74,9.3,9.3,0,0,1,3.8.74,7.76,7.76,0,0,1,2.81,2,9,9,0,0,1,1.74,3.07,11.91,11.91,0,0,1,.6,3.85v.37a11.91,11.91,0,0,1-.6,3.85,9.13,9.13,0,0,1-1.74,3.08,7.81,7.81,0,0,1-2.8,2,9.37,9.37,0,0,1-3.78.72,9.51,9.51,0,0,1-3.78-.72,7.76,7.76,0,0,1-2.81-2,9.13,9.13,0,0,1-1.74-3.08A11.91,11.91,0,0,1,1026,86.68Zm4.64-.37v.37a10.83,10.83,0,0,0,.25,2.34,6.12,6.12,0,0,0,.76,1.92,3.88,3.88,0,0,0,1.31,1.3,4.1,4.1,0,0,0,2,.46,4,4,0,0,0,1.94-.46,3.82,3.82,0,0,0,1.32-1.3A6.13,6.13,0,0,0,1039,89a10.85,10.85,0,0,0,.24-2.34v-.37A10.54,10.54,0,0,0,1039,84a6.17,6.17,0,0,0-.77-1.91,3.61,3.61,0,0,0-1.34-1.32,3.78,3.78,0,0,0-5.2,1.32,6.16,6.16,0,0,0-.76,1.91A10.53,10.53,0,0,0,1030.63,86.31Zm22-5.27V96H1048V77h4.36Zm-.74,4.76h-1.37a12.62,12.62,0,0,1,.57-3.76,8.81,8.81,0,0,1,1.53-2.9,6.67,6.67,0,0,1,2.37-1.86,7.08,7.08,0,0,1,3.06-.65,7.46,7.46,0,0,1,2.48.39,4.5,4.5,0,0,1,1.89,1.23,5.43,5.43,0,0,1,1.23,2.21,10.73,10.73,0,0,1,.44,3.34V96h-4.67V83.77a4.52,4.52,0,0,0-.39-2.06,2.14,2.14,0,0,0-1.09-1.07,4.26,4.26,0,0,0-1.74-.32,3.92,3.92,0,0,0-1.88.44,3.87,3.87,0,0,0-1.34,1.18,5.56,5.56,0,0,0-.8,1.74A7.54,7.54,0,0,0,1051.92,85.8Zm27.66,5a1.93,1.93,0,0,0-.32-1.08,2.79,2.79,0,0,0-1.19-.86,12.07,12.07,0,0,0-2.53-.75,19.16,19.16,0,0,1-2.73-.79,8.65,8.65,0,0,1-2.14-1.15,5.09,5.09,0,0,1-1.41-1.6,4.47,4.47,0,0,1-.49-2.14,5,5,0,0,1,.51-2.22,5.49,5.49,0,0,1,1.47-1.84,7.19,7.19,0,0,1,2.36-1.27,9.85,9.85,0,0,1,3.13-.47,10,10,0,0,1,4.17.79,6.17,6.17,0,0,1,2.68,2.18,5.3,5.3,0,0,1,.94,3.09h-4.64a2.67,2.67,0,0,0-.36-1.37,2.33,2.33,0,0,0-1-1,3.64,3.64,0,0,0-1.78-.39,3.79,3.79,0,0,0-1.63.32,2.39,2.39,0,0,0-1,.82,2,2,0,0,0-.33,1.13,2,2,0,0,0,.17.82,2,2,0,0,0,.62.66,4.68,4.68,0,0,0,1.14.54,17.83,17.83,0,0,0,1.81.47,17.9,17.9,0,0,1,3.71,1.13,6.24,6.24,0,0,1,2.5,1.83,4.56,4.56,0,0,1,.89,2.92,5,5,0,0,1-.54,2.32,5.4,5.4,0,0,1-1.58,1.81,8.08,8.08,0,0,1-2.48,1.21,11.64,11.64,0,0,1-3.25.42,9.58,9.58,0,0,1-4.43-.93,7.13,7.13,0,0,1-2.75-2.39,5.54,5.54,0,0,1-.93-3h4.45a2.93,2.93,0,0,0,.6,1.77,3.05,3.05,0,0,0,1.37,1,5.47,5.47,0,0,0,1.77.28,4.85,4.85,0,0,0,1.78-.28,2.55,2.55,0,0,0,1.09-.79A1.91,1.91,0,0,0,1079.58,90.8Z" transform="translate(0 -40.85)"/><path class="cls-13" d="M1066.41,479.2V483H1052.8v-3.8Zm-12.13-21.79V483h-4.84V457.41ZM1064.63,468v3.71H1052.8V468Zm1.72-10.56v3.81H1052.8v-3.81Zm8.59,10.47V483h-4.65V464h4.38Zm-.69,4.92h-1.42a13.17,13.17,0,0,1,.47-3.65,8.85,8.85,0,0,1,1.44-2.9,6.56,6.56,0,0,1,2.34-1.94,7.43,7.43,0,0,1,3.25-.68,6.87,6.87,0,0,1,2.36.39,4.46,4.46,0,0,1,1.84,1.17,5.24,5.24,0,0,1,1.22,2.08,9.66,9.66,0,0,1,.42,3V483h-4.64V470.78a4.63,4.63,0,0,0-.39-2.09,2.1,2.1,0,0,0-1.07-1.05,4.11,4.11,0,0,0-1.69-.32,3.84,3.84,0,0,0-1.88.44,3.52,3.52,0,0,0-1.28,1.18,5.48,5.48,0,0,0-.74,1.74A9.44,9.44,0,0,0,1074.25,472.8Zm11.57-.86-1.92.36a12.06,12.06,0,0,1,.49-3.36,8.33,8.33,0,0,1,1.39-2.76,6.53,6.53,0,0,1,2.3-1.87,7.27,7.27,0,0,1,3.2-.68,7.42,7.42,0,0,1,2.53.4,4.75,4.75,0,0,1,2,1.25,5.7,5.7,0,0,1,1.23,2.2,10.85,10.85,0,0,1,.44,3.3V483h-4.68V470.77a4.65,4.65,0,0,0-.39-2.13,2,2,0,0,0-1.07-1,4.19,4.19,0,0,0-1.65-.3,3.6,3.6,0,0,0-1.69.37,3.32,3.32,0,0,0-1.19,1,4.76,4.76,0,0,0-.73,1.48A6.81,6.81,0,0,0,1085.82,471.94Zm27.16,7v-8.77a3.71,3.71,0,0,0-.34-1.67,2.34,2.34,0,0,0-1-1.09,3.45,3.45,0,0,0-1.74-.39,3.8,3.8,0,0,0-1.63.32,2.3,2.3,0,0,0-1.42,2.19h-4.66a4.61,4.61,0,0,1,.56-2.23,6,6,0,0,1,1.6-1.9,8,8,0,0,1,2.51-1.32,11,11,0,0,1,3.31-.47,9.58,9.58,0,0,1,3.85.74,5.86,5.86,0,0,1,2.67,2.18,6.37,6.37,0,0,1,1,3.67v8.3a14.23,14.23,0,0,0,.18,2.44,7,7,0,0,0,.56,1.74v.3h-4.73a7.22,7.22,0,0,1-.51-1.83A15.27,15.27,0,0,1,1113,479Zm.65-7.54,0,2.76h-2.93a7.35,7.35,0,0,0-1.92.22,3.69,3.69,0,0,0-1.35.64,2.56,2.56,0,0,0-.79,1,2.93,2.93,0,0,0-.27,1.28,2.55,2.55,0,0,0,.32,1.27,2.43,2.43,0,0,0,1,.9,3.26,3.26,0,0,0,1.48.31,4.42,4.42,0,0,0,2.14-.49,4.21,4.21,0,0,0,1.42-1.23,2.64,2.64,0,0,0,.55-1.37l1.33,2a8.08,8.08,0,0,1-.73,1.53,6.62,6.62,0,0,1-1.27,1.51,6.31,6.31,0,0,1-1.86,1.16,6.42,6.42,0,0,1-2.53.46,7.14,7.14,0,0,1-3.31-.74,5.8,5.8,0,0,1-2.3-2,5.2,5.2,0,0,1-.84-2.92,6,6,0,0,1,.56-2.67,5.11,5.11,0,0,1,1.67-1.95,7.75,7.75,0,0,1,2.74-1.21,15.38,15.38,0,0,1,3.78-.42Zm14-7.44v19H1123V464Zm-5-5a2.31,2.31,0,0,1,.71-1.73,2.71,2.71,0,0,1,1.93-.68,2.66,2.66,0,0,1,1.92.68A2.29,2.29,0,0,1,1128,459a2.25,2.25,0,0,1-.72,1.7,2.63,2.63,0,0,1-1.92.69,2.67,2.67,0,0,1-1.93-.69A2.28,2.28,0,0,1,1122.68,459Zm15.23-3v27h-4.66V456Zm21.51,23.48,4.43-15.5h4.85l-6.52,19h-3Zm-3.24-15.5,4.48,15.54.16,3.48h-3l-6.54-19Zm26.06,15v-8.77a3.85,3.85,0,0,0-.34-1.67,2.34,2.34,0,0,0-1-1.09,3.47,3.47,0,0,0-1.74-.39,3.8,3.8,0,0,0-1.63.32,2.33,2.33,0,0,0-1.43,2.19h-4.65a4.61,4.61,0,0,1,.56-2.23,6,6,0,0,1,1.6-1.9,8,8,0,0,1,2.51-1.32,11,11,0,0,1,3.31-.47,9.58,9.58,0,0,1,3.85.74,5.86,5.86,0,0,1,2.67,2.18,6.45,6.45,0,0,1,1,3.67v8.3a14.23,14.23,0,0,0,.18,2.44,6.59,6.59,0,0,0,.56,1.74v.3h-4.73a7.22,7.22,0,0,1-.51-1.83A14,14,0,0,1,1182.24,479Zm.65-7.54,0,2.76H1180a7.35,7.35,0,0,0-1.92.22,3.69,3.69,0,0,0-1.35.64,2.47,2.47,0,0,0-.79,1,2.93,2.93,0,0,0-.27,1.28,2.55,2.55,0,0,0,.32,1.27,2.43,2.43,0,0,0,1,.9,3.25,3.25,0,0,0,1.47.31,4.46,4.46,0,0,0,2.15-.49,4.21,4.21,0,0,0,1.42-1.23,2.73,2.73,0,0,0,.55-1.37l1.33,2a7.59,7.59,0,0,1-.74,1.53,6.57,6.57,0,0,1-1.26,1.51,6.34,6.34,0,0,1-4.4,1.62,7.09,7.09,0,0,1-3.3-.74,5.8,5.8,0,0,1-2.3-2,5.13,5.13,0,0,1-.85-2.92,6,6,0,0,1,.57-2.67,5.11,5.11,0,0,1,1.67-1.95,7.67,7.67,0,0,1,2.74-1.21,15.38,15.38,0,0,1,3.78-.42Zm14-15.42v27h-4.66V456Zm10.25,8v19h-4.66V464Zm-5-5a2.31,2.31,0,0,1,.71-1.73,2.71,2.71,0,0,1,1.93-.68,2.66,2.66,0,0,1,1.92.68,2.29,2.29,0,0,1,.72,1.73,2.25,2.25,0,0,1-.72,1.7,2.63,2.63,0,0,1-1.92.69,2.67,2.67,0,0,1-1.93-.69A2.28,2.28,0,0,1,1202.19,459ZM1223.91,479V456h4.67v27h-4.22Zm-12.22-5.24v-.37a14.81,14.81,0,0,1,.49-4,9.14,9.14,0,0,1,1.48-3.07,6.66,6.66,0,0,1,2.34-2,6.81,6.81,0,0,1,3.14-.7,6,6,0,0,1,5.15,2.64,10.22,10.22,0,0,1,1.46,3,19.92,19.92,0,0,1,.79,3.8v1a19.12,19.12,0,0,1-.79,3.71,10.42,10.42,0,0,1-1.46,3,6,6,0,0,1-5.18,2.62,6.68,6.68,0,0,1-3.13-.72,6.84,6.84,0,0,1-2.34-2,9.87,9.87,0,0,1-1.46-3.06A14.09,14.09,0,0,1,1211.69,473.72Zm4.66-.37v.37a11.92,11.92,0,0,0,.21,2.3,6.28,6.28,0,0,0,.68,1.9,3.63,3.63,0,0,0,1.22,1.27,3.5,3.5,0,0,0,1.83.45,4,4,0,0,0,2.25-.59,4.05,4.05,0,0,0,1.38-1.67,7.84,7.84,0,0,0,.64-2.41v-2.76a7.76,7.76,0,0,0-.37-1.95,4.66,4.66,0,0,0-.81-1.55,3.52,3.52,0,0,0-1.27-1,4,4,0,0,0-1.79-.37,3.37,3.37,0,0,0-1.83.48,3.52,3.52,0,0,0-1.23,1.28,6.64,6.64,0,0,0-.7,1.91A12.56,12.56,0,0,0,1216.35,473.35Zm27.81,5.61v-8.77a3.86,3.86,0,0,0-.33-1.67,2.45,2.45,0,0,0-1-1.09,3.5,3.5,0,0,0-1.74-.39,3.81,3.81,0,0,0-1.64.32,2.34,2.34,0,0,0-1.42,2.19h-4.66a4.73,4.73,0,0,1,.56-2.23,6.11,6.11,0,0,1,1.6-1.9,8,8,0,0,1,2.51-1.32,11,11,0,0,1,3.31-.47,9.58,9.58,0,0,1,3.85.74,5.76,5.76,0,0,1,2.67,2.18,6.38,6.38,0,0,1,1,3.67v8.3A14.33,14.33,0,0,0,1249,481a7,7,0,0,0,.56,1.74v.3h-4.72a6.48,6.48,0,0,1-.51-1.83A14,14,0,0,1,1244.16,479Zm.65-7.54,0,2.76h-2.94a7.35,7.35,0,0,0-1.92.22,3.69,3.69,0,0,0-1.35.64,2.56,2.56,0,0,0-.79,1,2.93,2.93,0,0,0-.26,1.28,2.54,2.54,0,0,0,.31,1.27,2.43,2.43,0,0,0,.95.9,3.29,3.29,0,0,0,1.48.31,4.42,4.42,0,0,0,2.14-.49,4.25,4.25,0,0,0,1.43-1.23,2.62,2.62,0,0,0,.54-1.37l1.34,2a8.16,8.16,0,0,1-.74,1.53,6.62,6.62,0,0,1-1.27,1.51,6.19,6.19,0,0,1-1.86,1.16,6.42,6.42,0,0,1-2.53.46,7.16,7.16,0,0,1-3.31-.74,5.8,5.8,0,0,1-2.3-2,5.2,5.2,0,0,1-.84-2.92,6,6,0,0,1,.56-2.67,5.11,5.11,0,0,1,1.67-1.95,7.75,7.75,0,0,1,2.74-1.21,15.38,15.38,0,0,1,3.78-.42Zm18.11-7.44v3.34H1252V464Zm-8-4.68h4.66v18.22a2.88,2.88,0,0,0,.23,1.3,1.16,1.16,0,0,0,.68.61,3.25,3.25,0,0,0,1.09.16,7,7,0,0,0,.84,0c.26,0,.48-.07.65-.11l0,3.48a8,8,0,0,1-1.32.32,10,10,0,0,1-1.63.12,6.5,6.5,0,0,1-2.74-.53,3.85,3.85,0,0,1-1.83-1.74,6.79,6.79,0,0,1-.65-3.19Zm16.89,4.68v19h-4.65V464Zm-5-5a2.31,2.31,0,0,1,.7-1.73,2.73,2.73,0,0,1,1.94-.68,2.64,2.64,0,0,1,1.91.68,2.29,2.29,0,0,1,.72,1.73,2.25,2.25,0,0,1-.72,1.7,2.6,2.6,0,0,1-1.91.69,2.69,2.69,0,0,1-1.94-.69A2.27,2.27,0,0,1,1266.86,459Zm9.48,14.67v-.37a11.91,11.91,0,0,1,.6-3.85,8.67,8.67,0,0,1,1.74-3.07,7.77,7.77,0,0,1,2.79-2,9.17,9.17,0,0,1,3.76-.74,9.27,9.27,0,0,1,3.8.74,7.76,7.76,0,0,1,2.81,2,9,9,0,0,1,1.74,3.07,11.91,11.91,0,0,1,.6,3.85v.37a11.91,11.91,0,0,1-.6,3.85,9.23,9.23,0,0,1-1.74,3.08,7.77,7.77,0,0,1-2.79,2,10.28,10.28,0,0,1-7.56,0,7.76,7.76,0,0,1-2.81-2,8.9,8.9,0,0,1-1.74-3.08A11.91,11.91,0,0,1,1276.34,473.68Zm4.64-.37v.37a10.18,10.18,0,0,0,.25,2.34,6.11,6.11,0,0,0,.75,1.92,3.82,3.82,0,0,0,1.32,1.3,4.07,4.07,0,0,0,2,.46,3.91,3.91,0,0,0,1.93-.46,3.82,3.82,0,0,0,1.32-1.3,5.9,5.9,0,0,0,.77-1.92,10.18,10.18,0,0,0,.25-2.34v-.37a10,10,0,0,0-.25-2.3,5.93,5.93,0,0,0-.77-1.91,3.61,3.61,0,0,0-1.34-1.32,3.67,3.67,0,0,0-2-.49,3.64,3.64,0,0,0-3.25,1.81,6.15,6.15,0,0,0-.75,1.91A10,10,0,0,0,1281,473.31Zm22-5.27v15h-4.64V464h4.36Zm-.74,4.76h-1.37a12.63,12.63,0,0,1,.56-3.76,8.81,8.81,0,0,1,1.53-2.9,6.85,6.85,0,0,1,2.37-1.86,7.14,7.14,0,0,1,3.06-.65,7.42,7.42,0,0,1,2.48.39,4.53,4.53,0,0,1,1.9,1.23,5.43,5.43,0,0,1,1.23,2.21,11,11,0,0,1,.44,3.34V483h-4.68V470.77a4.67,4.67,0,0,0-.38-2.06,2.14,2.14,0,0,0-1.09-1.07,4.26,4.26,0,0,0-1.74-.32,3.87,3.87,0,0,0-1.88.44,3.78,3.78,0,0,0-1.34,1.18,5.81,5.81,0,0,0-.81,1.74A7.55,7.55,0,0,0,1302.27,472.8Zm17.34.13v-.34a26.69,26.69,0,0,1,.79-6.76,22.69,22.69,0,0,1,2.11-5.37,17.43,17.43,0,0,1,2.81-3.81,10.8,10.8,0,0,1,3-2.2l.91,2.55a10.82,10.82,0,0,0-2,2.08,14.38,14.38,0,0,0-1.79,3.21,22,22,0,0,0-1.3,4.47,31.53,31.53,0,0,0-.48,5.8v.4a31.84,31.84,0,0,0,.48,5.82,22,22,0,0,0,1.3,4.47,15.45,15.45,0,0,0,1.79,3.25,11.06,11.06,0,0,0,2,2.11l-.91,2.48a11.22,11.22,0,0,1-3-2.2,17.27,17.27,0,0,1-2.81-3.82,22.44,22.44,0,0,1-2.11-5.34A27.07,27.07,0,0,1,1319.61,472.93Zm23.73,4.87a1.87,1.87,0,0,0-.32-1.07,2.72,2.72,0,0,0-1.19-.87,12.07,12.07,0,0,0-2.53-.75,19.16,19.16,0,0,1-2.73-.79,8.65,8.65,0,0,1-2.14-1.15,5.09,5.09,0,0,1-1.41-1.6,4.47,4.47,0,0,1-.49-2.14,5,5,0,0,1,.51-2.22,5.49,5.49,0,0,1,1.47-1.84,7.19,7.19,0,0,1,2.36-1.27,9.85,9.85,0,0,1,3.13-.47,10,10,0,0,1,4.17.79,6.17,6.17,0,0,1,2.68,2.18,5.32,5.32,0,0,1,.94,3.09h-4.64a2.67,2.67,0,0,0-.36-1.37,2.33,2.33,0,0,0-1-1A3.64,3.64,0,0,0,1340,467a3.79,3.79,0,0,0-1.63.32,2.39,2.39,0,0,0-1,.82,2.1,2.1,0,0,0-.16,2,2.1,2.1,0,0,0,.62.65,4.68,4.68,0,0,0,1.14.54,17.83,17.83,0,0,0,1.81.47,17.9,17.9,0,0,1,3.71,1.13,6.24,6.24,0,0,1,2.5,1.83,4.56,4.56,0,0,1,.89,2.92,5,5,0,0,1-.54,2.32,5.4,5.4,0,0,1-1.58,1.81,8.08,8.08,0,0,1-2.48,1.21,11.64,11.64,0,0,1-3.25.42,9.58,9.58,0,0,1-4.43-.93,7.13,7.13,0,0,1-2.75-2.39,5.54,5.54,0,0,1-.93-3h4.45a2.93,2.93,0,0,0,.6,1.77,3.05,3.05,0,0,0,1.37,1,5.47,5.47,0,0,0,1.77.28,4.85,4.85,0,0,0,1.78-.28A2.55,2.55,0,0,0,1343,479,1.91,1.91,0,0,0,1343.34,477.8Zm8.14-4.12v-.37a11.91,11.91,0,0,1,.6-3.85,9,9,0,0,1,1.74-3.07,7.77,7.77,0,0,1,2.79-2,10,10,0,0,1,7.56,0,7.8,7.8,0,0,1,2.82,2,9,9,0,0,1,1.74,3.07,12.19,12.19,0,0,1,.59,3.85v.37a12.19,12.19,0,0,1-.59,3.85,9.23,9.23,0,0,1-1.74,3.08,7.9,7.9,0,0,1-2.8,2,10.28,10.28,0,0,1-7.56,0,7.76,7.76,0,0,1-2.81-2,9.23,9.23,0,0,1-1.74-3.08A11.91,11.91,0,0,1,1351.48,473.68Zm4.64-.37v.37a10.18,10.18,0,0,0,.25,2.34,6.11,6.11,0,0,0,.75,1.92,3.82,3.82,0,0,0,1.32,1.3,4.07,4.07,0,0,0,2,.46,3.88,3.88,0,0,0,1.93-.46,3.82,3.82,0,0,0,1.32-1.3,6.14,6.14,0,0,0,.78-1.92,10.78,10.78,0,0,0,.24-2.34v-.37a10.54,10.54,0,0,0-.24-2.3,6.18,6.18,0,0,0-.78-1.91,3.58,3.58,0,0,0-1.33-1.32,4.11,4.11,0,0,0-3.89,0,3.63,3.63,0,0,0-1.32,1.32,6.15,6.15,0,0,0-.75,1.91A10,10,0,0,0,1356.12,473.31Zm16.65.37v-.37a11.91,11.91,0,0,1,.6-3.85,9,9,0,0,1,1.74-3.07,7.77,7.77,0,0,1,2.79-2,10,10,0,0,1,7.56,0,7.8,7.8,0,0,1,2.82,2,9,9,0,0,1,1.74,3.07,12.19,12.19,0,0,1,.59,3.85v.37a12.19,12.19,0,0,1-.59,3.85,9.23,9.23,0,0,1-1.74,3.08,7.9,7.9,0,0,1-2.8,2,9.37,9.37,0,0,1-3.78.72,9.51,9.51,0,0,1-3.78-.72,7.76,7.76,0,0,1-2.81-2,9.23,9.23,0,0,1-1.74-3.08A11.91,11.91,0,0,1,1372.77,473.68Zm4.64-.37v.37a10.18,10.18,0,0,0,.25,2.34,6.11,6.11,0,0,0,.75,1.92,3.82,3.82,0,0,0,1.32,1.3,4.07,4.07,0,0,0,2,.46,4,4,0,0,0,1.94-.46,3.88,3.88,0,0,0,1.31-1.3,5.91,5.91,0,0,0,.78-1.92,10.78,10.78,0,0,0,.24-2.34v-.37a10.54,10.54,0,0,0-.24-2.3,6,6,0,0,0-.78-1.91,3.58,3.58,0,0,0-1.33-1.32,4.11,4.11,0,0,0-3.89,0,3.63,3.63,0,0,0-1.32,1.32,6.15,6.15,0,0,0-.75,1.91A10,10,0,0,0,1377.41,473.31Zm22-5.27v15h-4.64V464h4.36Zm-.74,4.76h-1.37a12.63,12.63,0,0,1,.56-3.76,9.2,9.2,0,0,1,1.53-2.9,6.79,6.79,0,0,1,2.38-1.86,7.08,7.08,0,0,1,3.06-.65,7.36,7.36,0,0,1,2.47.39,4.47,4.47,0,0,1,1.9,1.23,5.43,5.43,0,0,1,1.23,2.21,10.73,10.73,0,0,1,.44,3.34V483h-4.67V470.77a4.52,4.52,0,0,0-.39-2.06,2.14,2.14,0,0,0-1.09-1.07,4.26,4.26,0,0,0-1.74-.32,3.81,3.81,0,0,0-3.22,1.62,5.81,5.81,0,0,0-.81,1.74A7.93,7.93,0,0,0,1398.7,472.8Zm25.62-.21v.34a25.48,25.48,0,0,1-.83,6.69,22.21,22.21,0,0,1-2.14,5.37,17.59,17.59,0,0,1-2.89,3.86,10.61,10.61,0,0,1-3,2.24l-.91-2.48a10.5,10.5,0,0,0,2-2.08,15.6,15.6,0,0,0,1.79-3.25,21.67,21.67,0,0,0,1.3-4.5,30.92,30.92,0,0,0,.49-5.82v-.4a30,30,0,0,0-.51-5.82,21.86,21.86,0,0,0-1.32-4.48,15.6,15.6,0,0,0-1.81-3.25,10.14,10.14,0,0,0-1.93-2.08l.91-2.48a10.25,10.25,0,0,1,3,2.24,17.27,17.27,0,0,1,2.89,3.88,22.13,22.13,0,0,1,2.14,5.36A25.3,25.3,0,0,1,1424.32,472.59Z" transform="translate(0 -40.85)"/><path class="cls-13" d="M43.42,462.58h4.83a9.91,9.91,0,0,1-1.42,4.55,8.46,8.46,0,0,1-3.43,3.1,11.55,11.55,0,0,1-5.32,1.12,10.82,10.82,0,0,1-4.35-.84,9.42,9.42,0,0,1-3.28-2.45,11,11,0,0,1-2.08-3.83,16.49,16.49,0,0,1-.72-5v-1.95a16.2,16.2,0,0,1,.74-5.05,11,11,0,0,1,2.11-3.83,9.35,9.35,0,0,1,3.32-2.46,10.61,10.61,0,0,1,4.36-.86,11,11,0,0,1,5.29,1.16,8.42,8.42,0,0,1,3.36,3.14A10.78,10.78,0,0,1,48.27,454H43.44a7.58,7.58,0,0,0-.71-2.74,3.69,3.69,0,0,0-1.65-1.71,6,6,0,0,0-2.9-.6,5.58,5.58,0,0,0-2.48.53A4.48,4.48,0,0,0,34,451a7.45,7.45,0,0,0-1.06,2.6,16.67,16.67,0,0,0-.35,3.59v2a17,17,0,0,0,.32,3.5,7.72,7.72,0,0,0,1,2.61,4.57,4.57,0,0,0,1.72,1.64,5.36,5.36,0,0,0,2.52.56,6.45,6.45,0,0,0,2.88-.56,3.82,3.82,0,0,0,1.7-1.65A7.1,7.1,0,0,0,43.42,462.58Zm20.45,3.9V452h4.67v19H64.15Zm.59-3.93,1.45,0a13.55,13.55,0,0,1-.43,3.53,8.14,8.14,0,0,1-1.31,2.82,6.1,6.1,0,0,1-2.24,1.84,7.23,7.23,0,0,1-3.2.65,8,8,0,0,1-2.56-.39,5.15,5.15,0,0,1-2-1.24,6,6,0,0,1-1.28-2.2,10.35,10.35,0,0,1-.46-3.25V452h4.64V464.3a4.84,4.84,0,0,0,.22,1.59,2.82,2.82,0,0,0,.61,1,2.35,2.35,0,0,0,.93.56,4,4,0,0,0,1.16.16,4.67,4.67,0,0,0,2.66-.66,3.81,3.81,0,0,0,1.4-1.83A7.62,7.62,0,0,0,64.46,462.55ZM84,465.8a1.87,1.87,0,0,0-.31-1.07,2.7,2.7,0,0,0-1.2-.87,11.71,11.71,0,0,0-2.53-.75,19.4,19.4,0,0,1-2.72-.79,8.91,8.91,0,0,1-2.15-1.15,5.19,5.19,0,0,1-1.4-1.6,4.48,4.48,0,0,1-.5-2.14,5,5,0,0,1,.51-2.22,5.52,5.52,0,0,1,1.48-1.84,7.19,7.19,0,0,1,2.36-1.27,9.76,9.76,0,0,1,3.13-.47,10,10,0,0,1,4.16.79,6.2,6.2,0,0,1,2.69,2.18,5.38,5.38,0,0,1,.93,3.09H83.82a2.76,2.76,0,0,0-.35-1.37,2.36,2.36,0,0,0-1-1,3.62,3.62,0,0,0-1.77-.39,3.84,3.84,0,0,0-1.64.32,2.36,2.36,0,0,0-1,.82,2.05,2.05,0,0,0-.34,1.13,1.9,1.9,0,0,0,.18.83,2,2,0,0,0,.62.65,4.68,4.68,0,0,0,1.14.54,17.15,17.15,0,0,0,1.81.47,18.09,18.09,0,0,1,3.71,1.13,6.2,6.2,0,0,1,2.49,1.83,4.56,4.56,0,0,1,.9,2.92,5,5,0,0,1-.54,2.32,5.55,5.55,0,0,1-1.59,1.81,8,8,0,0,1-2.48,1.21,11.59,11.59,0,0,1-3.25.42,9.64,9.64,0,0,1-4.43-.93A7.1,7.1,0,0,1,73.52,468a5.54,5.54,0,0,1-.93-3H77a2.93,2.93,0,0,0,.59,1.77,3.08,3.08,0,0,0,1.38,1,5.47,5.47,0,0,0,1.77.28,4.89,4.89,0,0,0,1.78-.28,2.55,2.55,0,0,0,1.09-.79A2,2,0,0,0,84,465.8ZM102,452v3.34H91.08V452Zm-8-4.68h4.66v18.22a3,3,0,0,0,.23,1.3,1.16,1.16,0,0,0,.68.61,3.27,3.27,0,0,0,1.1.16,7.3,7.3,0,0,0,.84,0l.65-.11,0,3.48a8.52,8.52,0,0,1-1.32.32,10.08,10.08,0,0,1-1.64.12,6.54,6.54,0,0,1-2.74-.53,4,4,0,0,1-1.83-1.74,6.79,6.79,0,0,1-.65-3.19Zm10.69,14.38v-.37a11.91,11.91,0,0,1,.6-3.85,9,9,0,0,1,1.74-3.07,7.72,7.72,0,0,1,2.8-2,9.14,9.14,0,0,1,3.76-.74,9.3,9.3,0,0,1,3.8.74,7.76,7.76,0,0,1,2.81,2,9,9,0,0,1,1.74,3.07,11.91,11.91,0,0,1,.6,3.85v.37a11.91,11.91,0,0,1-.6,3.85,9.23,9.23,0,0,1-1.74,3.08,7.81,7.81,0,0,1-2.8,2,9.37,9.37,0,0,1-3.78.72,9.51,9.51,0,0,1-3.78-.72,7.76,7.76,0,0,1-2.81-2,9.23,9.23,0,0,1-1.74-3.08A11.91,11.91,0,0,1,104.69,461.68Zm4.64-.37v.37a10.76,10.76,0,0,0,.25,2.34,6.37,6.37,0,0,0,.76,1.92,3.88,3.88,0,0,0,1.31,1.3,4.1,4.1,0,0,0,2,.46,4,4,0,0,0,1.94-.46,3.82,3.82,0,0,0,1.32-1.3,5.9,5.9,0,0,0,.77-1.92,10.78,10.78,0,0,0,.24-2.34v-.37a10.54,10.54,0,0,0-.24-2.3,5.93,5.93,0,0,0-.77-1.91,3.61,3.61,0,0,0-1.34-1.32,3.78,3.78,0,0,0-5.2,1.32,6.41,6.41,0,0,0-.76,1.91A10.53,10.53,0,0,0,109.33,461.31Zm22.1-5.43V471h-4.64V452h4.38Zm-.68,4.92h-1.43a13.16,13.16,0,0,1,.48-3.65,8.85,8.85,0,0,1,1.44-2.9,6.56,6.56,0,0,1,2.34-1.94,7.43,7.43,0,0,1,3.25-.68,6.87,6.87,0,0,1,2.36.39,4.46,4.46,0,0,1,1.84,1.17,5.11,5.11,0,0,1,1.21,2.08,9.64,9.64,0,0,1,.43,3V471H138V458.78a4.65,4.65,0,0,0-.38-2.09,2.1,2.1,0,0,0-1.07-1.05,4.11,4.11,0,0,0-1.69-.32,3.81,3.81,0,0,0-1.88.44,3.55,3.55,0,0,0-1.29,1.18,5.7,5.7,0,0,0-.73,1.74A8.89,8.89,0,0,0,130.75,460.8Zm11.56-.86-1.91.36a11.71,11.71,0,0,1,.49-3.36,8.33,8.33,0,0,1,1.39-2.76,6.53,6.53,0,0,1,2.3-1.87,7.24,7.24,0,0,1,3.2-.68,7.42,7.42,0,0,1,2.53.4,4.72,4.72,0,0,1,1.95,1.25,5.45,5.45,0,0,1,1.23,2.2,10.55,10.55,0,0,1,.44,3.3V471h-4.67V458.77a4.65,4.65,0,0,0-.39-2.13,2,2,0,0,0-1.07-1,4.19,4.19,0,0,0-1.65-.3,3.6,3.6,0,0,0-1.69.37,3.44,3.44,0,0,0-1.2,1,5,5,0,0,0-.72,1.48A6.8,6.8,0,0,0,142.31,459.94Zm38,7V444H185v27h-4.22Zm-12.21-5.24v-.37a14.81,14.81,0,0,1,.49-4,9.32,9.32,0,0,1,1.47-3.07,6.54,6.54,0,0,1,5.49-2.69,6,6,0,0,1,5.15,2.64,10.22,10.22,0,0,1,1.46,3,21.58,21.58,0,0,1,.79,3.8v1a20.72,20.72,0,0,1-.79,3.71,10.42,10.42,0,0,1-1.46,3,6,6,0,0,1-5.19,2.62,6.64,6.64,0,0,1-3.12-.72,6.75,6.75,0,0,1-2.34-2,9.65,9.65,0,0,1-1.46-3.06A14.09,14.09,0,0,1,168.06,461.72Zm4.65-.37v.37a11.16,11.16,0,0,0,.22,2.3,6,6,0,0,0,.68,1.9,3.69,3.69,0,0,0,1.21,1.27,3.55,3.55,0,0,0,1.83.45,4,4,0,0,0,2.25-.59,4.08,4.08,0,0,0,1.39-1.67,7.56,7.56,0,0,0,.63-2.41v-2.76a7.34,7.34,0,0,0-.37-1.95,4.32,4.32,0,0,0-.81-1.55,3.57,3.57,0,0,0-1.26-1,4,4,0,0,0-1.79-.37,3.33,3.33,0,0,0-1.83.48,3.44,3.44,0,0,0-1.23,1.28,6.36,6.36,0,0,0-.7,1.91A11.76,11.76,0,0,0,172.71,461.35Zm16.51.33v-.37a11.91,11.91,0,0,1,.6-3.85,9,9,0,0,1,1.74-3.07,7.81,7.81,0,0,1,2.8-2,10,10,0,0,1,7.55,0,7.71,7.71,0,0,1,2.82,2,9,9,0,0,1,1.74,3.07,11.91,11.91,0,0,1,.6,3.85v.37a11.91,11.91,0,0,1-.6,3.85,9.23,9.23,0,0,1-1.74,3.08,7.81,7.81,0,0,1-2.8,2,9.37,9.37,0,0,1-3.78.72,9.51,9.51,0,0,1-3.78-.72,7.76,7.76,0,0,1-2.81-2,9.23,9.23,0,0,1-1.74-3.08A11.91,11.91,0,0,1,189.22,461.68Zm4.64-.37v.37a10.76,10.76,0,0,0,.25,2.34,6.12,6.12,0,0,0,.76,1.92,3.88,3.88,0,0,0,1.31,1.3,4.1,4.1,0,0,0,2,.46,4,4,0,0,0,1.94-.46,3.71,3.71,0,0,0,1.31-1.3,5.91,5.91,0,0,0,.78-1.92,10.76,10.76,0,0,0,.25-2.34v-.37a10.53,10.53,0,0,0-.25-2.3,6,6,0,0,0-.78-1.91,3.51,3.51,0,0,0-1.33-1.32,3.78,3.78,0,0,0-5.2,1.32,6.16,6.16,0,0,0-.76,1.91A10.53,10.53,0,0,0,193.86,461.31Zm22.1-5.43V471h-4.64V452h4.38Zm-.68,4.92h-1.43a13.16,13.16,0,0,1,.48-3.65,8.85,8.85,0,0,1,1.44-2.9,6.56,6.56,0,0,1,2.34-1.94,7.4,7.4,0,0,1,3.25-.68,6.82,6.82,0,0,1,2.35.39,4.5,4.5,0,0,1,1.85,1.17,5.11,5.11,0,0,1,1.21,2.08,9.64,9.64,0,0,1,.43,3V471h-4.65V458.78a4.65,4.65,0,0,0-.38-2.09,2.1,2.1,0,0,0-1.07-1.05,4.11,4.11,0,0,0-1.69-.32,3.81,3.81,0,0,0-1.88.44,3.55,3.55,0,0,0-1.29,1.18,5.7,5.7,0,0,0-.73,1.74A8.89,8.89,0,0,0,215.28,460.8Zm11.56-.86-1.91.36a11.71,11.71,0,0,1,.49-3.36,8.33,8.33,0,0,1,1.39-2.76,6.53,6.53,0,0,1,2.3-1.87,7.24,7.24,0,0,1,3.2-.68,7.42,7.42,0,0,1,2.53.4,4.78,4.78,0,0,1,1.95,1.25,5.45,5.45,0,0,1,1.23,2.2,10.55,10.55,0,0,1,.44,3.3V471h-4.67V458.77a4.65,4.65,0,0,0-.39-2.13,2,2,0,0,0-1.07-1,4.19,4.19,0,0,0-1.65-.3,3.6,3.6,0,0,0-1.69.37,3.44,3.44,0,0,0-1.2,1,5,5,0,0,0-.72,1.48A6.8,6.8,0,0,0,226.84,459.94ZM254,467v-8.77a3.71,3.71,0,0,0-.34-1.67,2.34,2.34,0,0,0-1-1.09,3.45,3.45,0,0,0-1.74-.39,3.8,3.8,0,0,0-1.63.32,2.33,2.33,0,0,0-1.43,2.19H243.2a4.61,4.61,0,0,1,.56-2.23,6,6,0,0,1,1.6-1.9,8,8,0,0,1,2.51-1.32,11,11,0,0,1,3.31-.47,9.5,9.5,0,0,1,3.84.74,5.84,5.84,0,0,1,2.68,2.18,6.45,6.45,0,0,1,1,3.67v8.3a14.23,14.23,0,0,0,.18,2.44,6.59,6.59,0,0,0,.56,1.74v.3h-4.73a7.22,7.22,0,0,1-.51-1.83A14,14,0,0,1,254,467Zm.65-7.54,0,2.76h-2.93a7.35,7.35,0,0,0-1.92.22,3.69,3.69,0,0,0-1.35.64,2.47,2.47,0,0,0-.79,1,2.93,2.93,0,0,0-.27,1.28,2.55,2.55,0,0,0,.32,1.27,2.43,2.43,0,0,0,.95.9,3.25,3.25,0,0,0,1.47.31,4.46,4.46,0,0,0,2.15-.49,4.21,4.21,0,0,0,1.42-1.23,2.73,2.73,0,0,0,.55-1.37l1.33,2a7.59,7.59,0,0,1-.74,1.53,6.57,6.57,0,0,1-1.26,1.51,6.34,6.34,0,0,1-4.39,1.62,7.11,7.11,0,0,1-3.31-.74,5.8,5.8,0,0,1-2.3-2,5.13,5.13,0,0,1-.85-2.92,6,6,0,0,1,.57-2.67,5.11,5.11,0,0,1,1.67-1.95,7.67,7.67,0,0,1,2.74-1.21,15.38,15.38,0,0,1,3.78-.42Zm14-7.44v19H264V452Zm-5-5a2.31,2.31,0,0,1,.71-1.73,2.71,2.71,0,0,1,1.93-.68,2.66,2.66,0,0,1,1.92.68A2.29,2.29,0,0,1,269,447a2.25,2.25,0,0,1-.72,1.7,2.63,2.63,0,0,1-1.92.69,2.67,2.67,0,0,1-1.93-.69A2.28,2.28,0,0,1,263.71,447Zm14.86,9v15h-4.64V452h4.36Zm-.74,4.76h-1.37A12.63,12.63,0,0,1,277,457a9.2,9.2,0,0,1,1.53-2.9,6.85,6.85,0,0,1,2.37-1.86,7.14,7.14,0,0,1,3.06-.65,7.42,7.42,0,0,1,2.48.39,4.53,4.53,0,0,1,1.9,1.23,5.43,5.43,0,0,1,1.23,2.21,11,11,0,0,1,.44,3.34V471h-4.67V458.77a4.52,4.52,0,0,0-.39-2.06,2.14,2.14,0,0,0-1.09-1.07,4.26,4.26,0,0,0-1.74-.32,3.9,3.9,0,0,0-1.88.44,3.78,3.78,0,0,0-1.34,1.18,5.81,5.81,0,0,0-.81,1.74A7.55,7.55,0,0,0,277.83,460.8ZM38.57,509v-8.77a3.71,3.71,0,0,0-.34-1.67,2.34,2.34,0,0,0-1-1.09,3.45,3.45,0,0,0-1.74-.39,3.8,3.8,0,0,0-1.63.32,2.34,2.34,0,0,0-1.42,2.19H27.76a4.73,4.73,0,0,1,.56-2.23,6.11,6.11,0,0,1,1.6-1.9,8,8,0,0,1,2.51-1.32,11,11,0,0,1,3.31-.47,9.58,9.58,0,0,1,3.85.74,5.81,5.81,0,0,1,2.67,2.18,6.37,6.37,0,0,1,1,3.67v8.3a14.23,14.23,0,0,0,.18,2.44A7,7,0,0,0,44,512.7v.3H39.25a7.22,7.22,0,0,1-.51-1.83A15.27,15.27,0,0,1,38.57,509Zm.65-7.54,0,2.76H36.32a7.35,7.35,0,0,0-1.92.22,3.69,3.69,0,0,0-1.35.64,2.56,2.56,0,0,0-.79,1A2.93,2.93,0,0,0,32,507.3a2.55,2.55,0,0,0,.32,1.27,2.43,2.43,0,0,0,.95.9,3.26,3.26,0,0,0,1.48.31,4.42,4.42,0,0,0,2.14-.49,4.21,4.21,0,0,0,1.42-1.23,2.64,2.64,0,0,0,.55-1.37l1.34,2a8.16,8.16,0,0,1-.74,1.53,6.62,6.62,0,0,1-1.27,1.51,6.22,6.22,0,0,1-4.39,1.62,7.29,7.29,0,0,1-3.31-.74,5.8,5.8,0,0,1-2.3-2,5.2,5.2,0,0,1-.84-2.92A6,6,0,0,1,27.9,505a5.11,5.11,0,0,1,1.67-1.95,7.75,7.75,0,0,1,2.74-1.21,15.38,15.38,0,0,1,3.78-.42ZM52.88,498v15H48.24V494H52.6Zm-.74,4.76H50.77a12.63,12.63,0,0,1,.56-3.76,9.2,9.2,0,0,1,1.53-2.9,6.79,6.79,0,0,1,2.38-1.86,7.06,7.06,0,0,1,3-.65,7.42,7.42,0,0,1,2.48.39,4.53,4.53,0,0,1,1.9,1.23,5.43,5.43,0,0,1,1.23,2.21,11,11,0,0,1,.44,3.34V513H59.67V500.77a4.52,4.52,0,0,0-.39-2.06,2.14,2.14,0,0,0-1.09-1.07,4.26,4.26,0,0,0-1.74-.32,3.81,3.81,0,0,0-3.22,1.62,5.81,5.81,0,0,0-.81,1.74A7.93,7.93,0,0,0,52.14,502.8ZM80.75,509V486h4.67v27H81.2Zm-12.22-5.24v-.37a14.81,14.81,0,0,1,.49-4,9.14,9.14,0,0,1,1.48-3.07,6.66,6.66,0,0,1,2.34-2,6.81,6.81,0,0,1,3.14-.7,6,6,0,0,1,5.15,2.64,10.22,10.22,0,0,1,1.46,3,20.72,20.72,0,0,1,.79,3.8v1a19.89,19.89,0,0,1-.79,3.71,10.42,10.42,0,0,1-1.46,3A6,6,0,0,1,76,513.35a6.55,6.55,0,0,1-5.47-2.74A9.87,9.87,0,0,1,69,507.55,14.09,14.09,0,0,1,68.53,503.72Zm4.66-.37v.37a11.92,11.92,0,0,0,.21,2.3,6.28,6.28,0,0,0,.68,1.9,3.63,3.63,0,0,0,1.22,1.27,3.48,3.48,0,0,0,1.82.45,4,4,0,0,0,2.25-.59,4.08,4.08,0,0,0,1.39-1.67A7.84,7.84,0,0,0,81.4,505v-2.76a7.76,7.76,0,0,0-.37-1.95,4.66,4.66,0,0,0-.81-1.55,3.52,3.52,0,0,0-1.27-1,4,4,0,0,0-1.79-.37,3.35,3.35,0,0,0-1.83.48,3.52,3.52,0,0,0-1.23,1.28,6.36,6.36,0,0,0-.7,1.91A12.56,12.56,0,0,0,73.19,503.35ZM106.47,513h-4.68V492.22a7.21,7.21,0,0,1,.83-3.6,5.39,5.39,0,0,1,2.35-2.23,8,8,0,0,1,3.61-.76,9,9,0,0,1,1.3.09c.42.06.84.14,1.25.24L111,489.5a4,4,0,0,0-.74-.12,7.53,7.53,0,0,0-.86,0,3.66,3.66,0,0,0-1.62.33,2.43,2.43,0,0,0-1,1,3.33,3.33,0,0,0-.33,1.56Zm3.85-19v3.34H98.93V494Zm2.94,9.7v-.37a11.91,11.91,0,0,1,.6-3.85,8.67,8.67,0,0,1,1.74-3.07,7.77,7.77,0,0,1,2.79-2,9.17,9.17,0,0,1,3.76-.74,9.27,9.27,0,0,1,3.8.74,7.76,7.76,0,0,1,2.81,2,9,9,0,0,1,1.74,3.07,11.91,11.91,0,0,1,.6,3.85v.37a11.91,11.91,0,0,1-.6,3.85,9.23,9.23,0,0,1-1.74,3.08,7.77,7.77,0,0,1-2.79,2,10.28,10.28,0,0,1-7.56,0,7.68,7.68,0,0,1-2.81-2,8.9,8.9,0,0,1-1.74-3.08A11.91,11.91,0,0,1,113.26,503.68Zm4.64-.37v.37a10.78,10.78,0,0,0,.24,2.34,6.37,6.37,0,0,0,.76,1.92,3.82,3.82,0,0,0,1.32,1.3,4.07,4.07,0,0,0,2,.46,3.91,3.91,0,0,0,1.93-.46,3.82,3.82,0,0,0,1.32-1.3,5.9,5.9,0,0,0,.77-1.92,10.18,10.18,0,0,0,.25-2.34v-.37a10,10,0,0,0-.25-2.3,5.93,5.93,0,0,0-.77-1.91,3.61,3.61,0,0,0-1.34-1.32,3.67,3.67,0,0,0-1.95-.49,3.64,3.64,0,0,0-3.25,1.81,6.41,6.41,0,0,0-.76,1.91A10.54,10.54,0,0,0,117.9,503.31ZM140,497.86V513h-4.63V494h4.39Zm5.79-4-.07,4.32c-.26,0-.55-.08-.88-.1s-.62,0-.9,0a5.41,5.41,0,0,0-1.88.3,3.42,3.42,0,0,0-1.35.83,3.72,3.72,0,0,0-.81,1.33,5.87,5.87,0,0,0-.32,1.76l-1-.12a14.24,14.24,0,0,1,.37-3.36,9.59,9.59,0,0,1,1.07-2.71,5.2,5.2,0,0,1,1.76-1.79,4.71,4.71,0,0,1,2.46-.65,4.89,4.89,0,0,1,.83.07A2.76,2.76,0,0,1,145.8,493.86Zm8.07,4V513h-4.64V494h4.38Zm-.69,4.92h-1.42a13.16,13.16,0,0,1,.48-3.65,8.48,8.48,0,0,1,1.44-2.9,6.61,6.61,0,0,1,2.33-1.94,7.48,7.48,0,0,1,3.26-.68,6.82,6.82,0,0,1,2.35.39,4.5,4.5,0,0,1,1.85,1.17,5.23,5.23,0,0,1,1.21,2.08,9.66,9.66,0,0,1,.42,3V513h-4.64V500.78a4.63,4.63,0,0,0-.39-2.09,2.07,2.07,0,0,0-1.07-1.05,4.09,4.09,0,0,0-1.68-.32,3.88,3.88,0,0,0-1.89.44,3.61,3.61,0,0,0-1.28,1.18,5.71,5.71,0,0,0-.74,1.74A9.44,9.44,0,0,0,153.18,502.8Zm11.57-.86-1.91.36a11.71,11.71,0,0,1,.49-3.36,8.15,8.15,0,0,1,1.39-2.76,6.44,6.44,0,0,1,2.3-1.87,7.24,7.24,0,0,1,3.2-.68,7.46,7.46,0,0,1,2.53.4,4.78,4.78,0,0,1,1.95,1.25,5.45,5.45,0,0,1,1.23,2.2,10.85,10.85,0,0,1,.44,3.3V513H171.7V500.77a4.65,4.65,0,0,0-.39-2.13,2.08,2.08,0,0,0-1.07-1,4.21,4.21,0,0,0-1.66-.3,3.59,3.59,0,0,0-1.68.37,3.44,3.44,0,0,0-1.2,1,4.53,4.53,0,0,0-.72,1.48A6.8,6.8,0,0,0,164.75,501.94Zm37.87,6.54V494h4.68v19h-4.4Zm.6-3.93,1.44,0a14,14,0,0,1-.42,3.53,8,8,0,0,1-1.32,2.82,6.15,6.15,0,0,1-2.23,1.84,7.23,7.23,0,0,1-3.2.65,8.35,8.35,0,0,1-2.57-.38,5.26,5.26,0,0,1-2-1.25,6,6,0,0,1-1.29-2.2,10.37,10.37,0,0,1-.45-3.25V494h4.64V506.3a5.15,5.15,0,0,0,.21,1.59,2.83,2.83,0,0,0,.62,1,2.28,2.28,0,0,0,.93.56,4,4,0,0,0,1.16.16,4.64,4.64,0,0,0,2.65-.66,3.77,3.77,0,0,0,1.41-1.83A7.62,7.62,0,0,0,203.22,504.55ZM217,497.86V513h-4.64V494h4.4Zm5.78-4-.07,4.32c-.25,0-.55-.08-.87-.1s-.62,0-.9,0a5.37,5.37,0,0,0-1.88.3,3.3,3.3,0,0,0-2.16,2.16,5.57,5.57,0,0,0-.32,1.76l-1-.12a14.24,14.24,0,0,1,.37-3.36,9.3,9.3,0,0,1,1.07-2.71,5.12,5.12,0,0,1,1.76-1.79,4.66,4.66,0,0,1,2.46-.65,4.78,4.78,0,0,1,.82.07A2.58,2.58,0,0,1,222.73,493.86ZM231.1,486v27h-4.65V486Zm15.79,21.8a1.87,1.87,0,0,0-.31-1.07,2.7,2.7,0,0,0-1.2-.87,11.89,11.89,0,0,0-2.53-.75,19.4,19.4,0,0,1-2.72-.79,8.72,8.72,0,0,1-2.15-1.15,5.09,5.09,0,0,1-1.41-1.6,4.59,4.59,0,0,1-.49-2.14,5,5,0,0,1,.51-2.22,5.52,5.52,0,0,1,1.48-1.84,7.09,7.09,0,0,1,2.36-1.27,9.74,9.74,0,0,1,3.12-.47,10,10,0,0,1,4.17.79,6.2,6.2,0,0,1,2.69,2.18,5.38,5.38,0,0,1,.93,3.09H246.7a2.76,2.76,0,0,0-.35-1.37,2.36,2.36,0,0,0-1-1,3.62,3.62,0,0,0-1.77-.39,3.84,3.84,0,0,0-1.64.32,2.36,2.36,0,0,0-1,.82,2.05,2.05,0,0,0-.34,1.13,1.9,1.9,0,0,0,.18.83,2.05,2.05,0,0,0,.61.65,4.77,4.77,0,0,0,1.15.54,17.15,17.15,0,0,0,1.81.47,18.28,18.28,0,0,1,3.71,1.13,6.27,6.27,0,0,1,2.49,1.83,4.56,4.56,0,0,1,.9,2.92,4.93,4.93,0,0,1-.55,2.32,5.4,5.4,0,0,1-1.58,1.81,8.08,8.08,0,0,1-2.48,1.21,11.59,11.59,0,0,1-3.25.42,9.61,9.61,0,0,1-4.43-.93A7,7,0,0,1,236.4,510a5.54,5.54,0,0,1-.93-3h4.44a3,3,0,0,0,.6,1.77,3.11,3.11,0,0,0,1.37,1,5.57,5.57,0,0,0,1.78.28,4.83,4.83,0,0,0,1.77-.28,2.49,2.49,0,0,0,1.09-.79A1.91,1.91,0,0,0,246.89,507.8Z" transform="translate(0 -40.85)"/><path class="cls-13" d="M459.29,865.67H452.7v-3.8h6.59a5.67,5.67,0,0,0,2.62-.53,3.38,3.38,0,0,0,1.49-1.48,4.7,4.7,0,0,0,.48-2.16,5.08,5.08,0,0,0-.48-2.19,3.89,3.89,0,0,0-1.49-1.66,4.89,4.89,0,0,0-2.62-.63h-5V875h-4.84V849.41h9.85a11.1,11.1,0,0,1,5.1,1.07,7.55,7.55,0,0,1,3.23,2.93,8.09,8.09,0,0,1,1.12,4.26,7.88,7.88,0,0,1-1.12,4.27,7.21,7.21,0,0,1-3.23,2.76A12.28,12.28,0,0,1,459.29,865.67Zm12.73,0v-.37a12.08,12.08,0,0,1,.59-3.84,8.8,8.8,0,0,1,1.75-3.08,7.77,7.77,0,0,1,2.79-2,9.17,9.17,0,0,1,3.76-.74,9.27,9.27,0,0,1,3.8.74,7.76,7.76,0,0,1,2.81,2,8.94,8.94,0,0,1,1.74,3.08,11.8,11.8,0,0,1,.6,3.84v.37a11.91,11.91,0,0,1-.6,3.85,9.13,9.13,0,0,1-1.74,3.08,7.77,7.77,0,0,1-2.79,2,10.28,10.28,0,0,1-7.56,0,7.68,7.68,0,0,1-2.81-2,9,9,0,0,1-1.75-3.08A12.19,12.19,0,0,1,472,865.68Zm4.64-.37v.37a10.85,10.85,0,0,0,.24,2.34,6.37,6.37,0,0,0,.76,1.92,3.82,3.82,0,0,0,1.32,1.3,4,4,0,0,0,2,.46,3.91,3.91,0,0,0,1.93-.46,3.82,3.82,0,0,0,1.32-1.3A5.9,5.9,0,0,0,485,868a10.24,10.24,0,0,0,.25-2.34v-.37A10,10,0,0,0,485,863a5.84,5.84,0,0,0-.77-1.91,3.61,3.61,0,0,0-1.34-1.32,3.67,3.67,0,0,0-1.95-.5,3.67,3.67,0,0,0-3.25,1.82,6.31,6.31,0,0,0-.76,1.91A10.54,10.54,0,0,0,476.66,865.31Zm22.11-5.45V875h-4.64V856h4.4Zm5.79-4-.07,4.32c-.26,0-.55-.08-.88-.1s-.62,0-.9,0a5.41,5.41,0,0,0-1.88.3,3.42,3.42,0,0,0-1.35.83,3.63,3.63,0,0,0-.81,1.33,5.87,5.87,0,0,0-.32,1.76l-1-.12a14.24,14.24,0,0,1,.37-3.36,9.59,9.59,0,0,1,1.07-2.71,5.2,5.2,0,0,1,1.76-1.79,4.68,4.68,0,0,1,2.46-.65,5,5,0,0,1,.83.07A2.76,2.76,0,0,1,504.56,855.86Zm13.33.12v3.34H507V856Zm-8-4.68h4.66v18.22a3,3,0,0,0,.23,1.3,1.15,1.15,0,0,0,.69.61,3.21,3.21,0,0,0,1.09.16,7.3,7.3,0,0,0,.84-.05c.26,0,.48-.07.65-.11l0,3.48a8.52,8.52,0,0,1-1.32.32,10,10,0,0,1-1.63.12,6.55,6.55,0,0,1-2.75-.53,4,4,0,0,1-1.83-1.74,6.76,6.76,0,0,1-.65-3.19ZM532.36,871v-8.77a3.85,3.85,0,0,0-.34-1.67,2.34,2.34,0,0,0-1-1.09,3.47,3.47,0,0,0-1.74-.39,4.12,4.12,0,0,0-1.63.31,2.48,2.48,0,0,0-1.06.9,2.38,2.38,0,0,0-.37,1.3h-4.66a4.62,4.62,0,0,1,.57-2.23,5.87,5.87,0,0,1,1.6-1.9,8,8,0,0,1,2.51-1.32,11,11,0,0,1,3.31-.47,9.58,9.58,0,0,1,3.85.74,5.86,5.86,0,0,1,2.67,2.18,6.45,6.45,0,0,1,1,3.67v8.3a14.23,14.23,0,0,0,.18,2.44,6.59,6.59,0,0,0,.56,1.74v.3H533a7.22,7.22,0,0,1-.51-1.83A14,14,0,0,1,532.36,871Zm.65-7.54,0,2.76h-2.93a7.35,7.35,0,0,0-1.92.22,3.53,3.53,0,0,0-1.35.64,2.59,2.59,0,0,0-.8,1,3.08,3.08,0,0,0-.26,1.28,2.55,2.55,0,0,0,.32,1.27,2.43,2.43,0,0,0,.95.9,3.25,3.25,0,0,0,1.47.31,4.46,4.46,0,0,0,2.15-.49,4.21,4.21,0,0,0,1.42-1.23,2.73,2.73,0,0,0,.55-1.37l1.33,2a7.59,7.59,0,0,1-.74,1.53,6.57,6.57,0,0,1-1.26,1.51,6.69,6.69,0,0,1-1.86,1.17,6.6,6.6,0,0,1-2.53.45,7.23,7.23,0,0,1-3.31-.74,5.8,5.8,0,0,1-2.3-2,5.21,5.21,0,0,1-.85-2.92,6,6,0,0,1,.57-2.67,5.11,5.11,0,0,1,1.67-2,7.67,7.67,0,0,1,2.74-1.21,15.38,15.38,0,0,1,3.78-.42ZM547,848v27h-4.66V848Zm21.27,27h-4.67V854.22a7.21,7.21,0,0,1,.82-3.6,5.41,5.41,0,0,1,2.36-2.23,8,8,0,0,1,3.6-.76,9,9,0,0,1,1.3.09A10.24,10.24,0,0,1,573,848l-.09,3.53a4,4,0,0,0-.73-.12,7.71,7.71,0,0,0-.87,0,3.58,3.58,0,0,0-1.61.33,2.27,2.27,0,0,0-1,1,3.21,3.21,0,0,0-.34,1.56Zm3.85-19v3.34H560.77V856Zm2.94,9.7v-.37a11.8,11.8,0,0,1,.6-3.84,8.94,8.94,0,0,1,1.74-3.08,7.77,7.77,0,0,1,2.79-2,10,10,0,0,1,7.56,0,7.8,7.8,0,0,1,2.82,2,8.94,8.94,0,0,1,1.74,3.08,12.08,12.08,0,0,1,.59,3.84v.37a12.19,12.19,0,0,1-.59,3.85,9.13,9.13,0,0,1-1.74,3.08,7.9,7.9,0,0,1-2.8,2,9.37,9.37,0,0,1-3.78.72,9.51,9.51,0,0,1-3.78-.72,7.76,7.76,0,0,1-2.81-2,9.13,9.13,0,0,1-1.74-3.08A11.91,11.91,0,0,1,575.1,865.68Zm4.64-.37v.37A10.83,10.83,0,0,0,580,868a6.36,6.36,0,0,0,.75,1.92,3.91,3.91,0,0,0,1.32,1.3,4.07,4.07,0,0,0,2,.46,4,4,0,0,0,1.94-.46,3.79,3.79,0,0,0,1.31-1.3,5.91,5.91,0,0,0,.78-1.92,10.85,10.85,0,0,0,.24-2.34v-.37a10.54,10.54,0,0,0-.24-2.3,5.86,5.86,0,0,0-.78-1.91,3.58,3.58,0,0,0-1.33-1.32,4,4,0,0,0-3.89,0,3.71,3.71,0,0,0-1.32,1.32A6.3,6.3,0,0,0,580,863,10.53,10.53,0,0,0,579.74,865.31Zm22.12-5.45V875h-4.64V856h4.39Zm5.78-4-.07,4.32c-.25,0-.55-.08-.88-.1s-.61,0-.89,0a5.37,5.37,0,0,0-1.88.3,3.54,3.54,0,0,0-1.36.83,3.63,3.63,0,0,0-.81,1.33,5.88,5.88,0,0,0-.31,1.76l-1-.12a14.8,14.8,0,0,1,.36-3.36,9.6,9.6,0,0,1,1.08-2.71,5.12,5.12,0,0,1,1.76-1.79,4.66,4.66,0,0,1,2.46-.65,4.86,4.86,0,0,1,.82.07A2.58,2.58,0,0,1,607.64,855.86ZM627,875h-4.68V854.22a7.21,7.21,0,0,1,.83-3.6,5.39,5.39,0,0,1,2.35-2.23,8,8,0,0,1,3.61-.76,9,9,0,0,1,1.3.09,10.63,10.63,0,0,1,1.25.25l-.09,3.53a4,4,0,0,0-.74-.12,7.53,7.53,0,0,0-.86,0,3.66,3.66,0,0,0-1.62.33,2.38,2.38,0,0,0-1,1,3.33,3.33,0,0,0-.33,1.56Zm3.85-19v3.34H619.5V856Zm2.94,9.7v-.37a12.08,12.08,0,0,1,.59-3.84,8.94,8.94,0,0,1,1.74-3.08,7.9,7.9,0,0,1,2.8-2,9.17,9.17,0,0,1,3.76-.74,9.27,9.27,0,0,1,3.8.74,7.76,7.76,0,0,1,2.81,2,8.94,8.94,0,0,1,1.74,3.08,11.8,11.8,0,0,1,.6,3.84v.37a11.91,11.91,0,0,1-.6,3.85,9.13,9.13,0,0,1-1.74,3.08,7.77,7.77,0,0,1-2.79,2,10.28,10.28,0,0,1-7.56,0,7.8,7.8,0,0,1-2.82-2,9.13,9.13,0,0,1-1.74-3.08A12.19,12.19,0,0,1,633.83,865.68Zm4.64-.37v.37a10.85,10.85,0,0,0,.24,2.34,6.37,6.37,0,0,0,.76,1.92,3.82,3.82,0,0,0,1.32,1.3,4,4,0,0,0,2,.46,3.91,3.91,0,0,0,1.93-.46,3.82,3.82,0,0,0,1.32-1.3,5.9,5.9,0,0,0,.77-1.92,10.24,10.24,0,0,0,.25-2.34v-.37a10,10,0,0,0-.25-2.3,5.84,5.84,0,0,0-.77-1.91,3.61,3.61,0,0,0-1.34-1.32,3.67,3.67,0,0,0-1.95-.5,3.67,3.67,0,0,0-3.25,1.82,6.31,6.31,0,0,0-.76,1.91A10.54,10.54,0,0,0,638.47,865.31Zm22.12-5.45V875h-4.65V856h4.4Zm5.78-4-.07,4.32c-.26,0-.55-.08-.88-.1s-.62,0-.9,0a5.41,5.41,0,0,0-1.88.3,3.42,3.42,0,0,0-1.35.83,3.63,3.63,0,0,0-.81,1.33,5.87,5.87,0,0,0-.32,1.76l-1-.12a14.24,14.24,0,0,1,.37-3.36,9.59,9.59,0,0,1,1.07-2.71,5.2,5.2,0,0,1,1.76-1.79,4.71,4.71,0,0,1,2.46-.65,5,5,0,0,1,.83.07A2.76,2.76,0,0,1,666.37,855.86Zm8.07,4V875H669.8V856h4.38Zm-.69,4.92h-1.42a13.55,13.55,0,0,1,.47-3.65,8.59,8.59,0,0,1,1.45-2.9,6.61,6.61,0,0,1,2.33-1.94,7.48,7.48,0,0,1,3.26-.68,6.82,6.82,0,0,1,2.35.39,4.5,4.5,0,0,1,1.85,1.17,5.11,5.11,0,0,1,1.21,2.08,9.66,9.66,0,0,1,.42,3V875H681V862.78a4.79,4.79,0,0,0-.38-2.09,2.12,2.12,0,0,0-1.08-1.05,4.09,4.09,0,0,0-1.68-.32,3.88,3.88,0,0,0-1.89.44,3.61,3.61,0,0,0-1.28,1.18,5.71,5.71,0,0,0-.74,1.74A9.44,9.44,0,0,0,673.75,864.8Zm11.57-.86-1.91.35a11.69,11.69,0,0,1,.49-3.35,8.15,8.15,0,0,1,1.39-2.76,6.44,6.44,0,0,1,2.3-1.87,7.21,7.21,0,0,1,3.2-.68,7.46,7.46,0,0,1,2.53.4,4.78,4.78,0,0,1,1.95,1.25,5.45,5.45,0,0,1,1.23,2.2,10.85,10.85,0,0,1,.44,3.3V875h-4.68V862.77a4.66,4.66,0,0,0-.38-2.13,2.06,2.06,0,0,0-1.08-1,4.12,4.12,0,0,0-1.65-.3,3.59,3.59,0,0,0-1.68.37,3.44,3.44,0,0,0-1.2,1,4.53,4.53,0,0,0-.72,1.48A6.8,6.8,0,0,0,685.32,863.94Zm31.19-4.08V875h-4.64V856h4.4Zm5.78-4-.07,4.32c-.25,0-.55-.08-.88-.1s-.61,0-.89,0a5.37,5.37,0,0,0-1.88.3,3.54,3.54,0,0,0-1.36.83,3.48,3.48,0,0,0-.8,1.33,5.57,5.57,0,0,0-.32,1.76l-1-.12a14.24,14.24,0,0,1,.37-3.36,9.3,9.3,0,0,1,1.07-2.71,5.12,5.12,0,0,1,1.76-1.79,4.66,4.66,0,0,1,2.46-.65,4.78,4.78,0,0,1,.82.07A2.58,2.58,0,0,1,722.29,855.86Zm11.64,19.49a10.16,10.16,0,0,1-3.88-.7,8.59,8.59,0,0,1-2.94-1.95,9,9,0,0,1-1.84-2.94,10.24,10.24,0,0,1-.63-3.62v-.7a11.93,11.93,0,0,1,.63-4,9.06,9.06,0,0,1,1.79-3.11,7.94,7.94,0,0,1,2.78-2,9.58,9.58,0,0,1,7.14,0,6.94,6.94,0,0,1,2.58,1.9,8.29,8.29,0,0,1,1.56,3,12.42,12.42,0,0,1,.53,3.78v1.95H726.74v-3.2h10.34v-.35a5.53,5.53,0,0,0-.42-2,3.22,3.22,0,0,0-1.2-1.47,4,4,0,0,0-3.9-.11A3.65,3.65,0,0,0,730.3,861a6.12,6.12,0,0,0-.74,1.93,11.32,11.32,0,0,0-.25,2.5v.7a7.37,7.37,0,0,0,.32,2.21,5.26,5.26,0,0,0,1,1.78,4.78,4.78,0,0,0,1.55,1.16,5.08,5.08,0,0,0,2.08.41,5.94,5.94,0,0,0,2.63-.57,5.81,5.81,0,0,0,2.08-1.7l2.34,2.42a7.74,7.74,0,0,1-1.62,1.69,8.28,8.28,0,0,1-2.43,1.32A10,10,0,0,1,733.93,875.35Zm22.19-5.55a1.85,1.85,0,0,0-.32-1.08,2.73,2.73,0,0,0-1.19-.86,11.89,11.89,0,0,0-2.53-.75,19.55,19.55,0,0,1-2.73-.79,8.83,8.83,0,0,1-2.14-1.15,5.09,5.09,0,0,1-1.41-1.6,4.47,4.47,0,0,1-.49-2.14,4.94,4.94,0,0,1,.51-2.21,5.34,5.34,0,0,1,1.48-1.85,7.14,7.14,0,0,1,2.35-1.27,9.85,9.85,0,0,1,3.13-.47,10,10,0,0,1,4.17.79,6.2,6.2,0,0,1,2.69,2.18,5.36,5.36,0,0,1,.93,3.09h-4.64a2.76,2.76,0,0,0-.35-1.37,2.41,2.41,0,0,0-1-1,3.64,3.64,0,0,0-1.78-.39,3.82,3.82,0,0,0-1.63.32,2.36,2.36,0,0,0-1,.82,2,2,0,0,0-.34,1.13,1.83,1.83,0,0,0,.18.82,2,2,0,0,0,.61.66,4.34,4.34,0,0,0,1.14.54c.5.16,1.1.32,1.81.48a17.33,17.33,0,0,1,3.71,1.12,6.24,6.24,0,0,1,2.5,1.83,4.56,4.56,0,0,1,.9,2.92,5.05,5.05,0,0,1-.55,2.32,5.4,5.4,0,0,1-1.58,1.81,8.08,8.08,0,0,1-2.48,1.21,11.59,11.59,0,0,1-3.25.42,9.61,9.61,0,0,1-4.43-.93,7,7,0,0,1-2.74-2.39,5.54,5.54,0,0,1-.93-3h4.44a3,3,0,0,0,.6,1.77,3.05,3.05,0,0,0,1.37,1,5.53,5.53,0,0,0,1.78.28,4.83,4.83,0,0,0,1.77-.28,2.57,2.57,0,0,0,1.09-.79A1.91,1.91,0,0,0,756.12,869.8Zm13.61-10.16v22.67h-4.66V856h4.31ZM782,865.3v.37a14.76,14.76,0,0,1-.49,3.85,9.73,9.73,0,0,1-1.41,3.07,6.58,6.58,0,0,1-2.32,2,6.69,6.69,0,0,1-3.16.72,6.52,6.52,0,0,1-3.06-.67,6.24,6.24,0,0,1-2.2-1.93,10.48,10.48,0,0,1-1.44-2.9,21.2,21.2,0,0,1-.79-3.64V865a21.8,21.8,0,0,1,.79-3.79,10.26,10.26,0,0,1,1.44-3,6.26,6.26,0,0,1,2.18-2,6.52,6.52,0,0,1,3-.68,7.09,7.09,0,0,1,3.18.68,6.44,6.44,0,0,1,2.34,2,9,9,0,0,1,1.42,3.06A15.18,15.18,0,0,1,782,865.3Zm-4.66.37v-.37a11.32,11.32,0,0,0-.23-2.34,6.36,6.36,0,0,0-.7-1.9,3.52,3.52,0,0,0-1.23-1.28,3.46,3.46,0,0,0-1.83-.46,4.52,4.52,0,0,0-1.85.35,3.36,3.36,0,0,0-1.26,1,5.13,5.13,0,0,0-.78,1.55,10.12,10.12,0,0,0-.35,1.95v2.92a8.19,8.19,0,0,0,.62,2.34,3.88,3.88,0,0,0,1.33,1.65,4,4,0,0,0,2.32.62,3.33,3.33,0,0,0,1.83-.48,3.58,3.58,0,0,0,1.23-1.3,6.3,6.3,0,0,0,.69-1.93A12.28,12.28,0,0,0,777.29,865.67Zm8.12,0v-.37a11.8,11.8,0,0,1,.6-3.84,8.94,8.94,0,0,1,1.74-3.08,7.81,7.81,0,0,1,2.8-2,10,10,0,0,1,7.55,0,7.71,7.71,0,0,1,2.82,2,8.94,8.94,0,0,1,1.74,3.08,11.8,11.8,0,0,1,.6,3.84v.37a11.91,11.91,0,0,1-.6,3.85,9.13,9.13,0,0,1-1.74,3.08,7.81,7.81,0,0,1-2.8,2,9.37,9.37,0,0,1-3.78.72,9.51,9.51,0,0,1-3.78-.72,7.76,7.76,0,0,1-2.81-2,9.13,9.13,0,0,1-1.74-3.08A11.91,11.91,0,0,1,785.41,865.68Zm4.64-.37v.37a10.83,10.83,0,0,0,.25,2.34,6.37,6.37,0,0,0,.76,1.92,3.82,3.82,0,0,0,1.32,1.3,4,4,0,0,0,2,.46,4,4,0,0,0,1.94-.46,3.82,3.82,0,0,0,1.32-1.3,5.9,5.9,0,0,0,.77-1.92,10.85,10.85,0,0,0,.24-2.34v-.37a10.54,10.54,0,0,0-.24-2.3,5.84,5.84,0,0,0-.77-1.91,3.61,3.61,0,0,0-1.34-1.32,3.67,3.67,0,0,0-2-.5,3.67,3.67,0,0,0-3.25,1.82,6.31,6.31,0,0,0-.76,1.91A10.53,10.53,0,0,0,790.05,865.31Zm22-5.27v15h-4.64V856h4.36Zm-.74,4.76H810a12.62,12.62,0,0,1,.57-3.76,8.81,8.81,0,0,1,1.53-2.9,6.76,6.76,0,0,1,2.37-1.86,7.08,7.08,0,0,1,3.06-.65A7.46,7.46,0,0,1,820,856a4.6,4.6,0,0,1,1.9,1.23,5.53,5.53,0,0,1,1.22,2.21,10.73,10.73,0,0,1,.44,3.34V875h-4.67V862.77a4.52,4.52,0,0,0-.39-2.06,2.14,2.14,0,0,0-1.09-1.07,4.26,4.26,0,0,0-1.74-.32,3.92,3.92,0,0,0-1.88.44,3.87,3.87,0,0,0-1.34,1.18,5.56,5.56,0,0,0-.8,1.74A7.54,7.54,0,0,0,811.34,864.8ZM840,871V848h4.67v27h-4.21Zm-12.22-5.24v-.37a15.09,15.09,0,0,1,.49-4,9.29,9.29,0,0,1,1.48-3.08,6.66,6.66,0,0,1,2.34-2,6.81,6.81,0,0,1,3.14-.7,6.27,6.27,0,0,1,3,.68,6.35,6.35,0,0,1,2.18,2,10.21,10.21,0,0,1,1.45,3,20.7,20.7,0,0,1,.8,3.8v1a19.87,19.87,0,0,1-.8,3.71,10.41,10.41,0,0,1-1.45,3,6.5,6.5,0,0,1-2.18,1.94,6.39,6.39,0,0,1-3,.68,6.71,6.71,0,0,1-3.13-.72,6.93,6.93,0,0,1-2.34-2,9.87,9.87,0,0,1-1.46-3.06A14.49,14.49,0,0,1,827.73,865.72Zm4.66-.37v.37a11.92,11.92,0,0,0,.21,2.3,6,6,0,0,0,.69,1.9,3.6,3.6,0,0,0,1.21,1.27,3.5,3.5,0,0,0,1.83.45,3.93,3.93,0,0,0,2.25-.6,4.06,4.06,0,0,0,1.39-1.66,7.83,7.83,0,0,0,.63-2.41v-2.76a7.76,7.76,0,0,0-.37-2,4.66,4.66,0,0,0-.81-1.55,3.69,3.69,0,0,0-1.26-1,4,4,0,0,0-1.8-.37,3.46,3.46,0,0,0-1.83.47,3.63,3.63,0,0,0-1.23,1.29,6.64,6.64,0,0,0-.7,1.91A12.56,12.56,0,0,0,832.39,865.35Zm25.88,10a10.21,10.21,0,0,1-3.89-.7,8.55,8.55,0,0,1-2.93-1.95,9.05,9.05,0,0,1-1.85-2.94,10.24,10.24,0,0,1-.63-3.62v-.7a11.93,11.93,0,0,1,.63-4,8.93,8.93,0,0,1,1.8-3.11,7.81,7.81,0,0,1,2.77-2,9.58,9.58,0,0,1,7.14,0,6.94,6.94,0,0,1,2.58,1.9,8.15,8.15,0,0,1,1.57,3A12.75,12.75,0,0,1,866,865v1.95h-14.9v-3.2h10.33v-.35a5.53,5.53,0,0,0-.42-2,3.2,3.2,0,0,0-1.19-1.47,3.56,3.56,0,0,0-2.09-.57,3.5,3.5,0,0,0-1.81.46,3.59,3.59,0,0,0-1.27,1.27,6.12,6.12,0,0,0-.74,1.93,12,12,0,0,0-.24,2.5v.7a7.38,7.38,0,0,0,.31,2.21,5.28,5.28,0,0,0,1,1.78,4.74,4.74,0,0,0,1.54,1.16,5.15,5.15,0,0,0,2.08.41,6,6,0,0,0,2.64-.57,5.87,5.87,0,0,0,2.07-1.7l2.34,2.42a7.74,7.74,0,0,1-1.62,1.69,8.16,8.16,0,0,1-2.43,1.32A9.93,9.93,0,0,1,858.27,875.35Zm16.37-15.49V875H870V856h4.39Zm5.78-4-.07,4.32c-.26,0-.55-.08-.88-.1s-.61,0-.89,0a5.43,5.43,0,0,0-1.89.3,3.5,3.5,0,0,0-1.35.83,3.63,3.63,0,0,0-.81,1.33,5.58,5.58,0,0,0-.31,1.76l-1-.12a14.78,14.78,0,0,1,.37-3.36,9.6,9.6,0,0,1,1.08-2.71,5.09,5.09,0,0,1,1.75-1.79,4.71,4.71,0,0,1,2.46-.65,4.89,4.89,0,0,1,.83.07A2.76,2.76,0,0,1,880.42,855.86Zm13.91,13.94a1.93,1.93,0,0,0-.32-1.08,2.79,2.79,0,0,0-1.19-.86,12,12,0,0,0-2.54-.75,19.4,19.4,0,0,1-2.72-.79,8.65,8.65,0,0,1-2.14-1.15,5.09,5.09,0,0,1-1.41-1.6,4.47,4.47,0,0,1-.49-2.14,4.94,4.94,0,0,1,.51-2.21,5.43,5.43,0,0,1,1.47-1.85,7.19,7.19,0,0,1,2.36-1.27,9.8,9.8,0,0,1,3.13-.47,10,10,0,0,1,4.16.79,6.14,6.14,0,0,1,2.69,2.18,5.3,5.3,0,0,1,.94,3.09h-4.64a2.67,2.67,0,0,0-.36-1.37,2.33,2.33,0,0,0-1-1A3.64,3.64,0,0,0,891,859a3.79,3.79,0,0,0-1.63.32,2.33,2.33,0,0,0-1,.82,2,2,0,0,0-.33,1.13,2,2,0,0,0,.17.82,2,2,0,0,0,.62.66,4.34,4.34,0,0,0,1.14.54c.49.16,1.1.32,1.81.48a17.33,17.33,0,0,1,3.71,1.12,6.24,6.24,0,0,1,2.5,1.83,4.62,4.62,0,0,1,.89,2.92,5,5,0,0,1-.54,2.32,5.4,5.4,0,0,1-1.58,1.81,8.19,8.19,0,0,1-2.48,1.21,11.64,11.64,0,0,1-3.25.42,9.58,9.58,0,0,1-4.43-.93,7.13,7.13,0,0,1-2.75-2.39,5.54,5.54,0,0,1-.93-3h4.45a2.93,2.93,0,0,0,.6,1.77,3.05,3.05,0,0,0,1.37,1,5.47,5.47,0,0,0,1.77.28,4.85,4.85,0,0,0,1.78-.28A2.64,2.64,0,0,0,894,871,1.91,1.91,0,0,0,894.33,869.8Z" transform="translate(0 -40.85)"/></svg>