<svg width="44" height="24" viewBox="0 0 44 24" fill="none" xmlns="http://www.w3.org/2000/svg">
<path d="M44 4C44 6.2 42.2 8 40 8C39.64 8 39.3 7.96 38.98 7.86L31.86 14.96C31.96 15.28 32 15.64 32 16C32 18.2 30.2 20 28 20C25.8 20 24 18.2 24 16C24 15.64 24.04 15.28 24.14 14.96L19.04 9.86C18.72 9.96 18.36 10 18 10C17.64 10 17.28 9.96 16.96 9.86L7.86 18.98C7.96 19.3 8 19.64 8 20C8 22.2 6.2 24 4 24C1.8 24 0 22.2 0 20C0 17.8 1.8 16 4 16C4.36 16 4.7 16.04 5.02 16.14L14.14 7.04C14.04 6.72 14 6.36 14 6C14 3.8 15.8 2 18 2C20.2 2 22 3.8 22 6C22 6.36 21.96 6.72 21.86 7.04L26.96 12.14C27.28 12.04 27.64 12 28 12C28.36 12 28.72 12.04 29.04 12.14L36.14 5.02C36.04 4.7 36 4.36 36 4C36 1.8 37.8 0 40 0C42.2 0 44 1.8 44 4Z" fill="#4979D1"/>
</svg>
