<svg width="1440" height="1024" xmlns="http://www.w3.org/2000/svg" viewBox="0 0 320.1 259.02"><defs><style>.cls-1{fill:#fff;}.cls-2{fill:#007aff;}.cls-3{fill:#0462b7;}.cls-15,.cls-4{fill:#303549;}.cls-5{fill:#003768;}.cls-6{fill:#015086;}.cls-18,.cls-19,.cls-7{fill:#3d425b;}.cls-8{fill:#115e9b;}.cls-9{fill:#616984;}.cls-10{fill:#f8ab98;}.cls-11{fill:#f5927e;}.cls-12{fill:#02a595;}.cls-13{fill:#0e685d;}.cls-14{fill:#1bc9b4;}.cls-15{fill-rule:evenodd;}.cls-16{fill:#5b637f;}.cls-17{fill:#064a7c;}.cls-18{font-size:15.41px;font-family:GreatVibes-Regular, Great Vibes;}.cls-19{font-size:27.21px;font-family:BookAntiqua, Book Antiqua;}</style></defs><g id="OBJECT"><path class="cls-1" d="M413.79,380.49s.47-28.38,38.7-29.4,41.07-34.39,24.33-49.37-36.48-63.94,4-83.37,44.83,25.54,88.68,9.74c32.44-11.68,6.8-63.9,42.07-73.47,28.87-7.83,81,30.18,49,112.56-16,41.29-35.1,44.29-30.12,61,8.47,28.44,50.54,10.53,58.37,52.28Z" transform="translate(-392.58 -131.61)"/><rect class="cls-2" x="227.71" y="75.29" width="50.51" height="104.56"/><path class="cls-3" d="M677.42,311.47H664.17V213.53a6.63,6.63,0,0,1,13.25,0Z" transform="translate(-392.58 -131.61)"/><path class="cls-4" d="M527.7,283.37c-7.7,6.82-32,80.41-32,80.41l14,5.57,34.06-61.52h63.67s26.72,0,15-35.65C622.53,272.18,534.61,277.25,527.7,283.37Z" transform="translate(-392.58 -131.61)"/><path class="cls-3" d="M509.78,369.35v11.14H476.84s-1-8.6,4.48-11.14,10.9,1.57,10.9,1.57l3.51-7.14Z" transform="translate(-392.58 -131.61)"/><path class="cls-5" d="M476.87,377.1a18.25,18.25,0,0,0,0,3.39h32.94V377.1Z" transform="translate(-392.58 -131.61)"/><rect class="cls-6" x="63.56" y="132.18" width="7.17" height="116.69"/><rect class="cls-6" x="161.52" y="132.18" width="7.17" height="116.69"/><rect class="cls-7" x="234.32" y="132.18" width="7.17" height="116.69"/><rect class="cls-8" y="248.87" width="320.1" height="10.14" rx="4.87"/><rect class="cls-8" x="40.59" y="122.04" width="155.68" height="10.14" rx="5.07"/><rect class="cls-6" x="55.16" y="132.18" width="126.54" height="6.78"/><rect class="cls-3" x="190.79" y="176.28" width="94.25" height="10.14" rx="4.97"/><rect class="cls-7" x="202.48" y="186.43" width="70.86" height="6.78"/><rect class="cls-9" x="228.87" y="193.21" width="18.08" height="6.78"/><rect class="cls-9" x="228.87" y="235.31" width="18.08" height="6.78"/><rect class="cls-7" x="210.02" y="242.09" width="55.78" height="6.78"/><path class="cls-10" d="M539.94,238.88s-6.17-1.43-7.94-5.1c-3.23-6.67,18-51.73,18-51.73l7.47,8.68-8.73,32Z" transform="translate(-392.58 -131.61)"/><path class="cls-11" d="M556.17,238.8l-7.11-17.86-9.12,17.94C542,239.65,556.17,238.8,556.17,238.8Z" transform="translate(-392.58 -131.61)"/><path class="cls-11" d="M558.43,194.28s2.51,1.41,3.72-1.6l.75-1.85a2.28,2.28,0,0,0-1.38-3l-1.54-.53Z" transform="translate(-392.58 -131.61)"/><path class="cls-11" d="M562.31,185.62s-2.55,8.74-3.71,9.18-12.27-3.07-12-5.37,3-8.81,4.15-8.88S562.28,183.46,562.31,185.62Z" transform="translate(-392.58 -131.61)"/><path class="cls-11" d="M554.84,186.24c.43.18,2.34-3.87,2.35-3.89-1.15-.43-2.33-.82-3.38-1.12l2.11.66S554.41,186.06,554.84,186.24Z" transform="translate(-392.58 -131.61)"/><path class="cls-11" d="M552.76,181s-1.2,3.62-1,3.84,2-3.55,2-3.57Z" transform="translate(-392.58 -131.61)"/><path class="cls-11" d="M558.24,187.25c.32.29,1.5-2.11,2.14-3.49-.29-.16-.6-.32-.93-.47C559.42,183.34,557.8,186.84,558.24,187.25Z" transform="translate(-392.58 -131.61)"/><path class="cls-11" d="M557.27,182.38l2.07.86C558.69,182.94,558,182.65,557.27,182.38Z" transform="translate(-392.58 -131.61)"/><path class="cls-12" d="M580.7,226.39c-6.35,4-13.86,9.53-23.83,14.16l-7.81-19.61c8.28-4.82,18.51-9.42,24.36-13.33,10.21-6.82,18.62-4.19,19.63,4.6C593.84,219,580.7,226.39,580.7,226.39Z" transform="translate(-392.58 -131.61)"/><path class="cls-13" d="M587.05,222l-4.92-5.09-25.26,23.68c10-4.63,17.48-10.18,23.83-14.16A46.5,46.5,0,0,0,587.05,222Z" transform="translate(-392.58 -131.61)"/><path class="cls-12" d="M582.35,210.69s6.47-16.23,31-8.4,41.87,69.89,41.87,69.89l-44.14,3.52S596.33,246.48,583.34,235C573.76,226.59,582.35,210.69,582.35,210.69Z" transform="translate(-392.58 -131.61)"/><path class="cls-14" d="M590.06,213.51c9-3.11,12-10.41,9.24-13.3-9.61.58-14.24,6-16,8.78C583.27,209,581,216.64,590.06,213.51Z" transform="translate(-392.58 -131.61)"/><path class="cls-13" d="M604.26,263.34s20,2.26,26.23,1.11,7.85-8.11,2-20.14S622,246.23,622,246.23l-7.77,5.93-12.71,8.34Z" transform="translate(-392.58 -131.61)"/><path class="cls-7" d="M559.57,283.37c-7.7,6.82-32,80.41-32,80.41l14,5.57,34.06-61.52h63.67s26.73,0,15-35.65C654.4,272.18,566.48,277.25,559.57,283.37Z" transform="translate(-392.58 -131.61)"/><path class="cls-15" d="M654.4,272.18s-20.95,1.21-43.2,3.16l-.14.36,44.6.78C655.3,275.1,654.9,273.69,654.4,272.18Z" transform="translate(-392.58 -131.61)"/><path class="cls-2" d="M541.65,369.35v11.14H508.71s-1-8.6,4.48-11.14,10.9,1.57,10.9,1.57l3.51-7.14Z" transform="translate(-392.58 -131.61)"/><path class="cls-11" d="M580.36,205s3.6,1.67,6.49,6.8c0,0,6.73-.44,10.49-8.76L591,197.79Z" transform="translate(-392.58 -131.61)"/><path class="cls-10" d="M632,244s2.23,10-.2,13.26c-4.42,6-54.17,8-54.17,8l4.24-10.63,32.43-7.1Z" transform="translate(-392.58 -131.61)"/><path class="cls-11" d="M632,244l-17.7,3.56,18.34.29C632.33,245.67,632,244,632,244Z" transform="translate(-392.58 -131.61)"/><path class="cls-11" d="M584.52,252.14s.08-2.88-3.14-2.56l-2,.19a2.28,2.28,0,0,0-2,2.61l.24,1.62Z" transform="translate(-392.58 -131.61)"/><path class="cls-10" d="M575,252.7s8.93-1.78,9.86-1,3,12.3.8,13.12-9.21,1.41-9.79.43S573.15,253.74,575,252.7Z" transform="translate(-392.58 -131.61)"/><path class="cls-12" d="M623.34,218.17c2.65,7,6.62,15.46,9.19,26.14l-20.76,3.81c-3.1-9.08-5.59-20-8.28-26.52-4.68-11.34-.44-19.07,8.37-18.34C618.71,203.83,623.34,218.17,623.34,218.17Z" transform="translate(-392.58 -131.61)"/><path class="cls-11" d="M579.06,259c0-.47-4.52-.28-4.54-.28.15,1.22.36,2.44.57,3.51l-.39-2.17S579.09,259.51,579.06,259Z" transform="translate(-392.58 -131.61)"/><path class="cls-11" d="M575.33,263.34s3.77-.62,3.88-.88-4.09-.15-4.11-.15C575.18,262.68,575.25,263,575.33,263.34Z" transform="translate(-392.58 -131.61)"/><path class="cls-11" d="M578.37,255.56c.12-.42-2.55-.35-4.08-.28,0,.33,0,.68,0,1C574.36,256.32,578.22,256.14,578.37,255.56Z" transform="translate(-392.58 -131.61)"/><path class="cls-11" d="M574.51,258.68l-.2-2.24C574.34,257.15,574.41,257.91,574.51,258.68Z" transform="translate(-392.58 -131.61)"/><path class="cls-4" d="M551.45,166.65s-8.91,13.33,5.9,20.22S564.7,173,564.7,173l-6.81-4.45Z" transform="translate(-392.58 -131.61)"/><path class="cls-10" d="M558.13,190.22s-1.63,6.16-1.28,7.37,4.35,1,4.35,1Z" transform="translate(-392.58 -131.61)"/><path class="cls-10" d="M556.36,180.11s1.52,21.86,12.88,27.19c7.27,3.41,21.73-9.51,21.73-9.51a25.28,25.28,0,0,0,1.5-14.49c-4.1-10.51-13.68-13-20.63-11.28S556.83,175.05,556.36,180.11Z" transform="translate(-392.58 -131.61)"/><path class="cls-11" d="M568.8,184.81c-5.28,1.19-9.33-2.41-9.34-2.41h0L561,177.7l.14-.17,7.06-3.62c1.32-.69,8.29-1.06,13.91-1.26a17.69,17.69,0,0,1,10.34,10.65c1.21,6.55-1.5,14.49-1.5,14.49s-2.79,5.42-10.61,7.24c5.37-4.33,4.08-8.85,1-13.45S574.1,183.62,568.8,184.81Z" transform="translate(-392.58 -131.61)"/><path class="cls-7" d="M593.2,199.64s-7.58-2.41-11-8.85c0,0,5.29-6.38,1-10s-5.47,2.51-5.62,4.54a11.1,11.1,0,0,0-9.74-2.77c-6.14,1.08-14,.32-16.25-9.42s5-14.34,5-14.34,19.42-12.45,34.16,5.45c0,0,5.94.17,8.33,7.44a13.21,13.21,0,0,1-1.77,11.36C590.18,193.81,593.2,199.64,593.2,199.64Z" transform="translate(-392.58 -131.61)"/><path class="cls-4" d="M561.26,189.93a.81.81,0,0,0,.51-1,.78.78,0,0,0-.8-.53,1.12,1.12,0,0,1,.64-.64c.78-.25,1.75.58,2.17,1.86s.13,2.52-.64,2.78-1.75-.58-2.17-1.86a3.16,3.16,0,0,1-.14-.59A.7.7,0,0,0,561.26,189.93Z" transform="translate(-392.58 -131.61)"/><path class="cls-4" d="M558,183.32a3,3,0,0,0,.56,1.07,4,4,0,0,0,.91.85,3.8,3.8,0,0,0,1.38.57,3.06,3.06,0,0,0,1.54-.12,2.3,2.3,0,0,0,.63-.3,1.87,1.87,0,0,0,.48-.38,2.53,2.53,0,0,0,.53-.71l.15-.3-.32.1-.33.13c-.12.06-.28.08-.42.14a5,5,0,0,1-1,.2,3.39,3.39,0,0,1-1,0,8.54,8.54,0,0,1-2.05-.71Z" transform="translate(-392.58 -131.61)"/><path class="cls-1" d="M563.41,202.24c2.25-.29,5.13-.7,6.44-1a1.47,1.47,0,0,0,.86-2.4,4.76,4.76,0,0,0-3.11-1.36,10.48,10.48,0,0,0-6.35,1.22A26.74,26.74,0,0,0,563.41,202.24Z" transform="translate(-392.58 -131.61)"/><rect class="cls-7" x="82.35" y="117.51" width="60.9" height="4.52"/><circle class="cls-7" cx="82.35" cy="118.47" r="3.56"/><rect class="cls-7" x="435.92" y="222.2" width="57.32" height="5.34" transform="translate(39.87 608.4) rotate(-112.26)"/><circle class="cls-16" cx="82.35" cy="118.47" r="1.89"/><rect class="cls-4" x="89.63" y="119.53" width="8" height="0.68"/><circle class="cls-4" cx="100.44" cy="119.87" r="0.67"/><circle class="cls-4" cx="102.93" cy="119.87" r="0.67"/><path class="cls-7" d="M535.33,171.2l-.25,9.06c0,.81,1.22.81,1.25,0l.25-9.06c0-.8-1.22-.8-1.25,0Z" transform="translate(-392.58 -131.61)"/><path class="cls-7" d="M540.36,175.24,531.3,175a.63.63,0,0,0,0,1.25l9.06.26a.63.63,0,0,0,0-1.25Z" transform="translate(-392.58 -131.61)"/><path class="cls-7" d="M532.28,172.88l6.22,6.59c.55.59,1.44-.3.88-.88L533.16,172c-.55-.59-1.44.3-.88.88Z" transform="translate(-392.58 -131.61)"/><path class="cls-7" d="M538.68,172.18l-6.59,6.22c-.58.56.3,1.44.89.89l6.59-6.23c.58-.55-.3-1.43-.89-.88Z" transform="translate(-392.58 -131.61)"/><path class="cls-7" d="M582.78,145.54l-.13,4.42a.31.31,0,0,0,.61,0l.13-4.42a.31.31,0,0,0-.61,0Z" transform="translate(-392.58 -131.61)"/><path class="cls-7" d="M585.22,147.51l-4.41-.13a.31.31,0,0,0,0,.61l4.41.13a.31.31,0,0,0,0-.61Z" transform="translate(-392.58 -131.61)"/><path class="cls-7" d="M581.29,146.36l3,3.21c.27.29.7-.14.43-.43l-3-3.21c-.27-.29-.7.15-.43.43Z" transform="translate(-392.58 -131.61)"/><path class="cls-7" d="M584.41,146l-3.21,3c-.29.27.15.7.43.43l3.21-3c.28-.27-.15-.7-.43-.43Z" transform="translate(-392.58 -131.61)"/><path class="cls-9" d="M544.18,364.78l-15-5.74c-1,3-1.59,4.74-1.59,4.74l14,5.57Z" transform="translate(-392.58 -131.61)"/><path class="cls-9" d="M512.54,364.35l-15.13-5.59c-1.06,3.15-1.68,5-1.68,5l14,5.57Z" transform="translate(-392.58 -131.61)"/><path class="cls-17" d="M508.75,377.1a17.8,17.8,0,0,0,0,3.39h32.94V377.1Z" transform="translate(-392.58 -131.61)"/><path class="cls-14" d="M552.59,219c-1.2.65-2.39,1.31-3.53,2l7.81,19.61c1.32-.61,2.6-1.24,3.84-1.88Z" transform="translate(-392.58 -131.61)"/><path class="cls-14" d="M611.77,248.12l20.76-3.81c-.33-1.38-.69-2.73-1.06-4l-21,3.85C610.89,245.48,611.32,246.82,611.77,248.12Z" transform="translate(-392.58 -131.61)"/><text class="cls-18" transform="translate(207.06 30.07)">?</text><text class="cls-19" transform="translate(155.48 23.01) scale(1.16 1)">?</text></g></svg>